<svg width="124" height="52" viewBox="0 0 124 52" fill="none" xmlns="http://www.w3.org/2000/svg">
<g clip-path="url(#clip0_1415_2650)">
<rect width="124" height="52" rx="12" fill="black"/>
<rect x="0.5" y="0.5" width="123" height="51" rx="11.5" stroke="white" stroke-opacity="0.4"/>
<path d="M42.6744 32.2003C41.7217 30.9382 40.6004 29.8611 39.5396 28.7173C38.5825 27.6864 38.5221 27.0883 39.2915 25.8984C40.1312 24.5997 41.0342 23.3508 41.8815 22.058C42.6724 20.8498 43.481 19.6448 43.8971 18.1982C44.1611 17.2778 43.9277 16.8713 43.073 16.7101C42.9258 16.6819 42.7736 16.6805 42.6237 16.6805L37.5535 16.6739C36.929 16.6636 36.5838 16.9643 36.3629 17.5756C36.0648 18.4018 35.7574 19.2273 35.4022 20.0246C34.5963 21.8324 33.6963 23.5797 32.4345 25.0593C32.1562 25.3856 31.8485 25.798 31.3835 25.6281C30.8019 25.3937 30.6304 24.3353 30.64 23.9774L30.6351 17.5144C30.5223 16.5911 30.3369 16.1795 29.5069 16L24.24 16.0011C23.5369 16.0011 23.1844 16.301 22.809 16.7867C22.5925 17.0672 22.5271 17.2492 22.9722 17.3423C23.8463 17.5254 24.3388 18.1502 24.4695 19.1182C24.679 20.6648 24.6645 22.2177 24.5437 23.7705C24.5083 24.2239 24.4376 24.6762 24.2748 25.0996C24.0201 25.7651 23.6089 25.9006 23.0687 25.4911C22.5795 25.1205 22.236 24.5975 21.8997 24.0723C20.6365 22.1012 19.6287 19.9755 18.8069 17.7418C18.5695 17.0965 18.1599 16.7054 17.5408 16.6948C16.0196 16.668 14.4981 16.6636 12.9769 16.6962C12.0617 16.7153 11.7887 17.206 12.1615 18.1224C13.8183 22.1924 15.6625 26.1493 18.0697 29.7538C19.3057 31.6037 20.7247 33.2367 22.558 34.3941C24.6356 35.7059 26.8721 36.1007 29.2276 35.9791C30.3306 35.922 30.6619 35.6052 30.713 34.3911C30.7475 33.5605 30.8327 32.7346 31.2038 31.9882C31.5679 31.2557 32.1194 31.1162 32.7552 31.5718C33.0732 31.8 33.3411 32.0904 33.5942 32.3966C34.215 33.1466 34.8136 33.9194 35.4579 34.6442C36.2661 35.5525 37.2235 36.089 38.4273 35.9795L43.0873 35.9806C43.8381 35.9264 44.2274 34.9097 43.7963 33.9842C43.4936 33.336 43.0963 32.7588 42.6744 32.2003Z" fill="#0177FF"/>
<path d="M59.72 12.335V19.5H58.75V14.41C58.75 14.2667 58.7533 14.1183 58.76 13.965C58.7667 13.8083 58.7817 13.6433 58.805 13.47C58.7483 13.62 58.6883 13.76 58.625 13.89C58.5617 14.02 58.4967 14.1333 58.43 14.23L55.07 19.195C55.0233 19.2717 54.9633 19.3417 54.89 19.405C54.8167 19.4683 54.7317 19.5 54.635 19.5H53.915V12.335H54.885V17.43C54.885 17.5733 54.8817 17.7233 54.875 17.88C54.8683 18.0333 54.8533 18.1983 54.83 18.375C54.8867 18.2217 54.9467 18.08 55.01 17.95C55.0767 17.82 55.1417 17.705 55.205 17.605L58.565 12.64C58.6117 12.5633 58.6717 12.4933 58.745 12.43C58.8183 12.3667 58.9033 12.335 59 12.335H59.72ZM64.5486 15.115H62.1586V19.5H61.2636V14.435H64.5486V15.115ZM66.2895 18.28C66.4528 18.5 66.6311 18.655 66.8245 18.745C67.0178 18.835 67.2345 18.88 67.4745 18.88C67.9478 18.88 68.3111 18.7117 68.5645 18.375C68.8178 18.0383 68.9445 17.5583 68.9445 16.935C68.9445 16.605 68.9145 16.3217 68.8545 16.085C68.7978 15.8483 68.7145 15.655 68.6045 15.505C68.4945 15.3517 68.3595 15.24 68.1995 15.17C68.0395 15.1 67.8578 15.065 67.6545 15.065C67.3645 15.065 67.1095 15.1317 66.8895 15.265C66.6728 15.3983 66.4728 15.5867 66.2895 15.83V18.28ZM66.2445 15.22C66.4578 14.9567 66.7045 14.745 66.9845 14.585C67.2645 14.425 67.5845 14.345 67.9445 14.345C68.2378 14.345 68.5028 14.4017 68.7395 14.515C68.9761 14.625 69.1778 14.79 69.3445 15.01C69.5111 15.2267 69.6395 15.4967 69.7295 15.82C69.8195 16.1433 69.8645 16.515 69.8645 16.935C69.8645 17.3083 69.8145 17.6567 69.7145 17.98C69.6145 18.3 69.4695 18.5783 69.2795 18.815C69.0928 19.0483 68.8628 19.2333 68.5895 19.37C68.3195 19.5033 68.0145 19.57 67.6745 19.57C67.3645 19.57 67.0978 19.5183 66.8745 19.415C66.6545 19.3083 66.4595 19.1617 66.2895 18.975V21.215H65.3945V14.435H65.9295C66.0561 14.435 66.1345 14.4967 66.1645 14.62L66.2445 15.22ZM73.7352 17.22C73.3252 17.2333 72.9752 17.2667 72.6852 17.32C72.3985 17.37 72.1635 17.4367 71.9802 17.52C71.8002 17.6033 71.6685 17.7017 71.5852 17.815C71.5052 17.9283 71.4652 18.055 71.4652 18.195C71.4652 18.3283 71.4868 18.4433 71.5302 18.54C71.5735 18.6367 71.6318 18.7167 71.7052 18.78C71.7818 18.84 71.8702 18.885 71.9702 18.915C72.0735 18.9417 72.1835 18.955 72.3002 18.955C72.4568 18.955 72.6002 18.94 72.7302 18.91C72.8602 18.8767 72.9818 18.83 73.0952 18.77C73.2118 18.71 73.3218 18.6383 73.4252 18.555C73.5318 18.4717 73.6352 18.3767 73.7352 18.27V17.22ZM70.8602 15.15C71.1402 14.88 71.4418 14.6783 71.7652 14.545C72.0885 14.4117 72.4468 14.345 72.8402 14.345C73.1235 14.345 73.3752 14.3917 73.5952 14.485C73.8152 14.5783 74.0002 14.7083 74.1502 14.875C74.3002 15.0417 74.4135 15.2433 74.4902 15.48C74.5668 15.7167 74.6052 15.9767 74.6052 16.26V19.5H74.2102C74.1235 19.5 74.0568 19.4867 74.0102 19.46C73.9635 19.43 73.9268 19.3733 73.9002 19.29L73.8002 18.81C73.6668 18.9333 73.5368 19.0433 73.4102 19.14C73.2835 19.2333 73.1502 19.3133 73.0102 19.38C72.8702 19.4433 72.7202 19.4917 72.5602 19.525C72.4035 19.5617 72.2285 19.58 72.0352 19.58C71.8385 19.58 71.6535 19.5533 71.4802 19.5C71.3068 19.4433 71.1552 19.36 71.0252 19.25C70.8985 19.14 70.7968 19.0017 70.7202 18.835C70.6468 18.665 70.6102 18.465 70.6102 18.235C70.6102 18.035 70.6652 17.8433 70.7752 17.66C70.8852 17.4733 71.0635 17.3083 71.3102 17.165C71.5568 17.0217 71.8785 16.905 72.2752 16.815C72.6718 16.7217 73.1585 16.6683 73.7352 16.655V16.26C73.7352 15.8667 73.6502 15.57 73.4802 15.37C73.3102 15.1667 73.0618 15.065 72.7352 15.065C72.5152 15.065 72.3302 15.0933 72.1802 15.15C72.0335 15.2033 71.9052 15.265 71.7952 15.335C71.6885 15.4017 71.5952 15.4633 71.5152 15.52C71.4385 15.5733 71.3618 15.6 71.2852 15.6C71.2252 15.6 71.1735 15.585 71.1302 15.555C71.0868 15.5217 71.0502 15.4817 71.0202 15.435L70.8602 15.15ZM80.3059 14.435V19.5H79.4159V16.06C79.4159 15.9933 79.4192 15.9217 79.4259 15.845C79.4325 15.7683 79.4409 15.6917 79.4509 15.615C79.4209 15.6817 79.3909 15.7433 79.3609 15.8C79.3309 15.8567 79.2992 15.9083 79.2659 15.955L76.8209 19.28C76.7842 19.3333 76.7375 19.385 76.6809 19.435C76.6275 19.4817 76.5675 19.505 76.5009 19.505H75.9609V14.44H76.8559V17.88C76.8559 17.9433 76.8525 18.0133 76.8459 18.09C76.8392 18.1633 76.8309 18.2383 76.8209 18.315C76.8509 18.2517 76.8809 18.1933 76.9109 18.14C76.9409 18.0833 76.9709 18.0317 77.0009 17.985L79.4459 14.66C79.4825 14.6067 79.5292 14.5567 79.5859 14.51C79.6425 14.46 79.7042 14.435 79.7709 14.435H80.3059ZM78.1909 13.21C78.3275 13.21 78.4425 13.195 78.5359 13.165C78.6292 13.1317 78.7042 13.08 78.7609 13.01C78.8209 12.94 78.8642 12.85 78.8909 12.74C78.9175 12.63 78.9309 12.495 78.9309 12.335H79.4509C79.5142 12.335 79.5625 12.3633 79.5959 12.42C79.6292 12.4767 79.6459 12.5383 79.6459 12.605C79.6459 12.7717 79.6125 12.9217 79.5459 13.055C79.4792 13.1883 79.3825 13.3033 79.2559 13.4C79.1325 13.4933 78.9809 13.565 78.8009 13.615C78.6209 13.665 78.4175 13.69 78.1909 13.69C77.9642 13.69 77.7609 13.665 77.5809 13.615C77.4009 13.565 77.2475 13.4933 77.1209 13.4C76.9975 13.3033 76.9025 13.1883 76.8359 13.055C76.7692 12.9217 76.7359 12.7717 76.7359 12.605C76.7359 12.5383 76.7525 12.4767 76.7859 12.42C76.8192 12.3633 76.8675 12.335 76.9309 12.335H77.4509C77.4509 12.495 77.4642 12.63 77.4909 12.74C77.5175 12.85 77.5592 12.94 77.6159 13.01C77.6759 13.08 77.7525 13.1317 77.8459 13.165C77.9392 13.195 78.0542 13.21 78.1909 13.21ZM85.9228 15.115H83.9778V19.5H83.0878V15.115H81.1428V14.435H85.9228V15.115ZM89.9563 16.415C89.9563 16.2083 89.9263 16.02 89.8663 15.85C89.8097 15.6767 89.7247 15.5283 89.6113 15.405C89.5013 15.2783 89.3663 15.1817 89.2063 15.115C89.0463 15.045 88.8647 15.01 88.6613 15.01C88.2347 15.01 87.8963 15.135 87.6463 15.385C87.3997 15.6317 87.2463 15.975 87.1863 16.415H89.9563ZM90.6763 18.79C90.5663 18.9233 90.4347 19.04 90.2813 19.14C90.128 19.2367 89.963 19.3167 89.7863 19.38C89.613 19.4433 89.433 19.49 89.2463 19.52C89.0597 19.5533 88.8747 19.57 88.6913 19.57C88.3413 19.57 88.018 19.5117 87.7213 19.395C87.428 19.275 87.173 19.1017 86.9563 18.875C86.743 18.645 86.5763 18.3617 86.4563 18.025C86.3363 17.6883 86.2763 17.3017 86.2763 16.865C86.2763 16.5117 86.3297 16.1817 86.4363 15.875C86.5463 15.5683 86.703 15.3033 86.9063 15.08C87.1097 14.8533 87.358 14.6767 87.6513 14.55C87.9447 14.42 88.2747 14.355 88.6413 14.355C88.9447 14.355 89.2247 14.4067 89.4813 14.51C89.7413 14.61 89.9647 14.7567 90.1513 14.95C90.3413 15.14 90.4897 15.3767 90.5963 15.66C90.703 15.94 90.7563 16.26 90.7563 16.62C90.7563 16.76 90.7413 16.8533 90.7113 16.9C90.6813 16.9467 90.6247 16.97 90.5413 16.97H87.1563C87.1663 17.29 87.2097 17.5683 87.2863 17.805C87.3663 18.0417 87.4763 18.24 87.6163 18.4C87.7563 18.5567 87.923 18.675 88.1163 18.755C88.3097 18.8317 88.5263 18.87 88.7663 18.87C88.9897 18.87 89.1813 18.845 89.3413 18.795C89.5047 18.7417 89.6447 18.685 89.7613 18.625C89.878 18.565 89.9747 18.51 90.0513 18.46C90.1313 18.4067 90.1997 18.38 90.2563 18.38C90.3297 18.38 90.3863 18.4083 90.4263 18.465L90.6763 18.79ZM98.6281 14.435V19.5H97.7331V17.13H95.3031V19.5H94.4081V14.435H95.3031V16.455H97.7331V14.435H98.6281ZM102.788 17.22C102.378 17.2333 102.028 17.2667 101.738 17.32C101.451 17.37 101.216 17.4367 101.033 17.52C100.853 17.6033 100.721 17.7017 100.638 17.815C100.558 17.9283 100.518 18.055 100.518 18.195C100.518 18.3283 100.54 18.4433 100.583 18.54C100.626 18.6367 100.685 18.7167 100.758 18.78C100.835 18.84 100.923 18.885 101.023 18.915C101.126 18.9417 101.236 18.955 101.353 18.955C101.51 18.955 101.653 18.94 101.783 18.91C101.913 18.8767 102.035 18.83 102.148 18.77C102.265 18.71 102.375 18.6383 102.478 18.555C102.585 18.4717 102.688 18.3767 102.788 18.27V17.22ZM99.9129 15.15C100.193 14.88 100.495 14.6783 100.818 14.545C101.141 14.4117 101.5 14.345 101.893 14.345C102.176 14.345 102.428 14.3917 102.648 14.485C102.868 14.5783 103.053 14.7083 103.203 14.875C103.353 15.0417 103.466 15.2433 103.543 15.48C103.62 15.7167 103.658 15.9767 103.658 16.26V19.5H103.263C103.176 19.5 103.11 19.4867 103.063 19.46C103.016 19.43 102.98 19.3733 102.953 19.29L102.853 18.81C102.72 18.9333 102.59 19.0433 102.463 19.14C102.336 19.2333 102.203 19.3133 102.063 19.38C101.923 19.4433 101.773 19.4917 101.613 19.525C101.456 19.5617 101.281 19.58 101.088 19.58C100.891 19.58 100.706 19.5533 100.533 19.5C100.36 19.4433 100.208 19.36 100.078 19.25C99.9512 19.14 99.8496 19.0017 99.7729 18.835C99.6996 18.665 99.6629 18.465 99.6629 18.235C99.6629 18.035 99.7179 17.8433 99.8279 17.66C99.9379 17.4733 100.116 17.3083 100.363 17.165C100.61 17.0217 100.931 16.905 101.328 16.815C101.725 16.7217 102.211 16.6683 102.788 16.655V16.26C102.788 15.8667 102.703 15.57 102.533 15.37C102.363 15.1667 102.115 15.065 101.788 15.065C101.568 15.065 101.383 15.0933 101.233 15.15C101.086 15.2033 100.958 15.265 100.848 15.335C100.741 15.4017 100.648 15.4633 100.568 15.52C100.491 15.5733 100.415 15.6 100.338 15.6C100.278 15.6 100.226 15.585 100.183 15.555C100.14 15.5217 100.103 15.4817 100.073 15.435L99.9129 15.15Z" fill="white"/>
<path d="M64.584 26.844L59.912 38.5H57.464L52.792 26.844H54.968C55.2027 26.844 55.392 26.9 55.536 27.012C55.68 27.1187 55.7893 27.2573 55.864 27.428L58.12 33.668C58.2267 33.94 58.3307 34.2387 58.432 34.564C58.5333 34.884 58.6293 35.22 58.72 35.572C58.7947 35.22 58.8773 34.884 58.968 34.564C59.064 34.2387 59.1653 33.94 59.272 33.668L61.512 27.428C61.5707 27.2787 61.6747 27.1453 61.824 27.028C61.9787 26.9053 62.168 26.844 62.392 26.844H64.584ZM68.367 31.564H68.799C69.199 31.564 69.487 31.4387 69.663 31.188L72.287 27.38C72.4417 27.1773 72.607 27.0387 72.783 26.964C72.9643 26.884 73.1883 26.844 73.455 26.844H75.807L72.351 31.556C72.1057 31.8813 71.8417 32.116 71.559 32.26C71.7617 32.3347 71.9457 32.4387 72.111 32.572C72.2763 32.7053 72.431 32.8787 72.575 33.092L76.095 38.5H73.679C73.5243 38.5 73.391 38.4893 73.279 38.468C73.1723 38.4467 73.079 38.4147 72.999 38.372C72.919 38.3293 72.8497 38.2787 72.791 38.22C72.7323 38.156 72.6763 38.084 72.623 38.004L69.983 33.948C69.887 33.7987 69.7643 33.6947 69.615 33.636C69.471 33.572 69.2737 33.54 69.023 33.54H68.367V38.5H65.663V26.844H68.367V31.564ZM85.095 32.564C85.799 32.564 86.3057 32.396 86.615 32.06C86.9243 31.724 87.079 31.2547 87.079 30.652C87.079 30.3853 87.039 30.1427 86.959 29.924C86.879 29.7053 86.7563 29.5187 86.591 29.364C86.431 29.204 86.2257 29.0813 85.975 28.996C85.7297 28.9107 85.4363 28.868 85.095 28.868H83.687V32.564H85.095ZM85.095 26.844C85.9163 26.844 86.6203 26.9427 87.207 27.14C87.799 27.332 88.2843 27.5987 88.663 27.94C89.047 28.2813 89.3297 28.684 89.511 29.148C89.6923 29.612 89.783 30.1133 89.783 30.652C89.783 31.2333 89.6897 31.7667 89.503 32.252C89.3163 32.7373 89.031 33.1533 88.647 33.5C88.263 33.8467 87.775 34.1187 87.183 34.316C86.5963 34.508 85.9003 34.604 85.095 34.604H83.687V38.5H80.983V26.844H85.095ZM93.5069 26.524V38.5H91.0269V26.524H93.5069ZM99.6231 35.124C99.1271 35.1453 98.7191 35.188 98.3991 35.252C98.0791 35.316 97.8258 35.396 97.6391 35.492C97.4525 35.588 97.3218 35.6973 97.2471 35.82C97.1778 35.9427 97.1431 36.076 97.1431 36.22C97.1431 36.5027 97.2205 36.7027 97.3751 36.82C97.5298 36.932 97.7565 36.988 98.0551 36.988C98.3751 36.988 98.6551 36.932 98.8951 36.82C99.1351 36.708 99.3778 36.5267 99.6231 36.276V35.124ZM95.1591 31.356C95.6605 30.9133 96.2151 30.5853 96.8231 30.372C97.4365 30.1533 98.0925 30.044 98.7911 30.044C99.2925 30.044 99.7431 30.1267 100.143 30.292C100.548 30.452 100.89 30.6787 101.167 30.972C101.45 31.26 101.666 31.604 101.815 32.004C101.964 32.404 102.039 32.8413 102.039 33.316V38.5H100.903C100.668 38.5 100.49 38.468 100.367 38.404C100.25 38.34 100.151 38.2067 100.071 38.004L99.8951 37.548C99.6871 37.724 99.4871 37.8787 99.2951 38.012C99.1031 38.1453 98.9031 38.26 98.6951 38.356C98.4925 38.4467 98.2738 38.5133 98.0391 38.556C97.8098 38.604 97.5538 38.628 97.2711 38.628C96.8925 38.628 96.5485 38.58 96.2391 38.484C95.9298 38.3827 95.6658 38.236 95.4471 38.044C95.2338 37.852 95.0685 37.6147 94.9511 37.332C94.8338 37.044 94.7751 36.7133 94.7751 36.34C94.7751 36.0413 94.8498 35.74 94.9991 35.436C95.1485 35.1267 95.4071 34.8467 95.7751 34.596C96.1431 34.34 96.6391 34.1267 97.2631 33.956C97.8871 33.7853 98.6738 33.6893 99.6231 33.668V33.316C99.6231 32.8307 99.5218 32.4813 99.3191 32.268C99.1218 32.0493 98.8391 31.94 98.4711 31.94C98.1778 31.94 97.9378 31.972 97.7511 32.036C97.5645 32.1 97.3965 32.172 97.2471 32.252C97.1031 32.332 96.9618 32.404 96.8231 32.468C96.6845 32.532 96.5191 32.564 96.3271 32.564C96.1565 32.564 96.0125 32.5213 95.8951 32.436C95.7778 32.3507 95.6818 32.2493 95.6071 32.132L95.1591 31.356ZM111.399 30.204L106.967 40.652C106.892 40.8173 106.801 40.9373 106.695 41.012C106.588 41.092 106.417 41.132 106.183 41.132H104.327L105.927 37.772L102.615 30.204H104.807C104.999 30.204 105.145 30.2467 105.247 30.332C105.353 30.4173 105.431 30.5187 105.479 30.636L106.839 34.212C106.967 34.5373 107.071 34.8707 107.151 35.212C107.209 35.0413 107.268 34.8707 107.327 34.7C107.385 34.5293 107.447 34.3613 107.511 34.196L108.743 30.636C108.791 30.5133 108.876 30.412 108.999 30.332C109.121 30.2467 109.255 30.204 109.399 30.204H111.399Z" fill="white"/>
</g>
<defs>
<clipPath id="clip0_1415_2650">
<rect width="124" height="52" rx="12" fill="white"/>
</clipPath>
</defs>
</svg>
