<svg width="140" height="52" viewBox="0 0 140 52" fill="none" xmlns="http://www.w3.org/2000/svg">
<g clip-path="url(#clip0_1415_2652)">
<rect width="140" height="52" rx="12" fill="black"/>
<rect x="0.5" y="0.5" width="139" height="51" rx="11.5" stroke="white" stroke-opacity="0.4"/>
<g clip-path="url(#clip1_1415_2652)">
<path d="M44 37.3173C44 39.9036 41.9141 42 39.3411 42H16.6589C14.0858 42 12 39.9036 12 37.3173V14.6827C12 12.0965 14.0858 10 16.6589 10H39.3411C41.9142 10 44 12.0965 44 14.6827V37.3173Z" fill="#F7931E"/>
<path d="M43.8358 37.2007C43.8358 39.7604 41.7714 41.8353 39.2248 41.8353H16.7755C14.2289 41.8353 12.1646 39.7604 12.1646 37.2007V14.7987C12.1646 12.239 14.229 10.1641 16.7755 10.1641H39.2248C41.7714 10.1641 43.8358 12.2391 43.8358 14.7987V37.2007Z" fill="#F7931E"/>
<path d="M27.9821 14.7822C24.8106 14.7822 22.2397 17.3664 22.2397 20.554C22.2397 23.7418 24.8106 26.3261 27.9821 26.3261C31.1536 26.3261 33.7245 23.7418 33.7245 20.554C33.7245 17.3664 31.1536 14.7822 27.9821 14.7822ZM27.9821 22.9401C26.6711 22.9401 25.6083 21.8718 25.6083 20.5541C25.6083 19.2364 26.6711 18.1682 27.9821 18.1682C29.2931 18.1682 30.3559 19.2364 30.3559 20.5541C30.3559 21.8718 29.2931 22.9401 27.9821 22.9401Z" fill="white"/>
<path d="M30.0097 30.9195C32.3086 30.4488 33.6862 29.3545 33.7591 29.2958C34.4318 28.7535 34.5398 27.7658 34.0003 27.0896C33.4609 26.4134 32.4783 26.3048 31.8055 26.847C31.7913 26.8586 30.3219 27.9915 27.9044 27.9931C25.4869 27.9915 23.9865 26.8586 23.9723 26.847C23.2994 26.3048 22.3168 26.4134 21.7774 27.0896C21.2379 27.7658 21.346 28.7535 22.0187 29.2958C22.0926 29.3553 23.5271 30.4781 25.8904 30.9378L22.5966 34.3976C21.9981 35.0216 22.0161 36.0151 22.6368 36.6167C22.9398 36.9104 23.3303 37.0563 23.7205 37.0563C24.1296 37.0563 24.5382 36.8957 24.8446 36.5762L27.9045 33.3L31.2734 36.5975C31.8838 37.21 32.8722 37.209 33.4815 36.5957C34.0907 35.9824 34.09 34.9887 33.4797 34.3763L30.0097 30.9195Z" fill="white"/>
</g>
<path d="M59.72 12.335V19.5H58.75V14.41C58.75 14.2667 58.7533 14.1183 58.76 13.965C58.7667 13.8083 58.7817 13.6433 58.805 13.47C58.7483 13.62 58.6883 13.76 58.625 13.89C58.5617 14.02 58.4967 14.1333 58.43 14.23L55.07 19.195C55.0233 19.2717 54.9633 19.3417 54.89 19.405C54.8167 19.4683 54.7317 19.5 54.635 19.5H53.915V12.335H54.885V17.43C54.885 17.5733 54.8817 17.7233 54.875 17.88C54.8683 18.0333 54.8533 18.1983 54.83 18.375C54.8867 18.2217 54.9467 18.08 55.01 17.95C55.0767 17.82 55.1417 17.705 55.205 17.605L58.565 12.64C58.6117 12.5633 58.6717 12.4933 58.745 12.43C58.8183 12.3667 58.9033 12.335 59 12.335H59.72ZM64.5486 15.115H62.1586V19.5H61.2636V14.435H64.5486V15.115ZM66.2895 18.28C66.4528 18.5 66.6311 18.655 66.8245 18.745C67.0178 18.835 67.2345 18.88 67.4745 18.88C67.9478 18.88 68.3111 18.7117 68.5645 18.375C68.8178 18.0383 68.9445 17.5583 68.9445 16.935C68.9445 16.605 68.9145 16.3217 68.8545 16.085C68.7978 15.8483 68.7145 15.655 68.6045 15.505C68.4945 15.3517 68.3595 15.24 68.1995 15.17C68.0395 15.1 67.8578 15.065 67.6545 15.065C67.3645 15.065 67.1095 15.1317 66.8895 15.265C66.6728 15.3983 66.4728 15.5867 66.2895 15.83V18.28ZM66.2445 15.22C66.4578 14.9567 66.7045 14.745 66.9845 14.585C67.2645 14.425 67.5845 14.345 67.9445 14.345C68.2378 14.345 68.5028 14.4017 68.7395 14.515C68.9761 14.625 69.1778 14.79 69.3445 15.01C69.5111 15.2267 69.6395 15.4967 69.7295 15.82C69.8195 16.1433 69.8645 16.515 69.8645 16.935C69.8645 17.3083 69.8145 17.6567 69.7145 17.98C69.6145 18.3 69.4695 18.5783 69.2795 18.815C69.0928 19.0483 68.8628 19.2333 68.5895 19.37C68.3195 19.5033 68.0145 19.57 67.6745 19.57C67.3645 19.57 67.0978 19.5183 66.8745 19.415C66.6545 19.3083 66.4595 19.1617 66.2895 18.975V21.215H65.3945V14.435H65.9295C66.0561 14.435 66.1345 14.4967 66.1645 14.62L66.2445 15.22ZM73.7352 17.22C73.3252 17.2333 72.9752 17.2667 72.6852 17.32C72.3985 17.37 72.1635 17.4367 71.9802 17.52C71.8002 17.6033 71.6685 17.7017 71.5852 17.815C71.5052 17.9283 71.4652 18.055 71.4652 18.195C71.4652 18.3283 71.4868 18.4433 71.5302 18.54C71.5735 18.6367 71.6318 18.7167 71.7052 18.78C71.7818 18.84 71.8702 18.885 71.9702 18.915C72.0735 18.9417 72.1835 18.955 72.3002 18.955C72.4568 18.955 72.6002 18.94 72.7302 18.91C72.8602 18.8767 72.9818 18.83 73.0952 18.77C73.2118 18.71 73.3218 18.6383 73.4252 18.555C73.5318 18.4717 73.6352 18.3767 73.7352 18.27V17.22ZM70.8602 15.15C71.1402 14.88 71.4418 14.6783 71.7652 14.545C72.0885 14.4117 72.4468 14.345 72.8402 14.345C73.1235 14.345 73.3752 14.3917 73.5952 14.485C73.8152 14.5783 74.0002 14.7083 74.1502 14.875C74.3002 15.0417 74.4135 15.2433 74.4902 15.48C74.5668 15.7167 74.6052 15.9767 74.6052 16.26V19.5H74.2102C74.1235 19.5 74.0568 19.4867 74.0102 19.46C73.9635 19.43 73.9268 19.3733 73.9002 19.29L73.8002 18.81C73.6668 18.9333 73.5368 19.0433 73.4102 19.14C73.2835 19.2333 73.1502 19.3133 73.0102 19.38C72.8702 19.4433 72.7202 19.4917 72.5602 19.525C72.4035 19.5617 72.2285 19.58 72.0352 19.58C71.8385 19.58 71.6535 19.5533 71.4802 19.5C71.3068 19.4433 71.1552 19.36 71.0252 19.25C70.8985 19.14 70.7968 19.0017 70.7202 18.835C70.6468 18.665 70.6102 18.465 70.6102 18.235C70.6102 18.035 70.6652 17.8433 70.7752 17.66C70.8852 17.4733 71.0635 17.3083 71.3102 17.165C71.5568 17.0217 71.8785 16.905 72.2752 16.815C72.6718 16.7217 73.1585 16.6683 73.7352 16.655V16.26C73.7352 15.8667 73.6502 15.57 73.4802 15.37C73.3102 15.1667 73.0618 15.065 72.7352 15.065C72.5152 15.065 72.3302 15.0933 72.1802 15.15C72.0335 15.2033 71.9052 15.265 71.7952 15.335C71.6885 15.4017 71.5952 15.4633 71.5152 15.52C71.4385 15.5733 71.3618 15.6 71.2852 15.6C71.2252 15.6 71.1735 15.585 71.1302 15.555C71.0868 15.5217 71.0502 15.4817 71.0202 15.435L70.8602 15.15ZM80.3059 14.435V19.5H79.4159V16.06C79.4159 15.9933 79.4192 15.9217 79.4259 15.845C79.4325 15.7683 79.4409 15.6917 79.4509 15.615C79.4209 15.6817 79.3909 15.7433 79.3609 15.8C79.3309 15.8567 79.2992 15.9083 79.2659 15.955L76.8209 19.28C76.7842 19.3333 76.7375 19.385 76.6809 19.435C76.6275 19.4817 76.5675 19.505 76.5009 19.505H75.9609V14.44H76.8559V17.88C76.8559 17.9433 76.8525 18.0133 76.8459 18.09C76.8392 18.1633 76.8309 18.2383 76.8209 18.315C76.8509 18.2517 76.8809 18.1933 76.9109 18.14C76.9409 18.0833 76.9709 18.0317 77.0009 17.985L79.4459 14.66C79.4825 14.6067 79.5292 14.5567 79.5859 14.51C79.6425 14.46 79.7042 14.435 79.7709 14.435H80.3059ZM78.1909 13.21C78.3275 13.21 78.4425 13.195 78.5359 13.165C78.6292 13.1317 78.7042 13.08 78.7609 13.01C78.8209 12.94 78.8642 12.85 78.8909 12.74C78.9175 12.63 78.9309 12.495 78.9309 12.335H79.4509C79.5142 12.335 79.5625 12.3633 79.5959 12.42C79.6292 12.4767 79.6459 12.5383 79.6459 12.605C79.6459 12.7717 79.6125 12.9217 79.5459 13.055C79.4792 13.1883 79.3825 13.3033 79.2559 13.4C79.1325 13.4933 78.9809 13.565 78.8009 13.615C78.6209 13.665 78.4175 13.69 78.1909 13.69C77.9642 13.69 77.7609 13.665 77.5809 13.615C77.4009 13.565 77.2475 13.4933 77.1209 13.4C76.9975 13.3033 76.9025 13.1883 76.8359 13.055C76.7692 12.9217 76.7359 12.7717 76.7359 12.605C76.7359 12.5383 76.7525 12.4767 76.7859 12.42C76.8192 12.3633 76.8675 12.335 76.9309 12.335H77.4509C77.4509 12.495 77.4642 12.63 77.4909 12.74C77.5175 12.85 77.5592 12.94 77.6159 13.01C77.6759 13.08 77.7525 13.1317 77.8459 13.165C77.9392 13.195 78.0542 13.21 78.1909 13.21ZM85.9228 15.115H83.9778V19.5H83.0878V15.115H81.1428V14.435H85.9228V15.115ZM89.9563 16.415C89.9563 16.2083 89.9263 16.02 89.8663 15.85C89.8097 15.6767 89.7247 15.5283 89.6113 15.405C89.5013 15.2783 89.3663 15.1817 89.2063 15.115C89.0463 15.045 88.8647 15.01 88.6613 15.01C88.2347 15.01 87.8963 15.135 87.6463 15.385C87.3997 15.6317 87.2463 15.975 87.1863 16.415H89.9563ZM90.6763 18.79C90.5663 18.9233 90.4347 19.04 90.2813 19.14C90.128 19.2367 89.963 19.3167 89.7863 19.38C89.613 19.4433 89.433 19.49 89.2463 19.52C89.0597 19.5533 88.8747 19.57 88.6913 19.57C88.3413 19.57 88.018 19.5117 87.7213 19.395C87.428 19.275 87.173 19.1017 86.9563 18.875C86.743 18.645 86.5763 18.3617 86.4563 18.025C86.3363 17.6883 86.2763 17.3017 86.2763 16.865C86.2763 16.5117 86.3297 16.1817 86.4363 15.875C86.5463 15.5683 86.703 15.3033 86.9063 15.08C87.1097 14.8533 87.358 14.6767 87.6513 14.55C87.9447 14.42 88.2747 14.355 88.6413 14.355C88.9447 14.355 89.2247 14.4067 89.4813 14.51C89.7413 14.61 89.9647 14.7567 90.1513 14.95C90.3413 15.14 90.4897 15.3767 90.5963 15.66C90.703 15.94 90.7563 16.26 90.7563 16.62C90.7563 16.76 90.7413 16.8533 90.7113 16.9C90.6813 16.9467 90.6247 16.97 90.5413 16.97H87.1563C87.1663 17.29 87.2097 17.5683 87.2863 17.805C87.3663 18.0417 87.4763 18.24 87.6163 18.4C87.7563 18.5567 87.923 18.675 88.1163 18.755C88.3097 18.8317 88.5263 18.87 88.7663 18.87C88.9897 18.87 89.1813 18.845 89.3413 18.795C89.5047 18.7417 89.6447 18.685 89.7613 18.625C89.878 18.565 89.9747 18.51 90.0513 18.46C90.1313 18.4067 90.1997 18.38 90.2563 18.38C90.3297 18.38 90.3863 18.4083 90.4263 18.465L90.6763 18.79ZM96.3531 18.875C96.6865 18.875 96.9498 18.7983 97.1431 18.645C97.3365 18.4883 97.4331 18.275 97.4331 18.005C97.4331 17.885 97.4148 17.7767 97.3781 17.68C97.3415 17.58 97.2815 17.4933 97.1981 17.42C97.1148 17.3467 97.0031 17.29 96.8631 17.25C96.7265 17.21 96.5581 17.19 96.3581 17.19H95.2631V18.875H96.3531ZM95.2631 15.035V16.625H96.2381C96.3848 16.625 96.5198 16.605 96.6431 16.565C96.7698 16.5217 96.8781 16.4633 96.9681 16.39C97.0581 16.3133 97.1281 16.2233 97.1781 16.12C97.2281 16.0133 97.2531 15.8967 97.2531 15.77C97.2531 15.6767 97.2365 15.5867 97.2031 15.5C97.1698 15.41 97.1131 15.3317 97.0331 15.265C96.9531 15.195 96.8481 15.14 96.7181 15.1C96.5881 15.0567 96.4281 15.035 96.2381 15.035H95.2631ZM96.2631 14.435C96.5765 14.435 96.8448 14.4667 97.0681 14.53C97.2915 14.5933 97.4748 14.68 97.6181 14.79C97.7615 14.8967 97.8665 15.0233 97.9331 15.17C97.9998 15.3167 98.0331 15.4733 98.0331 15.64C98.0331 15.75 98.0181 15.865 97.9881 15.985C97.9581 16.105 97.9048 16.22 97.8281 16.33C97.7548 16.44 97.6531 16.54 97.5231 16.63C97.3965 16.7167 97.2365 16.785 97.0431 16.835C97.4298 16.9017 97.7281 17.0367 97.9381 17.24C98.1481 17.44 98.2531 17.705 98.2531 18.035C98.2531 18.2817 98.2031 18.4967 98.1031 18.68C98.0065 18.86 97.8715 19.0117 97.6981 19.135C97.5281 19.2583 97.3281 19.35 97.0981 19.41C96.8681 19.47 96.6215 19.5 96.3581 19.5H94.4081V14.435H96.2631Z" fill="white"/>
<path d="M64.304 26.844V38.5H61.584V31.972C61.584 31.668 61.592 31.348 61.608 31.012C61.6293 30.6707 61.6667 30.308 61.72 29.924C61.5973 30.2653 61.464 30.5827 61.32 30.876C61.176 31.164 61.0347 31.4173 60.896 31.636L57.352 37.692C57.2933 37.788 57.2213 37.884 57.136 37.98C57.056 38.076 56.9653 38.164 56.864 38.244C56.7627 38.3187 56.6533 38.38 56.536 38.428C56.4187 38.476 56.296 38.5 56.168 38.5H54.128V26.844H56.848V33.364C56.848 33.668 56.84 33.9907 56.824 34.332C56.808 34.668 56.7707 35.028 56.712 35.412C56.8347 35.076 56.968 34.764 57.112 34.476C57.256 34.1827 57.3973 33.9267 57.536 33.708L61.08 27.652C61.1387 27.556 61.208 27.46 61.288 27.364C61.3733 27.268 61.4667 27.1827 61.568 27.108C61.6693 27.028 61.7787 26.964 61.896 26.916C62.0133 26.868 62.136 26.844 62.264 26.844H64.304ZM72.1525 31.98H68.7925V38.5H66.3125V30.204H72.1525V31.98ZM75.7962 36.244C75.9829 36.4467 76.1856 36.5907 76.4042 36.676C76.6229 36.7613 76.8522 36.804 77.0922 36.804C77.3216 36.804 77.5322 36.7587 77.7242 36.668C77.9162 36.5773 78.0816 36.4333 78.2203 36.236C78.3643 36.0333 78.4763 35.772 78.5563 35.452C78.6363 35.132 78.6762 34.7427 78.6762 34.284C78.6762 33.8467 78.6442 33.4787 78.5802 33.18C78.5162 32.8813 78.4256 32.6413 78.3082 32.46C78.1962 32.2733 78.0602 32.14 77.9002 32.06C77.7402 31.98 77.5616 31.94 77.3642 31.94C77.0016 31.94 76.7029 32.0067 76.4682 32.14C76.2336 32.2733 76.0096 32.468 75.7962 32.724V36.244ZM75.6442 31.228C75.9696 30.8813 76.3376 30.5987 76.7483 30.38C77.1643 30.156 77.6576 30.044 78.2283 30.044C78.6602 30.044 79.0602 30.14 79.4282 30.332C79.7962 30.524 80.1136 30.8013 80.3802 31.164C80.6469 31.5267 80.8549 31.972 81.0043 32.5C81.1589 33.0227 81.2362 33.6173 81.2362 34.284C81.2362 34.908 81.1482 35.484 80.9722 36.012C80.8016 36.54 80.5589 36.9987 80.2443 37.388C79.9349 37.7773 79.5616 38.0813 79.1242 38.3C78.6923 38.5187 78.2123 38.628 77.6842 38.628C77.2523 38.628 76.8896 38.5667 76.5963 38.444C76.3029 38.3213 76.0362 38.156 75.7962 37.948V41.132H73.3162V30.204H74.8522C75.1616 30.204 75.3642 30.3427 75.4602 30.62L75.6442 31.228ZM86.9437 35.124C86.4477 35.1453 86.0397 35.188 85.7197 35.252C85.3997 35.316 85.1464 35.396 84.9597 35.492C84.7731 35.588 84.6424 35.6973 84.5677 35.82C84.4984 35.9427 84.4637 36.076 84.4637 36.22C84.4637 36.5027 84.5411 36.7027 84.6957 36.82C84.8504 36.932 85.0771 36.988 85.3757 36.988C85.6957 36.988 85.9757 36.932 86.2157 36.82C86.4557 36.708 86.6984 36.5267 86.9437 36.276V35.124ZM82.4797 31.356C82.9811 30.9133 83.5357 30.5853 84.1437 30.372C84.7571 30.1533 85.4131 30.044 86.1117 30.044C86.6131 30.044 87.0637 30.1267 87.4637 30.292C87.8691 30.452 88.2104 30.6787 88.4878 30.972C88.7704 31.26 88.9864 31.604 89.1357 32.004C89.2851 32.404 89.3597 32.8413 89.3597 33.316V38.5H88.2237C87.9891 38.5 87.8104 38.468 87.6877 38.404C87.5704 38.34 87.4717 38.2067 87.3917 38.004L87.2157 37.548C87.0077 37.724 86.8077 37.8787 86.6157 38.012C86.4237 38.1453 86.2237 38.26 86.0157 38.356C85.8131 38.4467 85.5944 38.5133 85.3597 38.556C85.1304 38.604 84.8744 38.628 84.5917 38.628C84.2131 38.628 83.8691 38.58 83.5597 38.484C83.2504 38.3827 82.9864 38.236 82.7677 38.044C82.5544 37.852 82.3891 37.6147 82.2717 37.332C82.1544 37.044 82.0957 36.7133 82.0957 36.34C82.0957 36.0413 82.1704 35.74 82.3197 35.436C82.4691 35.1267 82.7277 34.8467 83.0957 34.596C83.4637 34.34 83.9597 34.1267 84.5837 33.956C85.2077 33.7853 85.9944 33.6893 86.9437 33.668V33.316C86.9437 32.8307 86.8424 32.4813 86.6398 32.268C86.4424 32.0493 86.1597 31.94 85.7917 31.94C85.4984 31.94 85.2584 31.972 85.0717 32.036C84.8851 32.1 84.7171 32.172 84.5677 32.252C84.4237 32.332 84.2824 32.404 84.1437 32.468C84.0051 32.532 83.8397 32.564 83.6477 32.564C83.4771 32.564 83.3331 32.5213 83.2157 32.436C83.0984 32.3507 83.0024 32.2493 82.9277 32.132L82.4797 31.356ZM99.041 38.5H96.657C96.481 38.5 96.337 38.4573 96.225 38.372C96.1183 38.2867 96.033 38.1853 95.969 38.068L94.489 35.524C94.4623 35.6147 94.4303 35.7 94.393 35.78C94.3557 35.86 94.3157 35.9347 94.273 36.004L93.057 38.068C92.9823 38.1747 92.8943 38.2733 92.793 38.364C92.6917 38.4547 92.561 38.5 92.401 38.5H90.193L92.977 34.212L90.305 30.204H92.689C92.865 30.204 92.993 30.228 93.073 30.276C93.1583 30.3187 93.233 30.3933 93.297 30.5L94.777 32.956C94.809 32.86 94.849 32.7667 94.897 32.676C94.945 32.58 94.9983 32.484 95.057 32.388L96.113 30.54C96.1877 30.4227 96.265 30.3373 96.345 30.284C96.4303 30.2307 96.5343 30.204 96.657 30.204H98.929L96.257 34.1L99.041 38.5ZM115.559 32.668C115.559 33.5107 115.413 34.2947 115.119 35.02C114.831 35.7453 114.423 36.3773 113.895 36.916C113.367 37.4493 112.73 37.868 111.983 38.172C111.242 38.476 110.418 38.628 109.511 38.628C108.605 38.628 107.778 38.476 107.031 38.172C106.285 37.868 105.645 37.4493 105.111 36.916C104.583 36.3773 104.173 35.7453 103.879 35.02C103.591 34.2947 103.447 33.5107 103.447 32.668C103.447 31.8253 103.591 31.0413 103.879 30.316C104.173 29.5907 104.583 28.9613 105.111 28.428C105.645 27.8947 106.285 27.476 107.031 27.172C107.778 26.868 108.605 26.716 109.511 26.716C110.418 26.716 111.242 26.8707 111.983 27.18C112.73 27.484 113.367 27.9027 113.895 28.436C114.423 28.9693 114.831 29.5987 115.119 30.324C115.413 31.0493 115.559 31.8307 115.559 32.668ZM112.791 32.668C112.791 32.092 112.717 31.5747 112.567 31.116C112.418 30.652 112.202 30.26 111.919 29.94C111.642 29.62 111.301 29.3747 110.895 29.204C110.49 29.0333 110.029 28.948 109.511 28.948C108.989 28.948 108.522 29.0333 108.111 29.204C107.706 29.3747 107.362 29.62 107.079 29.94C106.802 30.26 106.589 30.652 106.439 31.116C106.29 31.5747 106.215 32.092 106.215 32.668C106.215 33.2493 106.29 33.772 106.439 34.236C106.589 34.6947 106.802 35.084 107.079 35.404C107.362 35.724 107.706 35.9693 108.111 36.14C108.522 36.3053 108.989 36.388 109.511 36.388C110.029 36.388 110.49 36.3053 110.895 36.14C111.301 35.9693 111.642 35.724 111.919 35.404C112.202 35.084 112.418 34.6947 112.567 34.236C112.717 33.772 112.791 33.2493 112.791 32.668ZM120.014 31.564H120.446C120.846 31.564 121.134 31.4387 121.31 31.188L123.934 27.38C124.089 27.1773 124.254 27.0387 124.43 26.964C124.612 26.884 124.836 26.844 125.102 26.844H127.454L123.998 31.556C123.753 31.8813 123.489 32.116 123.206 32.26C123.409 32.3347 123.593 32.4387 123.758 32.572C123.924 32.7053 124.078 32.8787 124.222 33.092L127.742 38.5H125.326C125.172 38.5 125.038 38.4893 124.926 38.468C124.82 38.4467 124.726 38.4147 124.646 38.372C124.566 38.3293 124.497 38.2787 124.438 38.22C124.38 38.156 124.324 38.084 124.27 38.004L121.63 33.948C121.534 33.7987 121.412 33.6947 121.262 33.636C121.118 33.572 120.921 33.54 120.67 33.54H120.014V38.5H117.31V26.844H120.014V31.564Z" fill="white"/>
</g>
<defs>
<clipPath id="clip0_1415_2652">
<rect width="140" height="52" rx="12" fill="white"/>
</clipPath>
<clipPath id="clip1_1415_2652">
<rect width="32" height="32" fill="white" transform="translate(12 10)"/>
</clipPath>
</defs>
</svg>
