<svg width="118" height="52" viewBox="0 0 118 52" fill="none" xmlns="http://www.w3.org/2000/svg">
<g clip-path="url(#clip0_1415_2649)">
<rect width="118" height="52" rx="12" fill="black"/>
<rect x="0.5" y="0.5" width="117" height="51" rx="11.5" stroke="white" stroke-opacity="0.4"/>
<path d="M12.8884 30.5302C14.835 37.0207 20.8555 41.7538 27.9796 41.7538C36.6802 41.7538 43.7335 34.7005 43.7335 25.9999C43.7335 17.2994 36.6802 10.2461 27.9796 10.2461C19.6311 10.2461 12.7993 16.7411 12.2598 24.9533C13.2808 26.665 13.6771 27.724 12.8875 30.5302H12.8884Z" fill="white"/>
<path d="M27.1679 22.0539L27.1694 22.1317L23.3146 27.7317C22.6903 27.7031 22.0641 27.8129 21.4694 28.0576C21.2105 28.1628 20.9634 28.2948 20.7319 28.4514L12.2667 24.9625C12.2667 24.9625 12.0708 28.1851 12.887 30.5866L18.8715 33.056C19.1669 34.399 20.0924 35.5766 21.4522 36.1428C22.5219 36.5873 23.7244 36.589 24.7954 36.1476C25.8665 35.7062 26.7185 34.8577 27.1644 33.7885C27.4023 33.219 27.5171 32.6057 27.5012 31.9887L33.0116 28.0477L33.147 28.0502C36.4479 28.0502 39.131 25.3593 39.131 22.0539C39.131 18.7485 36.4528 16.0674 33.147 16.0605C29.8475 16.0605 27.163 18.7485 27.163 22.0539H27.1679ZM26.2423 33.4016C25.5265 35.1247 23.5514 35.9355 21.8347 35.2202C21.0729 34.9 20.4554 34.3109 20.0998 33.565L22.0479 34.3724C22.3488 34.4977 22.6715 34.5624 22.9975 34.563C23.3234 34.5635 23.6463 34.4998 23.9476 34.3754C24.249 34.2511 24.5228 34.0687 24.7536 33.8385C24.9844 33.6083 25.1676 33.3349 25.2927 33.0338C25.546 32.4256 25.5475 31.7417 25.2968 31.1324C25.0462 30.5231 24.564 30.0381 23.9561 29.7841L21.9376 28.9497C22.7145 28.6543 23.5977 28.6444 24.4238 28.9876C25.2607 29.3337 25.9007 29.9855 26.2433 30.8189C26.586 31.6524 26.584 32.5716 26.2384 33.4016M33.1524 26.049C32.0946 26.0461 31.0811 25.6242 30.3339 24.8755C29.5867 24.1269 29.1666 23.1126 29.1657 22.0549C29.1668 20.9973 29.587 19.9833 30.3342 19.2349C31.0815 18.4865 32.0948 18.0646 33.1524 18.0618C34.2101 18.0644 35.2237 18.4861 35.9711 19.2345C36.7186 19.983 37.1389 20.9971 37.1401 22.0549C37.1392 23.1128 36.7189 24.1272 35.9715 24.8759C35.224 25.6245 34.2103 26.0464 33.1524 26.049ZM30.165 22.0485C30.1644 21.2538 30.4793 20.4913 31.0406 19.9286C31.6018 19.366 32.3635 19.0492 33.1583 19.0479C34.81 19.0479 36.1535 20.3919 36.1535 22.0485C36.1539 22.8434 35.8386 23.6059 35.2769 24.1684C34.7152 24.7309 33.9532 25.0473 33.1583 25.0481C32.3636 25.0469 31.602 24.7303 31.0406 24.1679C30.4793 23.6054 30.1642 22.8431 30.1646 22.0485H30.165Z" fill="black"/>
<path d="M58.475 18.74V13.1H56.105C56.065 13.9167 56.0083 14.6333 55.935 15.25C55.8617 15.8667 55.775 16.4017 55.675 16.855C55.575 17.3083 55.4633 17.6883 55.34 17.995C55.2167 18.2983 55.0833 18.5467 54.94 18.74H58.475ZM60.62 18.74V20.955C60.62 21.0417 60.5917 21.1117 60.535 21.165C60.4783 21.2183 60.4033 21.245 60.31 21.245H59.735V19.5H53.96V20.955C53.96 21.0417 53.93 21.1117 53.87 21.165C53.8133 21.2183 53.74 21.245 53.65 21.245H53.07V18.74H53.8C53.9033 18.69 54.0067 18.61 54.11 18.5C54.2133 18.3867 54.3117 18.2267 54.405 18.02C54.5017 17.81 54.5917 17.5467 54.675 17.23C54.7583 16.9133 54.8333 16.5267 54.9 16.07C54.97 15.61 55.03 15.0733 55.08 14.46C55.13 13.8467 55.1683 13.1383 55.195 12.335H59.45V18.74H60.62ZM63.3986 14.355C63.7686 14.355 64.1019 14.4167 64.3986 14.54C64.6953 14.6633 64.9486 14.8383 65.1586 15.065C65.3686 15.2917 65.5286 15.5667 65.6386 15.89C65.7519 16.21 65.8086 16.5683 65.8086 16.965C65.8086 17.365 65.7519 17.725 65.6386 18.045C65.5286 18.365 65.3686 18.6383 65.1586 18.865C64.9486 19.0917 64.6953 19.2667 64.3986 19.39C64.1019 19.51 63.7686 19.57 63.3986 19.57C63.0253 19.57 62.6886 19.51 62.3886 19.39C62.0919 19.2667 61.8386 19.0917 61.6286 18.865C61.4186 18.6383 61.2569 18.365 61.1436 18.045C61.0336 17.725 60.9786 17.365 60.9786 16.965C60.9786 16.5683 61.0336 16.21 61.1436 15.89C61.2569 15.5667 61.4186 15.2917 61.6286 15.065C61.8386 14.8383 62.0919 14.6633 62.3886 14.54C62.6886 14.4167 63.0253 14.355 63.3986 14.355ZM63.3986 18.875C63.8986 18.875 64.2719 18.7083 64.5186 18.375C64.7653 18.0383 64.8886 17.57 64.8886 16.97C64.8886 16.3667 64.7653 15.8967 64.5186 15.56C64.2719 15.2233 63.8986 15.055 63.3986 15.055C63.1453 15.055 62.9236 15.0983 62.7336 15.185C62.5469 15.2717 62.3903 15.3967 62.2636 15.56C62.1403 15.7233 62.0469 15.925 61.9836 16.165C61.9236 16.4017 61.8936 16.67 61.8936 16.97C61.8936 17.57 62.0169 18.0383 62.2636 18.375C62.5136 18.7083 62.8919 18.875 63.3986 18.875ZM70.4624 15.335C70.4358 15.3717 70.4091 15.4 70.3824 15.42C70.3558 15.44 70.3191 15.45 70.2724 15.45C70.2224 15.45 70.1674 15.43 70.1074 15.39C70.0474 15.3467 69.9724 15.3 69.8824 15.25C69.7958 15.2 69.6874 15.155 69.5574 15.115C69.4308 15.0717 69.2741 15.05 69.0874 15.05C68.8374 15.05 68.6174 15.095 68.4274 15.185C68.2374 15.2717 68.0774 15.3983 67.9474 15.565C67.8208 15.7317 67.7241 15.9333 67.6574 16.17C67.5941 16.4067 67.5624 16.6717 67.5624 16.965C67.5624 17.2717 67.5974 17.545 67.6674 17.785C67.7374 18.0217 67.8358 18.2217 67.9624 18.385C68.0924 18.545 68.2474 18.6683 68.4274 18.755C68.6108 18.8383 68.8158 18.88 69.0424 18.88C69.2591 18.88 69.4374 18.855 69.5774 18.805C69.7174 18.7517 69.8324 18.6933 69.9224 18.63C70.0158 18.5667 70.0924 18.51 70.1524 18.46C70.2158 18.4067 70.2774 18.38 70.3374 18.38C70.4108 18.38 70.4674 18.4083 70.5074 18.465L70.7574 18.79C70.6474 18.9267 70.5224 19.0433 70.3824 19.14C70.2424 19.2367 70.0908 19.3183 69.9274 19.385C69.7674 19.4483 69.5991 19.495 69.4224 19.525C69.2458 19.555 69.0658 19.57 68.8824 19.57C68.5658 19.57 68.2708 19.5117 67.9974 19.395C67.7274 19.2783 67.4924 19.11 67.2924 18.89C67.0924 18.6667 66.9358 18.3933 66.8224 18.07C66.7091 17.7467 66.6524 17.3783 66.6524 16.965C66.6524 16.5883 66.7041 16.24 66.8074 15.92C66.9141 15.6 67.0674 15.325 67.2674 15.095C67.4708 14.8617 67.7191 14.68 68.0124 14.55C68.3091 14.42 68.6491 14.355 69.0324 14.355C69.3891 14.355 69.7024 14.4133 69.9724 14.53C70.2458 14.6433 70.4874 14.805 70.6974 15.015L70.4624 15.335ZM75.9228 15.115H73.9778V19.5H73.0878V15.115H71.1428V14.435H75.9228V15.115ZM81.1414 14.435L78.3164 20.995C78.2864 21.0617 78.2481 21.115 78.2014 21.155C78.1581 21.195 78.0897 21.215 77.9964 21.215H77.3364L78.2614 19.205L76.1714 14.435H76.9414C77.0181 14.435 77.0781 14.455 77.1214 14.495C77.1681 14.5317 77.1997 14.5733 77.2164 14.62L78.5714 17.81C78.6247 17.95 78.6697 18.0967 78.7064 18.25C78.7531 18.0933 78.8031 17.945 78.8564 17.805L80.1714 14.62C80.1914 14.5667 80.2247 14.5233 80.2714 14.49C80.3214 14.4533 80.3764 14.435 80.4364 14.435H81.1414ZM86.1477 19.5H85.2527V15.115H82.8227V19.5H81.9277V14.435H86.1477V19.5ZM91.7824 14.435V19.5H90.8874V17.13H88.4574V19.5H87.5624V14.435H88.4574V16.455H90.8874V14.435H91.7824ZM95.3322 14.355C95.7022 14.355 96.0355 14.4167 96.3322 14.54C96.6289 14.6633 96.8822 14.8383 97.0922 15.065C97.3022 15.2917 97.4622 15.5667 97.5722 15.89C97.6855 16.21 97.7422 16.5683 97.7422 16.965C97.7422 17.365 97.6855 17.725 97.5722 18.045C97.4622 18.365 97.3022 18.6383 97.0922 18.865C96.8822 19.0917 96.6289 19.2667 96.3322 19.39C96.0355 19.51 95.7022 19.57 95.3322 19.57C94.9589 19.57 94.6222 19.51 94.3222 19.39C94.0255 19.2667 93.7722 19.0917 93.5622 18.865C93.3522 18.6383 93.1905 18.365 93.0772 18.045C92.9672 17.725 92.9122 17.365 92.9122 16.965C92.9122 16.5683 92.9672 16.21 93.0772 15.89C93.1905 15.5667 93.3522 15.2917 93.5622 15.065C93.7722 14.8383 94.0255 14.6633 94.3222 14.54C94.6222 14.4167 94.9589 14.355 95.3322 14.355ZM95.3322 18.875C95.8322 18.875 96.2055 18.7083 96.4522 18.375C96.6989 18.0383 96.8222 17.57 96.8222 16.97C96.8222 16.3667 96.6989 15.8967 96.4522 15.56C96.2055 15.2233 95.8322 15.055 95.3322 15.055C95.0789 15.055 94.8572 15.0983 94.6672 15.185C94.4805 15.2717 94.3239 15.3967 94.1972 15.56C94.0739 15.7233 93.9805 15.925 93.9172 16.165C93.8572 16.4017 93.8272 16.67 93.8272 16.97C93.8272 17.57 93.9505 18.0383 94.1972 18.375C94.4472 18.7083 94.8255 18.875 95.3322 18.875ZM103.375 18.875C103.708 18.875 103.971 18.7983 104.165 18.645C104.358 18.4883 104.455 18.275 104.455 18.005C104.455 17.885 104.436 17.7767 104.4 17.68C104.363 17.58 104.303 17.4933 104.22 17.42C104.136 17.3467 104.025 17.29 103.885 17.25C103.748 17.21 103.58 17.19 103.38 17.19H102.285V18.875H103.375ZM102.285 15.035V16.625H103.26C103.406 16.625 103.541 16.605 103.665 16.565C103.791 16.5217 103.9 16.4633 103.99 16.39C104.08 16.3133 104.15 16.2233 104.2 16.12C104.25 16.0133 104.275 15.8967 104.275 15.77C104.275 15.6767 104.258 15.5867 104.225 15.5C104.191 15.41 104.135 15.3317 104.055 15.265C103.975 15.195 103.87 15.14 103.74 15.1C103.61 15.0567 103.45 15.035 103.26 15.035H102.285ZM103.285 14.435C103.598 14.435 103.866 14.4667 104.09 14.53C104.313 14.5933 104.496 14.68 104.64 14.79C104.783 14.8967 104.888 15.0233 104.955 15.17C105.021 15.3167 105.055 15.4733 105.055 15.64C105.055 15.75 105.04 15.865 105.01 15.985C104.98 16.105 104.926 16.22 104.85 16.33C104.776 16.44 104.675 16.54 104.545 16.63C104.418 16.7167 104.258 16.785 104.065 16.835C104.451 16.9017 104.75 17.0367 104.96 17.24C105.17 17.44 105.275 17.705 105.275 18.035C105.275 18.2817 105.225 18.4967 105.125 18.68C105.028 18.86 104.893 19.0117 104.72 19.135C104.55 19.2583 104.35 19.35 104.12 19.41C103.89 19.47 103.643 19.5 103.38 19.5H101.43V14.435H103.285Z" fill="white"/>
<path d="M60.568 29.212C60.488 29.34 60.4027 29.436 60.312 29.5C60.2267 29.564 60.1147 29.596 59.976 29.596C59.8533 29.596 59.72 29.5587 59.576 29.484C59.4373 29.404 59.2773 29.316 59.096 29.22C58.92 29.124 58.7173 29.0387 58.488 28.964C58.2587 28.884 57.9973 28.844 57.704 28.844C57.1973 28.844 56.8187 28.9533 56.568 29.172C56.3227 29.3853 56.2 29.676 56.2 30.044C56.2 30.2787 56.2747 30.4733 56.424 30.628C56.5733 30.7827 56.768 30.916 57.008 31.028C57.2533 31.14 57.5307 31.244 57.84 31.34C58.1547 31.4307 58.4747 31.5347 58.8 31.652C59.1253 31.764 59.4427 31.8973 59.752 32.052C60.0667 32.2067 60.344 32.404 60.584 32.644C60.8293 32.884 61.0267 33.1773 61.176 33.524C61.3253 33.8653 61.4 34.2787 61.4 34.764C61.4 35.3027 61.3067 35.8067 61.12 36.276C60.9333 36.7453 60.6613 37.156 60.304 37.508C59.952 37.8547 59.5147 38.1293 58.992 38.332C58.4747 38.5293 57.8853 38.628 57.224 38.628C56.8613 38.628 56.4907 38.5907 56.112 38.516C55.7387 38.4413 55.376 38.3373 55.024 38.204C54.672 38.0653 54.3413 37.9027 54.032 37.716C53.7227 37.5293 53.4533 37.3213 53.224 37.092L54.024 35.828C54.088 35.7373 54.1707 35.6627 54.272 35.604C54.3787 35.54 54.4933 35.508 54.616 35.508C54.776 35.508 54.936 35.5587 55.096 35.66C55.2613 35.7613 55.4453 35.8733 55.648 35.996C55.856 36.1187 56.0933 36.2307 56.36 36.332C56.6267 36.4333 56.9413 36.484 57.304 36.484C57.7947 36.484 58.176 36.3773 58.448 36.164C58.72 35.9453 58.856 35.6013 58.856 35.132C58.856 34.86 58.7813 34.6387 58.632 34.468C58.4827 34.2973 58.2853 34.156 58.04 34.044C57.8 33.932 57.5253 33.8333 57.216 33.748C56.9067 33.6627 56.5893 33.5693 56.264 33.468C55.9387 33.3613 55.6213 33.2333 55.312 33.084C55.0027 32.9293 54.7253 32.7293 54.48 32.484C54.24 32.2333 54.0453 31.924 53.896 31.556C53.7467 31.1827 53.672 30.724 53.672 30.18C53.672 29.7427 53.76 29.316 53.936 28.9C54.112 28.484 54.3707 28.1133 54.712 27.788C55.0533 27.4627 55.472 27.204 55.968 27.012C56.464 26.8147 57.032 26.716 57.672 26.716C58.0293 26.716 58.376 26.7453 58.712 26.804C59.0533 26.8573 59.376 26.94 59.68 27.052C59.984 27.1587 60.2667 27.2893 60.528 27.444C60.7947 27.5933 61.032 27.764 61.24 27.956L60.568 29.212ZM65.468 38.628C65.0733 38.628 64.724 38.572 64.42 38.46C64.1213 38.3427 63.868 38.18 63.66 37.972C63.4573 37.7587 63.3027 37.5027 63.196 37.204C63.0893 36.9053 63.036 36.572 63.036 36.204V31.916H62.332C62.204 31.916 62.0947 31.876 62.004 31.796C61.9133 31.7107 61.868 31.588 61.868 31.428V30.46L63.188 30.204L63.676 28.18C63.74 27.924 63.9213 27.796 64.22 27.796H65.516V30.22H67.572V31.916H65.516V36.036C65.516 36.228 65.5613 36.388 65.652 36.516C65.748 36.6387 65.884 36.7 66.06 36.7C66.1507 36.7 66.2253 36.692 66.284 36.676C66.348 36.6547 66.4013 36.6333 66.444 36.612C66.492 36.5853 66.5347 36.564 66.572 36.548C66.6147 36.5267 66.6627 36.516 66.716 36.516C66.7907 36.516 66.8493 36.5347 66.892 36.572C66.94 36.604 66.988 36.6573 67.036 36.732L67.788 37.908C67.468 38.148 67.108 38.3293 66.708 38.452C66.308 38.5693 65.8947 38.628 65.468 38.628ZM73.8825 33.356C73.8825 33.1587 73.8558 32.9667 73.8025 32.78C73.7545 32.5933 73.6718 32.428 73.5545 32.284C73.4425 32.1347 73.2932 32.0147 73.1065 31.924C72.9198 31.8333 72.6932 31.788 72.4265 31.788C71.9572 31.788 71.5892 31.924 71.3225 32.196C71.0558 32.4627 70.8798 32.8493 70.7945 33.356H73.8825ZM70.7625 34.796C70.8425 35.4893 71.0532 35.9933 71.3945 36.308C71.7358 36.6173 72.1758 36.772 72.7145 36.772C73.0025 36.772 73.2505 36.7373 73.4585 36.668C73.6665 36.5987 73.8505 36.5213 74.0105 36.436C74.1758 36.3507 74.3252 36.2733 74.4585 36.204C74.5972 36.1347 74.7412 36.1 74.8905 36.1C75.0878 36.1 75.2372 36.172 75.3385 36.316L76.0585 37.204C75.8025 37.4973 75.5252 37.7373 75.2265 37.924C74.9332 38.1053 74.6292 38.2493 74.3145 38.356C74.0052 38.4573 73.6932 38.5267 73.3785 38.564C73.0692 38.6067 72.7732 38.628 72.4905 38.628C71.9092 38.628 71.3625 38.5347 70.8505 38.348C70.3438 38.156 69.8985 37.8733 69.5145 37.5C69.1358 37.1267 68.8345 36.6627 68.6105 36.108C68.3918 35.5533 68.2825 34.908 68.2825 34.172C68.2825 33.6173 68.3758 33.092 68.5625 32.596C68.7545 32.1 69.0265 31.6653 69.3785 31.292C69.7358 30.9187 70.1652 30.6227 70.6665 30.404C71.1732 30.1853 71.7438 30.076 72.3785 30.076C72.9278 30.076 73.4292 30.1613 73.8825 30.332C74.3412 30.5027 74.7332 30.7507 75.0585 31.076C75.3892 31.4013 75.6452 31.8013 75.8265 32.276C76.0132 32.7453 76.1065 33.2787 76.1065 33.876C76.1065 34.0627 76.0985 34.2147 76.0825 34.332C76.0665 34.4493 76.0372 34.5427 75.9945 34.612C75.9518 34.6813 75.8932 34.7293 75.8185 34.756C75.7492 34.7827 75.6585 34.796 75.5465 34.796H70.7625ZM81.7875 35.124C81.2915 35.1453 80.8835 35.188 80.5635 35.252C80.2435 35.316 79.9902 35.396 79.8035 35.492C79.6168 35.588 79.4862 35.6973 79.4115 35.82C79.3422 35.9427 79.3075 36.076 79.3075 36.22C79.3075 36.5027 79.3848 36.7027 79.5395 36.82C79.6942 36.932 79.9208 36.988 80.2195 36.988C80.5395 36.988 80.8195 36.932 81.0595 36.82C81.2995 36.708 81.5422 36.5267 81.7875 36.276V35.124ZM77.3235 31.356C77.8248 30.9133 78.3795 30.5853 78.9875 30.372C79.6008 30.1533 80.2568 30.044 80.9555 30.044C81.4568 30.044 81.9075 30.1267 82.3075 30.292C82.7128 30.452 83.0542 30.6787 83.3315 30.972C83.6142 31.26 83.8302 31.604 83.9795 32.004C84.1288 32.404 84.2035 32.8413 84.2035 33.316V38.5H83.0675C82.8328 38.5 82.6542 38.468 82.5315 38.404C82.4142 38.34 82.3155 38.2067 82.2355 38.004L82.0595 37.548C81.8515 37.724 81.6515 37.8787 81.4595 38.012C81.2675 38.1453 81.0675 38.26 80.8595 38.356C80.6568 38.4467 80.4382 38.5133 80.2035 38.556C79.9742 38.604 79.7182 38.628 79.4355 38.628C79.0568 38.628 78.7128 38.58 78.4035 38.484C78.0942 38.3827 77.8302 38.236 77.6115 38.044C77.3982 37.852 77.2328 37.6147 77.1155 37.332C76.9982 37.044 76.9395 36.7133 76.9395 36.34C76.9395 36.0413 77.0142 35.74 77.1635 35.436C77.3128 35.1267 77.5715 34.8467 77.9395 34.596C78.3075 34.34 78.8035 34.1267 79.4275 33.956C80.0515 33.7853 80.8382 33.6893 81.7875 33.668V33.316C81.7875 32.8307 81.6862 32.4813 81.4835 32.268C81.2862 32.0493 81.0035 31.94 80.6355 31.94C80.3422 31.94 80.1022 31.972 79.9155 32.036C79.7288 32.1 79.5608 32.172 79.4115 32.252C79.2675 32.332 79.1262 32.404 78.9875 32.468C78.8488 32.532 78.6835 32.564 78.4915 32.564C78.3208 32.564 78.1768 32.5213 78.0595 32.436C77.9422 32.3507 77.8462 32.2493 77.7715 32.132L77.3235 31.356ZM85.9487 38.5V30.204H87.4847C87.7941 30.204 87.9967 30.3427 88.0927 30.62L88.2287 31.068C88.3674 30.924 88.5114 30.7933 88.6607 30.676C88.8101 30.5533 88.9701 30.4493 89.1407 30.364C89.3167 30.2733 89.5034 30.204 89.7007 30.156C89.9034 30.1027 90.1247 30.076 90.3647 30.076C90.8661 30.076 91.2794 30.2067 91.6047 30.468C91.9354 30.724 92.1861 31.068 92.3567 31.5C92.4954 31.244 92.6634 31.0253 92.8607 30.844C93.0634 30.6627 93.2794 30.516 93.5087 30.404C93.7434 30.292 93.9888 30.2093 94.2448 30.156C94.5061 30.1027 94.7648 30.076 95.0208 30.076C95.4954 30.076 95.9167 30.148 96.2847 30.292C96.6528 30.4307 96.9594 30.636 97.2048 30.908C97.4554 31.1747 97.6447 31.5053 97.7727 31.9C97.9008 32.2893 97.9648 32.732 97.9648 33.228V38.5H95.4847V33.228C95.4847 32.3693 95.1167 31.94 94.3807 31.94C94.0447 31.94 93.7647 32.052 93.5407 32.276C93.3221 32.4947 93.2127 32.812 93.2127 33.228V38.5H90.7327V33.228C90.7327 32.7533 90.6394 32.42 90.4527 32.228C90.2661 32.036 89.9914 31.94 89.6287 31.94C89.4047 31.94 89.1914 31.9907 88.9887 32.092C88.7914 32.1933 88.6047 32.3293 88.4287 32.5V38.5H85.9487Z" fill="white"/>
</g>
<defs>
<clipPath id="clip0_1415_2649">
<rect width="118" height="52" rx="12" fill="white"/>
</clipPath>
</defs>
</svg>
