<svg width="153" height="52" viewBox="0 0 153 52" fill="none" xmlns="http://www.w3.org/2000/svg">
<g clip-path="url(#clip0_1415_2647)">
<rect width="153" height="52" rx="12" fill="black"/>
<rect x="0.5" y="0.5" width="152" height="51" rx="11.5" stroke="white" stroke-opacity="0.4"/>
<path fill-rule="evenodd" clip-rule="evenodd" d="M14.5536 10.4846C14.2027 10.8725 14 11.4651 14 12.2408V39.753C14 40.5287 14.2027 41.1213 14.5657 41.4936L14.6595 41.5774L29.6884 26.1629V25.8185L14.6474 10.4009L14.5536 10.4846Z" fill="url(#paint0_linear_1415_2647)"/>
<path fill-rule="evenodd" clip-rule="evenodd" d="M34.689 31.3166L29.6763 26.1753V25.8154L34.689 20.6741L34.7979 20.7424L40.7272 24.1988C42.4243 25.1793 42.4243 26.7989 40.7272 27.7918L34.7979 31.2483L34.689 31.3166Z" fill="url(#paint1_linear_1415_2647)"/>
<path fill-rule="evenodd" clip-rule="evenodd" d="M34.7979 31.2483L29.6763 25.9953L14.5536 41.506C15.1072 42.1142 16.0359 42.1824 17.0735 41.5898L34.7979 31.2483Z" fill="url(#paint2_linear_1415_2647)"/>
<path fill-rule="evenodd" clip-rule="evenodd" d="M34.7979 20.7424L17.0735 10.4164C16.0359 9.80823 15.1042 9.89201 14.5536 10.5002L29.6763 25.9953L34.7979 20.7424Z" fill="url(#paint3_linear_1415_2647)"/>
<path opacity="0.2" fill-rule="evenodd" clip-rule="evenodd" d="M34.8745 31L16.614 41.3917C15.5941 41.9795 14.6841 41.9386 14.0973 41.4043L14 41.5017L14.0973 41.5866C14.6841 42.1178 15.5941 42.1618 16.614 41.574L35 31.1132L34.8745 31Z" fill="black"/>
<path opacity="0.12" fill-rule="evenodd" clip-rule="evenodd" d="M40.8 27.5387L35 30.8937L35.1043 31L40.7855 27.71C41.6 27.2374 42 26.6172 42 26C41.9507 26.567 41.5362 27.1045 40.8 27.5387Z" fill="black"/>
<path opacity="0.25" fill-rule="evenodd" clip-rule="evenodd" d="M17.0741 10.6017L40.7322 24.3835C41.5008 24.8272 41.9334 25.4074 42 26C42 25.3516 41.5825 24.7 40.7322 24.2036L17.0741 10.4218C15.3767 9.42584 14 10.2573 14 12.2461V12.4261C14 10.4342 15.3767 9.6182 17.0741 10.6017Z" fill="white"/>
<path d="M58.475 18.74V13.1H56.105C56.065 13.9167 56.0083 14.6333 55.935 15.25C55.8617 15.8667 55.775 16.4017 55.675 16.855C55.575 17.3083 55.4633 17.6883 55.34 17.995C55.2167 18.2983 55.0833 18.5467 54.94 18.74H58.475ZM60.62 18.74V20.955C60.62 21.0417 60.5917 21.1117 60.535 21.165C60.4783 21.2183 60.4033 21.245 60.31 21.245H59.735V19.5H53.96V20.955C53.96 21.0417 53.93 21.1117 53.87 21.165C53.8133 21.2183 53.74 21.245 53.65 21.245H53.07V18.74H53.8C53.9033 18.69 54.0067 18.61 54.11 18.5C54.2133 18.3867 54.3117 18.2267 54.405 18.02C54.5017 17.81 54.5917 17.5467 54.675 17.23C54.7583 16.9133 54.8333 16.5267 54.9 16.07C54.97 15.61 55.03 15.0733 55.08 14.46C55.13 13.8467 55.1683 13.1383 55.195 12.335H59.45V18.74H60.62ZM63.3986 14.355C63.7686 14.355 64.1019 14.4167 64.3986 14.54C64.6953 14.6633 64.9486 14.8383 65.1586 15.065C65.3686 15.2917 65.5286 15.5667 65.6386 15.89C65.7519 16.21 65.8086 16.5683 65.8086 16.965C65.8086 17.365 65.7519 17.725 65.6386 18.045C65.5286 18.365 65.3686 18.6383 65.1586 18.865C64.9486 19.0917 64.6953 19.2667 64.3986 19.39C64.1019 19.51 63.7686 19.57 63.3986 19.57C63.0253 19.57 62.6886 19.51 62.3886 19.39C62.0919 19.2667 61.8386 19.0917 61.6286 18.865C61.4186 18.6383 61.2569 18.365 61.1436 18.045C61.0336 17.725 60.9786 17.365 60.9786 16.965C60.9786 16.5683 61.0336 16.21 61.1436 15.89C61.2569 15.5667 61.4186 15.2917 61.6286 15.065C61.8386 14.8383 62.0919 14.6633 62.3886 14.54C62.6886 14.4167 63.0253 14.355 63.3986 14.355ZM63.3986 18.875C63.8986 18.875 64.2719 18.7083 64.5186 18.375C64.7653 18.0383 64.8886 17.57 64.8886 16.97C64.8886 16.3667 64.7653 15.8967 64.5186 15.56C64.2719 15.2233 63.8986 15.055 63.3986 15.055C63.1453 15.055 62.9236 15.0983 62.7336 15.185C62.5469 15.2717 62.3903 15.3967 62.2636 15.56C62.1403 15.7233 62.0469 15.925 61.9836 16.165C61.9236 16.4017 61.8936 16.67 61.8936 16.97C61.8936 17.57 62.0169 18.0383 62.2636 18.375C62.5136 18.7083 62.8919 18.875 63.3986 18.875ZM70.4624 15.335C70.4358 15.3717 70.4091 15.4 70.3824 15.42C70.3558 15.44 70.3191 15.45 70.2724 15.45C70.2224 15.45 70.1674 15.43 70.1074 15.39C70.0474 15.3467 69.9724 15.3 69.8824 15.25C69.7958 15.2 69.6874 15.155 69.5574 15.115C69.4308 15.0717 69.2741 15.05 69.0874 15.05C68.8374 15.05 68.6174 15.095 68.4274 15.185C68.2374 15.2717 68.0774 15.3983 67.9474 15.565C67.8208 15.7317 67.7241 15.9333 67.6574 16.17C67.5941 16.4067 67.5624 16.6717 67.5624 16.965C67.5624 17.2717 67.5974 17.545 67.6674 17.785C67.7374 18.0217 67.8358 18.2217 67.9624 18.385C68.0924 18.545 68.2474 18.6683 68.4274 18.755C68.6108 18.8383 68.8158 18.88 69.0424 18.88C69.2591 18.88 69.4374 18.855 69.5774 18.805C69.7174 18.7517 69.8324 18.6933 69.9224 18.63C70.0158 18.5667 70.0924 18.51 70.1524 18.46C70.2158 18.4067 70.2774 18.38 70.3374 18.38C70.4108 18.38 70.4674 18.4083 70.5074 18.465L70.7574 18.79C70.6474 18.9267 70.5224 19.0433 70.3824 19.14C70.2424 19.2367 70.0908 19.3183 69.9274 19.385C69.7674 19.4483 69.5991 19.495 69.4224 19.525C69.2458 19.555 69.0658 19.57 68.8824 19.57C68.5658 19.57 68.2708 19.5117 67.9974 19.395C67.7274 19.2783 67.4924 19.11 67.2924 18.89C67.0924 18.6667 66.9358 18.3933 66.8224 18.07C66.7091 17.7467 66.6524 17.3783 66.6524 16.965C66.6524 16.5883 66.7041 16.24 66.8074 15.92C66.9141 15.6 67.0674 15.325 67.2674 15.095C67.4708 14.8617 67.7191 14.68 68.0124 14.55C68.3091 14.42 68.6491 14.355 69.0324 14.355C69.3891 14.355 69.7024 14.4133 69.9724 14.53C70.2458 14.6433 70.4874 14.805 70.6974 15.015L70.4624 15.335ZM75.9228 15.115H73.9778V19.5H73.0878V15.115H71.1428V14.435H75.9228V15.115ZM81.1414 14.435L78.3164 20.995C78.2864 21.0617 78.2481 21.115 78.2014 21.155C78.1581 21.195 78.0897 21.215 77.9964 21.215H77.3364L78.2614 19.205L76.1714 14.435H76.9414C77.0181 14.435 77.0781 14.455 77.1214 14.495C77.1681 14.5317 77.1997 14.5733 77.2164 14.62L78.5714 17.81C78.6247 17.95 78.6697 18.0967 78.7064 18.25C78.7531 18.0933 78.8031 17.945 78.8564 17.805L80.1714 14.62C80.1914 14.5667 80.2247 14.5233 80.2714 14.49C80.3214 14.4533 80.3764 14.435 80.4364 14.435H81.1414ZM86.1477 19.5H85.2527V15.115H82.8227V19.5H81.9277V14.435H86.1477V19.5ZM91.7824 14.435V19.5H90.8874V17.13H88.4574V19.5H87.5624V14.435H88.4574V16.455H90.8874V14.435H91.7824ZM95.3322 14.355C95.7022 14.355 96.0355 14.4167 96.3322 14.54C96.6289 14.6633 96.8822 14.8383 97.0922 15.065C97.3022 15.2917 97.4622 15.5667 97.5722 15.89C97.6855 16.21 97.7422 16.5683 97.7422 16.965C97.7422 17.365 97.6855 17.725 97.5722 18.045C97.4622 18.365 97.3022 18.6383 97.0922 18.865C96.8822 19.0917 96.6289 19.2667 96.3322 19.39C96.0355 19.51 95.7022 19.57 95.3322 19.57C94.9589 19.57 94.6222 19.51 94.3222 19.39C94.0255 19.2667 93.7722 19.0917 93.5622 18.865C93.3522 18.6383 93.1905 18.365 93.0772 18.045C92.9672 17.725 92.9122 17.365 92.9122 16.965C92.9122 16.5683 92.9672 16.21 93.0772 15.89C93.1905 15.5667 93.3522 15.2917 93.5622 15.065C93.7722 14.8383 94.0255 14.6633 94.3222 14.54C94.6222 14.4167 94.9589 14.355 95.3322 14.355ZM95.3322 18.875C95.8322 18.875 96.2055 18.7083 96.4522 18.375C96.6989 18.0383 96.8222 17.57 96.8222 16.97C96.8222 16.3667 96.6989 15.8967 96.4522 15.56C96.2055 15.2233 95.8322 15.055 95.3322 15.055C95.0789 15.055 94.8572 15.0983 94.6672 15.185C94.4805 15.2717 94.3239 15.3967 94.1972 15.56C94.0739 15.7233 93.9805 15.925 93.9172 16.165C93.8572 16.4017 93.8272 16.67 93.8272 16.97C93.8272 17.57 93.9505 18.0383 94.1972 18.375C94.4472 18.7083 94.8255 18.875 95.3322 18.875ZM103.375 18.875C103.708 18.875 103.971 18.7983 104.165 18.645C104.358 18.4883 104.455 18.275 104.455 18.005C104.455 17.885 104.436 17.7767 104.4 17.68C104.363 17.58 104.303 17.4933 104.22 17.42C104.136 17.3467 104.025 17.29 103.885 17.25C103.748 17.21 103.58 17.19 103.38 17.19H102.285V18.875H103.375ZM102.285 15.035V16.625H103.26C103.406 16.625 103.541 16.605 103.665 16.565C103.791 16.5217 103.9 16.4633 103.99 16.39C104.08 16.3133 104.15 16.2233 104.2 16.12C104.25 16.0133 104.275 15.8967 104.275 15.77C104.275 15.6767 104.258 15.5867 104.225 15.5C104.191 15.41 104.135 15.3317 104.055 15.265C103.975 15.195 103.87 15.14 103.74 15.1C103.61 15.0567 103.45 15.035 103.26 15.035H102.285ZM103.285 14.435C103.598 14.435 103.866 14.4667 104.09 14.53C104.313 14.5933 104.496 14.68 104.64 14.79C104.783 14.8967 104.888 15.0233 104.955 15.17C105.021 15.3167 105.055 15.4733 105.055 15.64C105.055 15.75 105.04 15.865 105.01 15.985C104.98 16.105 104.926 16.22 104.85 16.33C104.776 16.44 104.675 16.54 104.545 16.63C104.418 16.7167 104.258 16.785 104.065 16.835C104.451 16.9017 104.75 17.0367 104.96 17.24C105.17 17.44 105.275 17.705 105.275 18.035C105.275 18.2817 105.225 18.4967 105.125 18.68C105.028 18.86 104.893 19.0117 104.72 19.135C104.55 19.2583 104.35 19.35 104.12 19.41C103.89 19.47 103.643 19.5 103.38 19.5H101.43V14.435H103.285Z" fill="white"/>
<path d="M59.728 32.46H63.872V37.38C63.2747 37.8173 62.6373 38.1347 61.96 38.332C61.288 38.5293 60.584 38.628 59.848 38.628C58.888 38.628 58.0133 38.4787 57.224 38.18C56.44 37.876 55.768 37.46 55.208 36.932C54.648 36.3987 54.216 35.7693 53.912 35.044C53.608 34.3133 53.456 33.5213 53.456 32.668C53.456 31.7987 53.6 31.0013 53.888 30.276C54.176 29.5453 54.5867 28.916 55.12 28.388C55.6587 27.86 56.3067 27.4493 57.064 27.156C57.8267 26.8627 58.6773 26.716 59.616 26.716C60.1013 26.716 60.5573 26.756 60.984 26.836C61.4107 26.916 61.8027 27.0253 62.16 27.164C62.5227 27.3027 62.8533 27.468 63.152 27.66C63.4507 27.852 63.7173 28.06 63.952 28.284L63.168 29.476C63.0453 29.6627 62.8853 29.7773 62.688 29.82C62.496 29.8627 62.288 29.8147 62.064 29.676C61.8507 29.548 61.648 29.4387 61.456 29.348C61.2693 29.252 61.0773 29.1747 60.88 29.116C60.6827 29.0573 60.4747 29.0147 60.256 28.988C60.0373 28.9613 59.792 28.948 59.52 28.948C59.0133 28.948 58.5573 29.0387 58.152 29.22C57.7467 29.396 57.4 29.6467 57.112 29.972C56.8293 30.2973 56.6107 30.6893 56.456 31.148C56.3013 31.6013 56.224 32.108 56.224 32.668C56.224 33.2867 56.3093 33.836 56.48 34.316C56.6507 34.796 56.8907 35.2013 57.2 35.532C57.5147 35.8627 57.888 36.116 58.32 36.292C58.7573 36.4627 59.24 36.548 59.768 36.548C60.0933 36.548 60.3867 36.516 60.648 36.452C60.9147 36.388 61.1733 36.3027 61.424 36.196V34.428H60.272C60.1013 34.428 59.968 34.3827 59.872 34.292C59.776 34.2013 59.728 34.0867 59.728 33.948V32.46ZM69.2927 30.076C69.9221 30.076 70.4954 30.1747 71.0128 30.372C71.5301 30.5693 71.9728 30.852 72.3408 31.22C72.7141 31.588 73.0021 32.036 73.2048 32.564C73.4128 33.0867 73.5168 33.676 73.5168 34.332C73.5168 34.9933 73.4128 35.5907 73.2048 36.124C73.0021 36.652 72.7141 37.1027 72.3408 37.476C71.9728 37.844 71.5301 38.1293 71.0128 38.332C70.4954 38.5293 69.9221 38.628 69.2927 38.628C68.6581 38.628 68.0794 38.5293 67.5568 38.332C67.0394 38.1293 66.5914 37.844 66.2127 37.476C65.8394 37.1027 65.5487 36.652 65.3407 36.124C65.1381 35.5907 65.0367 34.9933 65.0367 34.332C65.0367 33.676 65.1381 33.0867 65.3407 32.564C65.5487 32.036 65.8394 31.588 66.2127 31.22C66.5914 30.852 67.0394 30.5693 67.5568 30.372C68.0794 30.1747 68.6581 30.076 69.2927 30.076ZM69.2927 36.788C69.8634 36.788 70.2821 36.588 70.5487 36.188C70.8207 35.7827 70.9567 35.1693 70.9567 34.348C70.9567 33.5267 70.8207 32.916 70.5487 32.516C70.2821 32.116 69.8634 31.916 69.2927 31.916C68.7061 31.916 68.2768 32.116 68.0048 32.516C67.7328 32.916 67.5968 33.5267 67.5968 34.348C67.5968 35.1693 67.7328 35.7827 68.0048 36.188C68.2768 36.588 68.7061 36.788 69.2927 36.788ZM78.7496 30.076C79.379 30.076 79.9523 30.1747 80.4696 30.372C80.987 30.5693 81.4296 30.852 81.7976 31.22C82.171 31.588 82.459 32.036 82.6616 32.564C82.8696 33.0867 82.9736 33.676 82.9736 34.332C82.9736 34.9933 82.8696 35.5907 82.6616 36.124C82.459 36.652 82.171 37.1027 81.7976 37.476C81.4296 37.844 80.987 38.1293 80.4696 38.332C79.9523 38.5293 79.379 38.628 78.7496 38.628C78.115 38.628 77.5363 38.5293 77.0136 38.332C76.4963 38.1293 76.0483 37.844 75.6696 37.476C75.2963 37.1027 75.0056 36.652 74.7976 36.124C74.595 35.5907 74.4936 34.9933 74.4936 34.332C74.4936 33.676 74.595 33.0867 74.7976 32.564C75.0056 32.036 75.2963 31.588 75.6696 31.22C76.0483 30.852 76.4963 30.5693 77.0136 30.372C77.5363 30.1747 78.115 30.076 78.7496 30.076ZM78.7496 36.788C79.3203 36.788 79.739 36.588 80.0056 36.188C80.2776 35.7827 80.4136 35.1693 80.4136 34.348C80.4136 33.5267 80.2776 32.916 80.0056 32.516C79.739 32.116 79.3203 31.916 78.7496 31.916C78.163 31.916 77.7336 32.116 77.4616 32.516C77.1896 32.916 77.0536 33.5267 77.0536 34.348C77.0536 35.1693 77.1896 35.7827 77.4616 36.188C77.7336 36.588 78.163 36.788 78.7496 36.788ZM87.4644 33.916C87.875 33.916 88.171 33.8147 88.3524 33.612C88.539 33.404 88.6324 33.1373 88.6324 32.812C88.6324 32.476 88.539 32.212 88.3524 32.02C88.171 31.828 87.875 31.732 87.4644 31.732C87.0537 31.732 86.755 31.828 86.5684 32.02C86.387 32.212 86.2964 32.476 86.2964 32.812C86.2964 32.972 86.3177 33.1187 86.3604 33.252C86.4084 33.3853 86.4804 33.5027 86.5764 33.604C86.6724 33.7 86.7924 33.7773 86.9364 33.836C87.0857 33.8893 87.2617 33.916 87.4644 33.916ZM89.3844 38.804C89.3844 38.6067 89.2964 38.4653 89.1204 38.38C88.9444 38.2893 88.715 38.2253 88.4324 38.188C88.1497 38.1507 87.8324 38.1293 87.4804 38.124C87.1337 38.1133 86.787 38.092 86.4404 38.06C86.2857 38.1667 86.1577 38.2867 86.0564 38.42C85.9604 38.548 85.9124 38.6947 85.9124 38.86C85.9124 38.9773 85.9364 39.084 85.9844 39.18C86.0377 39.276 86.1284 39.3587 86.2564 39.428C86.3844 39.4973 86.555 39.5507 86.7684 39.588C86.987 39.6307 87.2617 39.652 87.5924 39.652C87.9497 39.652 88.243 39.6307 88.4724 39.588C88.7017 39.5453 88.883 39.4867 89.0164 39.412C89.155 39.3373 89.251 39.2467 89.3044 39.14C89.3577 39.0387 89.3844 38.9267 89.3844 38.804ZM91.8324 30.46V31.364C91.8324 31.5027 91.7924 31.612 91.7124 31.692C91.6377 31.772 91.507 31.8333 91.3204 31.876L90.7204 32.012C90.7524 32.1293 90.7764 32.2493 90.7924 32.372C90.8137 32.4947 90.8244 32.6227 90.8244 32.756C90.8244 33.172 90.7364 33.5453 90.5604 33.876C90.3897 34.2067 90.1524 34.4893 89.8484 34.724C89.5497 34.9533 89.195 35.132 88.7844 35.26C88.3737 35.3827 87.9337 35.444 87.4644 35.444C87.3364 35.444 87.211 35.4413 87.0884 35.436C86.9657 35.4253 86.8457 35.4093 86.7284 35.388C86.547 35.5 86.4564 35.6253 86.4564 35.764C86.4564 35.9027 86.531 36.004 86.6804 36.068C86.8297 36.1267 87.027 36.1693 87.2724 36.196C87.5177 36.2173 87.795 36.2333 88.1044 36.244C88.419 36.2493 88.739 36.268 89.0644 36.3C89.3897 36.3267 89.707 36.3747 90.0164 36.444C90.331 36.5133 90.611 36.6253 90.8564 36.78C91.1017 36.9347 91.299 37.1427 91.4484 37.404C91.5977 37.66 91.6724 37.988 91.6724 38.388C91.6724 38.7613 91.5817 39.1267 91.4004 39.484C91.219 39.8413 90.9524 40.1587 90.6004 40.436C90.2484 40.7133 89.8164 40.9347 89.3044 41.1C88.7924 41.2707 88.2057 41.356 87.5444 41.356C86.8937 41.356 86.331 41.2947 85.8564 41.172C85.387 41.0493 84.995 40.8867 84.6804 40.684C84.371 40.4867 84.1417 40.2573 83.9924 39.996C83.843 39.7347 83.7684 39.4627 83.7684 39.18C83.7684 38.812 83.875 38.5053 84.0884 38.26C84.3017 38.0147 84.6004 37.8173 84.9844 37.668C84.7817 37.5453 84.6217 37.388 84.5044 37.196C84.387 37.004 84.3284 36.756 84.3284 36.452C84.3284 36.3293 84.3497 36.2013 84.3924 36.068C84.435 35.9293 84.5017 35.796 84.5924 35.668C84.6884 35.5347 84.8057 35.4093 84.9444 35.292C85.083 35.1747 85.2484 35.0707 85.4404 34.98C85.0084 34.7507 84.667 34.4493 84.4164 34.076C84.1657 33.6973 84.0404 33.2573 84.0404 32.756C84.0404 32.34 84.1284 31.9667 84.3044 31.636C84.4804 31.3 84.7204 31.0173 85.0244 30.788C85.3337 30.5533 85.6964 30.3747 86.1124 30.252C86.5284 30.124 86.979 30.06 87.4644 30.06C88.1684 30.06 88.7924 30.1933 89.3364 30.46H91.8324ZM95.5069 26.524V38.5H93.0269V26.524H95.5069ZM102.503 33.356C102.503 33.1587 102.476 32.9667 102.423 32.78C102.375 32.5933 102.292 32.428 102.175 32.284C102.063 32.1347 101.914 32.0147 101.727 31.924C101.54 31.8333 101.314 31.788 101.047 31.788C100.578 31.788 100.21 31.924 99.9431 32.196C99.6765 32.4627 99.5005 32.8493 99.4151 33.356H102.503ZM99.3831 34.796C99.4631 35.4893 99.6738 35.9933 100.015 36.308C100.356 36.6173 100.796 36.772 101.335 36.772C101.623 36.772 101.871 36.7373 102.079 36.668C102.287 36.5987 102.471 36.5213 102.631 36.436C102.796 36.3507 102.946 36.2733 103.079 36.204C103.218 36.1347 103.362 36.1 103.511 36.1C103.708 36.1 103.858 36.172 103.959 36.316L104.679 37.204C104.423 37.4973 104.146 37.7373 103.847 37.924C103.554 38.1053 103.25 38.2493 102.935 38.356C102.626 38.4573 102.314 38.5267 101.999 38.564C101.69 38.6067 101.394 38.628 101.111 38.628C100.53 38.628 99.9831 38.5347 99.4711 38.348C98.9645 38.156 98.5191 37.8733 98.1351 37.5C97.7565 37.1267 97.4551 36.6627 97.2311 36.108C97.0125 35.5533 96.9031 34.908 96.9031 34.172C96.9031 33.6173 96.9965 33.092 97.1831 32.596C97.3751 32.1 97.6471 31.6653 97.9991 31.292C98.3565 30.9187 98.7858 30.6227 99.2871 30.404C99.7938 30.1853 100.364 30.076 100.999 30.076C101.548 30.076 102.05 30.1613 102.503 30.332C102.962 30.5027 103.354 30.7507 103.679 31.076C104.01 31.4013 104.266 31.8013 104.447 32.276C104.634 32.7453 104.727 33.2787 104.727 33.876C104.727 34.0627 104.719 34.2147 104.703 34.332C104.687 34.4493 104.658 34.5427 104.615 34.612C104.572 34.6813 104.514 34.7293 104.439 34.756C104.37 34.7827 104.279 34.796 104.167 34.796H99.3831ZM114.391 32.564C115.095 32.564 115.602 32.396 115.911 32.06C116.221 31.724 116.375 31.2547 116.375 30.652C116.375 30.3853 116.335 30.1427 116.255 29.924C116.175 29.7053 116.053 29.5187 115.887 29.364C115.727 29.204 115.522 29.0813 115.271 28.996C115.026 28.9107 114.733 28.868 114.391 28.868H112.983V32.564H114.391ZM114.391 26.844C115.213 26.844 115.917 26.9427 116.503 27.14C117.095 27.332 117.581 27.5987 117.959 27.94C118.343 28.2813 118.626 28.684 118.807 29.148C118.989 29.612 119.079 30.1133 119.079 30.652C119.079 31.2333 118.986 31.7667 118.799 32.252C118.613 32.7373 118.327 33.1533 117.943 33.5C117.559 33.8467 117.071 34.1187 116.479 34.316C115.893 34.508 115.197 34.604 114.391 34.604H112.983V38.5H110.279V26.844H114.391ZM122.803 26.524V38.5H120.323V26.524H122.803ZM128.919 35.124C128.423 35.1453 128.015 35.188 127.695 35.252C127.375 35.316 127.122 35.396 126.935 35.492C126.749 35.588 126.618 35.6973 126.543 35.82C126.474 35.9427 126.439 36.076 126.439 36.22C126.439 36.5027 126.517 36.7027 126.671 36.82C126.826 36.932 127.053 36.988 127.351 36.988C127.671 36.988 127.951 36.932 128.191 36.82C128.431 36.708 128.674 36.5267 128.919 36.276V35.124ZM124.455 31.356C124.957 30.9133 125.511 30.5853 126.119 30.372C126.733 30.1533 127.389 30.044 128.087 30.044C128.589 30.044 129.039 30.1267 129.439 30.292C129.845 30.452 130.186 30.6787 130.463 30.972C130.746 31.26 130.962 31.604 131.111 32.004C131.261 32.404 131.335 32.8413 131.335 33.316V38.5H130.199C129.965 38.5 129.786 38.468 129.663 38.404C129.546 38.34 129.447 38.2067 129.367 38.004L129.191 37.548C128.983 37.724 128.783 37.8787 128.591 38.012C128.399 38.1453 128.199 38.26 127.991 38.356C127.789 38.4467 127.57 38.5133 127.335 38.556C127.106 38.604 126.85 38.628 126.567 38.628C126.189 38.628 125.845 38.58 125.535 38.484C125.226 38.3827 124.962 38.236 124.743 38.044C124.53 37.852 124.365 37.6147 124.247 37.332C124.13 37.044 124.071 36.7133 124.071 36.34C124.071 36.0413 124.146 35.74 124.295 35.436C124.445 35.1267 124.703 34.8467 125.071 34.596C125.439 34.34 125.935 34.1267 126.559 33.956C127.183 33.7853 127.97 33.6893 128.919 33.668V33.316C128.919 32.8307 128.818 32.4813 128.615 32.268C128.418 32.0493 128.135 31.94 127.767 31.94C127.474 31.94 127.234 31.972 127.047 32.036C126.861 32.1 126.693 32.172 126.543 32.252C126.399 32.332 126.258 32.404 126.119 32.468C125.981 32.532 125.815 32.564 125.623 32.564C125.453 32.564 125.309 32.5213 125.191 32.436C125.074 32.3507 124.978 32.2493 124.903 32.132L124.455 31.356ZM140.695 30.204L136.263 40.652C136.188 40.8173 136.098 40.9373 135.991 41.012C135.884 41.092 135.714 41.132 135.479 41.132H133.623L135.223 37.772L131.911 30.204H134.103C134.295 30.204 134.442 30.2467 134.543 30.332C134.65 30.4173 134.727 30.5187 134.775 30.636L136.135 34.212C136.263 34.5373 136.367 34.8707 136.447 35.212C136.506 35.0413 136.564 34.8707 136.623 34.7C136.682 34.5293 136.743 34.3613 136.807 34.196L138.039 30.636C138.087 30.5133 138.172 30.412 138.295 30.332C138.418 30.2467 138.551 30.204 138.695 30.204H140.695Z" fill="white"/>
</g>
<defs>
<linearGradient id="paint0_linear_1415_2647" x1="39.594" y1="11.5839" x2="1.37631" y2="28.8477" gradientUnits="userSpaceOnUse">
<stop stop-color="#00A0FF"/>
<stop offset="0.00657" stop-color="#00A1FF"/>
<stop offset="0.2601" stop-color="#00BEFF"/>
<stop offset="0.5122" stop-color="#00D2FF"/>
<stop offset="0.7604" stop-color="#00DFFF"/>
<stop offset="1" stop-color="#00E3FF"/>
</linearGradient>
<linearGradient id="paint1_linear_1415_2647" x1="44.1365" y1="26.0001" x2="-22.5545" y2="26.0001" gradientUnits="userSpaceOnUse">
<stop stop-color="#FFE000"/>
<stop offset="0.4087" stop-color="#FFBD00"/>
<stop offset="0.7754" stop-color="#FFA500"/>
<stop offset="1" stop-color="#FF9C00"/>
</linearGradient>
<linearGradient id="paint2_linear_1415_2647" x1="38.1482" y1="15.7151" x2="-6.61799" y2="66.5317" gradientUnits="userSpaceOnUse">
<stop stop-color="#FF3A44"/>
<stop offset="1" stop-color="#C31162"/>
</linearGradient>
<linearGradient id="paint3_linear_1415_2647" x1="10.7455" y1="1.33365" x2="19.6947" y2="16.0347" gradientUnits="userSpaceOnUse">
<stop stop-color="#32A071"/>
<stop offset="0.0685" stop-color="#2DA771"/>
<stop offset="0.4762" stop-color="#15CF74"/>
<stop offset="0.8009" stop-color="#06E775"/>
<stop offset="1" stop-color="#00F076"/>
</linearGradient>
<clipPath id="clip0_1415_2647">
<rect width="153" height="52" fill="white"/>
</clipPath>
</defs>
</svg>
