<svg width="139" height="52" viewBox="0 0 139 52" fill="none" xmlns="http://www.w3.org/2000/svg">
<g clip-path="url(#clip0_1415_2648)">
<rect width="139" height="52" rx="12" fill="black"/>
<rect x="0.5" y="0.5" width="138" height="51" rx="11.5" stroke="white" stroke-opacity="0.4"/>
<g clip-path="url(#clip1_1415_2648)">
<path d="M40.1727 20.9088C39.9875 21.0528 36.7167 22.8992 36.7167 27.0048C36.7167 31.7536 40.8786 33.4336 41.0032 33.4752C40.984 33.5776 40.342 35.776 38.8088 38.016C37.4418 39.9872 36.014 41.9552 33.842 41.9552C31.67 41.9552 31.1111 40.6912 28.6037 40.6912C26.1602 40.6912 25.2914 41.9968 23.3047 41.9968C21.3179 41.9968 19.9317 40.1728 18.3378 37.9328C16.4916 35.3024 15 31.216 15 27.3376C15 21.1168 19.0373 17.8176 23.0108 17.8176C25.1221 17.8176 26.8821 19.2064 28.2076 19.2064C29.4693 19.2064 31.4369 17.7344 33.8388 17.7344C34.7491 17.7344 38.0199 17.8176 40.1727 20.9088ZM32.6985 15.1008C33.6919 13.92 34.3946 12.2816 34.3946 10.6432C34.3946 10.416 34.3754 10.1856 34.3339 10C32.7177 10.0608 30.7948 11.0784 29.6354 12.4256C28.7251 13.4624 27.8754 15.1008 27.8754 16.7616C27.8754 17.0112 27.917 17.2608 27.9361 17.3408C28.0383 17.36 28.2044 17.3824 28.3705 17.3824C29.8206 17.3824 31.6445 16.4096 32.6985 15.1008Z" fill="white"/>
</g>
<path d="M53.5 13.005C53.77 12.765 54.0833 12.5817 54.44 12.455C54.7967 12.3283 55.2017 12.265 55.655 12.265C56.025 12.265 56.3567 12.31 56.65 12.4C56.9467 12.49 57.1983 12.6167 57.405 12.78C57.6117 12.9433 57.77 13.1367 57.88 13.36C57.9933 13.5833 58.05 13.8283 58.05 14.095C58.05 14.455 57.96 14.7717 57.78 15.045C57.6033 15.3183 57.3533 15.53 57.03 15.68C57.2133 15.7567 57.38 15.8517 57.53 15.965C57.68 16.075 57.8083 16.2 57.915 16.34C58.025 16.48 58.1083 16.6333 58.165 16.8C58.225 16.9667 58.255 17.1417 58.255 17.325C58.255 17.6383 58.1967 17.9317 58.08 18.205C57.9633 18.4783 57.7933 18.7167 57.57 18.92C57.35 19.12 57.0783 19.2783 56.755 19.395C56.4317 19.5117 56.0633 19.57 55.65 19.57C55.1367 19.57 54.675 19.4867 54.265 19.32C53.855 19.15 53.5033 18.9217 53.21 18.635L53.49 18.175C53.5167 18.1383 53.55 18.1083 53.59 18.085C53.63 18.0583 53.6733 18.045 53.72 18.045C53.79 18.045 53.8733 18.0833 53.97 18.16C54.0667 18.2333 54.19 18.315 54.34 18.405C54.49 18.495 54.6717 18.5783 54.885 18.655C55.1017 18.7283 55.365 18.765 55.675 18.765C55.9383 18.765 56.1733 18.7333 56.38 18.67C56.59 18.6067 56.765 18.515 56.905 18.395C57.0483 18.275 57.1567 18.1283 57.23 17.955C57.3067 17.7817 57.345 17.5867 57.345 17.37C57.345 17.1833 57.3083 17.0117 57.235 16.855C57.165 16.6983 57.0617 16.565 56.925 16.455C56.7883 16.3417 56.6217 16.255 56.425 16.195C56.2283 16.1317 56.0067 16.1 55.76 16.1H54.78V15.305H55.72C55.9233 15.305 56.1117 15.28 56.285 15.23C56.4617 15.18 56.6117 15.1067 56.735 15.01C56.8617 14.9133 56.96 14.795 57.03 14.655C57.1033 14.515 57.14 14.355 57.14 14.175C57.14 14.0117 57.1067 13.8617 57.04 13.725C56.9733 13.5883 56.8767 13.4717 56.75 13.375C56.6233 13.275 56.4683 13.1983 56.285 13.145C56.1017 13.0917 55.8933 13.065 55.66 13.065C55.39 13.065 55.16 13.0933 54.97 13.15C54.78 13.2067 54.62 13.27 54.49 13.34C54.36 13.4067 54.2533 13.4683 54.17 13.525C54.09 13.5817 54.02 13.61 53.96 13.61C53.9067 13.61 53.8633 13.5983 53.83 13.575C53.7967 13.5517 53.765 13.5133 53.735 13.46L53.5 13.005ZM62.1238 17.22C61.7138 17.2333 61.3638 17.2667 61.0738 17.32C60.7872 17.37 60.5522 17.4367 60.3688 17.52C60.1888 17.6033 60.0572 17.7017 59.9738 17.815C59.8938 17.9283 59.8538 18.055 59.8538 18.195C59.8538 18.3283 59.8755 18.4433 59.9188 18.54C59.9622 18.6367 60.0205 18.7167 60.0938 18.78C60.1705 18.84 60.2588 18.885 60.3588 18.915C60.4622 18.9417 60.5722 18.955 60.6888 18.955C60.8455 18.955 60.9888 18.94 61.1188 18.91C61.2488 18.8767 61.3705 18.83 61.4838 18.77C61.6005 18.71 61.7105 18.6383 61.8138 18.555C61.9205 18.4717 62.0238 18.3767 62.1238 18.27V17.22ZM59.2488 15.15C59.5288 14.88 59.8305 14.6783 60.1538 14.545C60.4772 14.4117 60.8355 14.345 61.2288 14.345C61.5122 14.345 61.7638 14.3917 61.9838 14.485C62.2038 14.5783 62.3888 14.7083 62.5388 14.875C62.6888 15.0417 62.8022 15.2433 62.8788 15.48C62.9555 15.7167 62.9938 15.9767 62.9938 16.26V19.5H62.5988C62.5122 19.5 62.4455 19.4867 62.3988 19.46C62.3522 19.43 62.3155 19.3733 62.2888 19.29L62.1888 18.81C62.0555 18.9333 61.9255 19.0433 61.7988 19.14C61.6722 19.2333 61.5388 19.3133 61.3988 19.38C61.2588 19.4433 61.1088 19.4917 60.9488 19.525C60.7922 19.5617 60.6172 19.58 60.4238 19.58C60.2272 19.58 60.0422 19.5533 59.8688 19.5C59.6955 19.4433 59.5438 19.36 59.4138 19.25C59.2872 19.14 59.1855 19.0017 59.1088 18.835C59.0355 18.665 58.9988 18.465 58.9988 18.235C58.9988 18.035 59.0538 17.8433 59.1638 17.66C59.2738 17.4733 59.4522 17.3083 59.6988 17.165C59.9455 17.0217 60.2672 16.905 60.6638 16.815C61.0605 16.7217 61.5472 16.6683 62.1238 16.655V16.26C62.1238 15.8667 62.0388 15.57 61.8688 15.37C61.6988 15.1667 61.4505 15.065 61.1238 15.065C60.9038 15.065 60.7188 15.0933 60.5688 15.15C60.4222 15.2033 60.2938 15.265 60.1838 15.335C60.0772 15.4017 59.9838 15.4633 59.9038 15.52C59.8272 15.5733 59.7505 15.6 59.6738 15.6C59.6138 15.6 59.5622 15.585 59.5188 15.555C59.4755 15.5217 59.4388 15.4817 59.4088 15.435L59.2488 15.15ZM67.6345 15.115H65.2445V19.5H64.3495V14.435H67.6345V15.115ZM69.3754 18.28C69.5387 18.5 69.7171 18.655 69.9104 18.745C70.1037 18.835 70.3204 18.88 70.5604 18.88C71.0337 18.88 71.3971 18.7117 71.6504 18.375C71.9037 18.0383 72.0304 17.5583 72.0304 16.935C72.0304 16.605 72.0004 16.3217 71.9404 16.085C71.8837 15.8483 71.8004 15.655 71.6904 15.505C71.5804 15.3517 71.4454 15.24 71.2854 15.17C71.1254 15.1 70.9437 15.065 70.7404 15.065C70.4504 15.065 70.1954 15.1317 69.9754 15.265C69.7587 15.3983 69.5587 15.5867 69.3754 15.83V18.28ZM69.3304 15.22C69.5437 14.9567 69.7904 14.745 70.0704 14.585C70.3504 14.425 70.6704 14.345 71.0304 14.345C71.3237 14.345 71.5887 14.4017 71.8254 14.515C72.0621 14.625 72.2637 14.79 72.4304 15.01C72.5971 15.2267 72.7254 15.4967 72.8154 15.82C72.9054 16.1433 72.9504 16.515 72.9504 16.935C72.9504 17.3083 72.9004 17.6567 72.8004 17.98C72.7004 18.3 72.5554 18.5783 72.3654 18.815C72.1787 19.0483 71.9487 19.2333 71.6754 19.37C71.4054 19.5033 71.1004 19.57 70.7604 19.57C70.4504 19.57 70.1837 19.5183 69.9604 19.415C69.7404 19.3083 69.5454 19.1617 69.3754 18.975V21.215H68.4804V14.435H69.0154C69.1421 14.435 69.2204 14.4967 69.2504 14.62L69.3304 15.22ZM78.3094 14.435L75.4844 20.995C75.4544 21.0617 75.416 21.115 75.3694 21.155C75.326 21.195 75.2577 21.215 75.1644 21.215H74.5044L75.4294 19.205L73.3394 14.435H74.1094C74.186 14.435 74.246 14.455 74.2894 14.495C74.336 14.5317 74.3677 14.5733 74.3844 14.62L75.7394 17.81C75.7927 17.95 75.8377 18.0967 75.8744 18.25C75.921 18.0933 75.971 17.945 76.0244 17.805L77.3394 14.62C77.3594 14.5667 77.3927 14.5233 77.4394 14.49C77.4894 14.4533 77.5444 14.435 77.6044 14.435H78.3094ZM78.7366 14.955C78.9266 14.775 79.1566 14.63 79.4266 14.52C79.6999 14.41 80.0282 14.355 80.4116 14.355C80.7182 14.355 80.9882 14.3933 81.2216 14.47C81.4549 14.5433 81.6499 14.6417 81.8066 14.765C81.9666 14.8883 82.0866 15.03 82.1666 15.19C82.2499 15.3467 82.2916 15.51 82.2916 15.68C82.2916 15.78 82.2749 15.885 82.2416 15.995C82.2116 16.105 82.1599 16.21 82.0866 16.31C82.0132 16.41 81.9182 16.5033 81.8016 16.59C81.6849 16.6767 81.5399 16.7467 81.3666 16.8C81.6899 16.8967 81.9432 17.0517 82.1266 17.265C82.3132 17.4783 82.4066 17.74 82.4066 18.05C82.4066 18.2833 82.3532 18.495 82.2466 18.685C82.1399 18.8717 81.9966 19.0317 81.8166 19.165C81.6366 19.295 81.4266 19.395 81.1866 19.465C80.9499 19.535 80.7016 19.57 80.4416 19.57C80.2782 19.57 80.1116 19.555 79.9416 19.525C79.7749 19.495 79.6116 19.4483 79.4516 19.385C79.2916 19.3183 79.1399 19.2367 78.9966 19.14C78.8566 19.0433 78.7316 18.9267 78.6216 18.79L78.8716 18.465C78.9116 18.4083 78.9682 18.38 79.0416 18.38C79.1016 18.38 79.1649 18.4067 79.2316 18.46C79.3016 18.51 79.3866 18.5667 79.4866 18.63C79.5866 18.6933 79.7082 18.7517 79.8516 18.805C79.9982 18.855 80.1766 18.88 80.3866 18.88C80.5699 18.88 80.7332 18.8583 80.8766 18.815C81.0232 18.7683 81.1466 18.705 81.2466 18.625C81.3466 18.545 81.4232 18.45 81.4766 18.34C81.5299 18.23 81.5566 18.11 81.5566 17.98C81.5566 17.73 81.4516 17.5283 81.2416 17.375C81.0349 17.2217 80.7199 17.145 80.2966 17.145H79.7216V16.555H80.2966C80.4799 16.555 80.6449 16.5367 80.7916 16.5C80.9382 16.46 81.0632 16.4067 81.1666 16.34C81.2699 16.2733 81.3482 16.1933 81.4016 16.1C81.4549 16.0033 81.4816 15.9 81.4816 15.79C81.4816 15.69 81.4582 15.595 81.4116 15.505C81.3682 15.415 81.2999 15.3367 81.2066 15.27C81.1166 15.2033 81.0032 15.15 80.8666 15.11C80.7299 15.07 80.5699 15.05 80.3866 15.05C80.1866 15.05 80.0166 15.07 79.8766 15.11C79.7399 15.15 79.6232 15.1933 79.5266 15.24C79.4332 15.2867 79.3566 15.33 79.2966 15.37C79.2366 15.41 79.1849 15.43 79.1416 15.43C79.0982 15.43 79.0616 15.4217 79.0316 15.405C79.0049 15.3883 78.9749 15.3533 78.9416 15.3L78.7366 14.955ZM87.8937 14.435V19.5H87.0038V16.06C87.0038 15.9933 87.0071 15.9217 87.0138 15.845C87.0204 15.7683 87.0288 15.6917 87.0388 15.615C87.0088 15.6817 86.9788 15.7433 86.9488 15.8C86.9188 15.8567 86.8871 15.9083 86.8538 15.955L84.4088 19.28C84.3721 19.3333 84.3254 19.385 84.2688 19.435C84.2154 19.4817 84.1554 19.505 84.0888 19.505H83.5488V14.44H84.4438V17.88C84.4438 17.9433 84.4404 18.0133 84.4338 18.09C84.4271 18.1633 84.4188 18.2383 84.4088 18.315C84.4388 18.2517 84.4688 18.1933 84.4988 18.14C84.5288 18.0833 84.5588 18.0317 84.5888 17.985L87.0338 14.66C87.0704 14.6067 87.1171 14.5567 87.1738 14.51C87.2304 14.46 87.2921 14.435 87.3588 14.435H87.8937ZM93.5107 15.115H91.5657V19.5H90.6757V15.115H88.7307V14.435H93.5107V15.115ZM97.5442 16.415C97.5442 16.2083 97.5142 16.02 97.4542 15.85C97.3976 15.6767 97.3126 15.5283 97.1992 15.405C97.0892 15.2783 96.9542 15.1817 96.7942 15.115C96.6342 15.045 96.4526 15.01 96.2492 15.01C95.8226 15.01 95.4842 15.135 95.2342 15.385C94.9876 15.6317 94.8342 15.975 94.7742 16.415H97.5442ZM98.2642 18.79C98.1542 18.9233 98.0226 19.04 97.8692 19.14C97.7159 19.2367 97.5509 19.3167 97.3742 19.38C97.2009 19.4433 97.0209 19.49 96.8342 19.52C96.6476 19.5533 96.4626 19.57 96.2792 19.57C95.9292 19.57 95.6059 19.5117 95.3092 19.395C95.0159 19.275 94.7609 19.1017 94.5442 18.875C94.3309 18.645 94.1642 18.3617 94.0442 18.025C93.9242 17.6883 93.8642 17.3017 93.8642 16.865C93.8642 16.5117 93.9176 16.1817 94.0242 15.875C94.1342 15.5683 94.2909 15.3033 94.4942 15.08C94.6976 14.8533 94.9459 14.6767 95.2392 14.55C95.5326 14.42 95.8626 14.355 96.2292 14.355C96.5326 14.355 96.8126 14.4067 97.0692 14.51C97.3292 14.61 97.5526 14.7567 97.7392 14.95C97.9292 15.14 98.0776 15.3767 98.1842 15.66C98.2909 15.94 98.3442 16.26 98.3442 16.62C98.3442 16.76 98.3292 16.8533 98.2992 16.9C98.2692 16.9467 98.2126 16.97 98.1292 16.97H94.7442C94.7542 17.29 94.7976 17.5683 94.8742 17.805C94.9542 18.0417 95.0642 18.24 95.2042 18.4C95.3442 18.5567 95.5109 18.675 95.7042 18.755C95.8976 18.8317 96.1142 18.87 96.3542 18.87C96.5776 18.87 96.7692 18.845 96.9292 18.795C97.0926 18.7417 97.2326 18.685 97.3492 18.625C97.4659 18.565 97.5626 18.51 97.6392 18.46C97.7192 18.4067 97.7876 18.38 97.8442 18.38C97.9176 18.38 97.9742 18.4083 98.0142 18.465L98.2642 18.79ZM103.941 18.875C104.274 18.875 104.538 18.7983 104.731 18.645C104.924 18.4883 105.021 18.275 105.021 18.005C105.021 17.885 105.003 17.7767 104.966 17.68C104.929 17.58 104.869 17.4933 104.786 17.42C104.703 17.3467 104.591 17.29 104.451 17.25C104.314 17.21 104.146 17.19 103.946 17.19H102.851V18.875H103.941ZM102.851 15.035V16.625H103.826C103.973 16.625 104.108 16.605 104.231 16.565C104.358 16.5217 104.466 16.4633 104.556 16.39C104.646 16.3133 104.716 16.2233 104.766 16.12C104.816 16.0133 104.841 15.8967 104.841 15.77C104.841 15.6767 104.824 15.5867 104.791 15.5C104.758 15.41 104.701 15.3317 104.621 15.265C104.541 15.195 104.436 15.14 104.306 15.1C104.176 15.0567 104.016 15.035 103.826 15.035H102.851ZM103.851 14.435C104.164 14.435 104.433 14.4667 104.656 14.53C104.879 14.5933 105.063 14.68 105.206 14.79C105.349 14.8967 105.454 15.0233 105.521 15.17C105.588 15.3167 105.621 15.4733 105.621 15.64C105.621 15.75 105.606 15.865 105.576 15.985C105.546 16.105 105.493 16.22 105.416 16.33C105.343 16.44 105.241 16.54 105.111 16.63C104.984 16.7167 104.824 16.785 104.631 16.835C105.018 16.9017 105.316 17.0367 105.526 17.24C105.736 17.44 105.841 17.705 105.841 18.035C105.841 18.2817 105.791 18.4967 105.691 18.68C105.594 18.86 105.459 19.0117 105.286 19.135C105.116 19.2583 104.916 19.35 104.686 19.41C104.456 19.47 104.209 19.5 103.946 19.5H101.996V14.435H103.851Z" fill="white"/>
<path d="M60.288 34.044L59.208 30.852C59.128 30.6493 59.0427 30.412 58.952 30.14C58.8613 29.8627 58.7707 29.564 58.68 29.244C58.6 29.5693 58.5147 29.8707 58.424 30.148C58.3333 30.4253 58.248 30.6653 58.168 30.868L57.096 34.044H60.288ZM64.584 38.5H62.488C62.2533 38.5 62.064 38.4467 61.92 38.34C61.776 38.228 61.6667 38.0867 61.592 37.916L60.904 35.884H56.472L55.784 37.916C55.7253 38.0653 55.6187 38.2013 55.464 38.324C55.3147 38.4413 55.128 38.5 54.904 38.5H52.792L57.304 26.844H60.072L64.584 38.5ZM67.855 36.244C68.0417 36.4467 68.2443 36.5907 68.463 36.676C68.6817 36.7613 68.911 36.804 69.151 36.804C69.3803 36.804 69.591 36.7587 69.783 36.668C69.975 36.5773 70.1403 36.4333 70.279 36.236C70.423 36.0333 70.535 35.772 70.615 35.452C70.695 35.132 70.735 34.7427 70.735 34.284C70.735 33.8467 70.703 33.4787 70.639 33.18C70.575 32.8813 70.4843 32.6413 70.367 32.46C70.255 32.2733 70.119 32.14 69.959 32.06C69.799 31.98 69.6203 31.94 69.423 31.94C69.0603 31.94 68.7617 32.0067 68.527 32.14C68.2923 32.2733 68.0683 32.468 67.855 32.724V36.244ZM67.703 31.228C68.0283 30.8813 68.3963 30.5987 68.807 30.38C69.223 30.156 69.7163 30.044 70.287 30.044C70.719 30.044 71.119 30.14 71.487 30.332C71.855 30.524 72.1723 30.8013 72.439 31.164C72.7057 31.5267 72.9137 31.972 73.063 32.5C73.2177 33.0227 73.295 33.6173 73.295 34.284C73.295 34.908 73.207 35.484 73.031 36.012C72.8603 36.54 72.6177 36.9987 72.303 37.388C71.9937 37.7773 71.6203 38.0813 71.183 38.3C70.751 38.5187 70.271 38.628 69.743 38.628C69.311 38.628 68.9483 38.5667 68.655 38.444C68.3617 38.3213 68.095 38.156 67.855 37.948V41.132H65.375V30.204H66.911C67.2203 30.204 67.423 30.3427 67.519 30.62L67.703 31.228ZM77.2181 36.244C77.4048 36.4467 77.6075 36.5907 77.8261 36.676C78.0448 36.7613 78.2741 36.804 78.5141 36.804C78.7435 36.804 78.9541 36.7587 79.1461 36.668C79.3381 36.5773 79.5035 36.4333 79.6421 36.236C79.7861 36.0333 79.8981 35.772 79.9781 35.452C80.0581 35.132 80.0981 34.7427 80.0981 34.284C80.0981 33.8467 80.0661 33.4787 80.0021 33.18C79.9381 32.8813 79.8475 32.6413 79.7301 32.46C79.6181 32.2733 79.4821 32.14 79.3221 32.06C79.1621 31.98 78.9835 31.94 78.7861 31.94C78.4235 31.94 78.1248 32.0067 77.8901 32.14C77.6555 32.2733 77.4315 32.468 77.2181 32.724V36.244ZM77.0661 31.228C77.3915 30.8813 77.7595 30.5987 78.1701 30.38C78.5861 30.156 79.0795 30.044 79.6501 30.044C80.0821 30.044 80.4821 30.14 80.8501 30.332C81.2181 30.524 81.5355 30.8013 81.8021 31.164C82.0688 31.5267 82.2768 31.972 82.4261 32.5C82.5808 33.0227 82.6581 33.6173 82.6581 34.284C82.6581 34.908 82.5701 35.484 82.3941 36.012C82.2235 36.54 81.9808 36.9987 81.6661 37.388C81.3568 37.7773 80.9835 38.0813 80.5461 38.3C80.1141 38.5187 79.6341 38.628 79.1061 38.628C78.6741 38.628 78.3115 38.5667 78.0181 38.444C77.7248 38.3213 77.4581 38.156 77.2181 37.948V41.132H74.7381V30.204H76.2741C76.5835 30.204 76.7861 30.3427 76.8821 30.62L77.0661 31.228ZM94.6924 29.212C94.6124 29.34 94.527 29.436 94.4364 29.5C94.351 29.564 94.239 29.596 94.1004 29.596C93.9777 29.596 93.8444 29.5587 93.7004 29.484C93.5617 29.404 93.4017 29.316 93.2204 29.22C93.0444 29.124 92.8417 29.0387 92.6124 28.964C92.383 28.884 92.1217 28.844 91.8284 28.844C91.3217 28.844 90.943 28.9533 90.6924 29.172C90.447 29.3853 90.3244 29.676 90.3244 30.044C90.3244 30.2787 90.399 30.4733 90.5484 30.628C90.6977 30.7827 90.8924 30.916 91.1324 31.028C91.3777 31.14 91.655 31.244 91.9644 31.34C92.279 31.4307 92.599 31.5347 92.9244 31.652C93.2497 31.764 93.567 31.8973 93.8764 32.052C94.191 32.2067 94.4684 32.404 94.7084 32.644C94.9537 32.884 95.151 33.1773 95.3004 33.524C95.4497 33.8653 95.5244 34.2787 95.5244 34.764C95.5244 35.3027 95.431 35.8067 95.2444 36.276C95.0577 36.7453 94.7857 37.156 94.4284 37.508C94.0764 37.8547 93.639 38.1293 93.1164 38.332C92.599 38.5293 92.0097 38.628 91.3484 38.628C90.9857 38.628 90.615 38.5907 90.2364 38.516C89.863 38.4413 89.5004 38.3373 89.1484 38.204C88.7964 38.0653 88.4657 37.9027 88.1564 37.716C87.847 37.5293 87.5777 37.3213 87.3484 37.092L88.1484 35.828C88.2124 35.7373 88.295 35.6627 88.3964 35.604C88.503 35.54 88.6177 35.508 88.7404 35.508C88.9004 35.508 89.0604 35.5587 89.2204 35.66C89.3857 35.7613 89.5697 35.8733 89.7724 35.996C89.9804 36.1187 90.2177 36.2307 90.4844 36.332C90.751 36.4333 91.0657 36.484 91.4284 36.484C91.919 36.484 92.3004 36.3773 92.5724 36.164C92.8444 35.9453 92.9804 35.6013 92.9804 35.132C92.9804 34.86 92.9057 34.6387 92.7564 34.468C92.607 34.2973 92.4097 34.156 92.1644 34.044C91.9244 33.932 91.6497 33.8333 91.3404 33.748C91.031 33.6627 90.7137 33.5693 90.3884 33.468C90.063 33.3613 89.7457 33.2333 89.4364 33.084C89.127 32.9293 88.8497 32.7293 88.6044 32.484C88.3644 32.2333 88.1697 31.924 88.0204 31.556C87.871 31.1827 87.7964 30.724 87.7964 30.18C87.7964 29.7427 87.8844 29.316 88.0604 28.9C88.2364 28.484 88.495 28.1133 88.8364 27.788C89.1777 27.4627 89.5964 27.204 90.0924 27.012C90.5884 26.8147 91.1564 26.716 91.7964 26.716C92.1537 26.716 92.5004 26.7453 92.8364 26.804C93.1777 26.8573 93.5004 26.94 93.8044 27.052C94.1084 27.1587 94.391 27.2893 94.6524 27.444C94.919 27.5933 95.1564 27.764 95.3644 27.956L94.6924 29.212ZM99.5924 38.628C99.1977 38.628 98.8484 38.572 98.5444 38.46C98.2457 38.3427 97.9924 38.18 97.7844 37.972C97.5817 37.7587 97.427 37.5027 97.3204 37.204C97.2137 36.9053 97.1604 36.572 97.1604 36.204V31.916H96.4564C96.3284 31.916 96.219 31.876 96.1284 31.796C96.0377 31.7107 95.9924 31.588 95.9924 31.428V30.46L97.3124 30.204L97.8004 28.18C97.8644 27.924 98.0457 27.796 98.3444 27.796H99.6404V30.22H101.696V31.916H99.6404V36.036C99.6404 36.228 99.6857 36.388 99.7764 36.516C99.8724 36.6387 100.008 36.7 100.184 36.7C100.275 36.7 100.35 36.692 100.408 36.676C100.472 36.6547 100.526 36.6333 100.568 36.612C100.616 36.5853 100.659 36.564 100.696 36.548C100.739 36.5267 100.787 36.516 100.84 36.516C100.915 36.516 100.974 36.5347 101.016 36.572C101.064 36.604 101.112 36.6573 101.16 36.732L101.912 37.908C101.592 38.148 101.232 38.3293 100.832 38.452C100.432 38.5693 100.019 38.628 99.5924 38.628ZM106.671 30.076C107.3 30.076 107.874 30.1747 108.391 30.372C108.908 30.5693 109.351 30.852 109.719 31.22C110.092 31.588 110.38 32.036 110.583 32.564C110.791 33.0867 110.895 33.676 110.895 34.332C110.895 34.9933 110.791 35.5907 110.583 36.124C110.38 36.652 110.092 37.1027 109.719 37.476C109.351 37.844 108.908 38.1293 108.391 38.332C107.874 38.5293 107.3 38.628 106.671 38.628C106.036 38.628 105.458 38.5293 104.935 38.332C104.418 38.1293 103.97 37.844 103.591 37.476C103.218 37.1027 102.927 36.652 102.719 36.124C102.516 35.5907 102.415 34.9933 102.415 34.332C102.415 33.676 102.516 33.0867 102.719 32.564C102.927 32.036 103.218 31.588 103.591 31.22C103.97 30.852 104.418 30.5693 104.935 30.372C105.458 30.1747 106.036 30.076 106.671 30.076ZM106.671 36.788C107.242 36.788 107.66 36.588 107.927 36.188C108.199 35.7827 108.335 35.1693 108.335 34.348C108.335 33.5267 108.199 32.916 107.927 32.516C107.66 32.116 107.242 31.916 106.671 31.916C106.084 31.916 105.655 32.116 105.383 32.516C105.111 32.916 104.975 33.5267 104.975 34.348C104.975 35.1693 105.111 35.7827 105.383 36.188C105.655 36.588 106.084 36.788 106.671 36.788ZM114.624 31.484C114.88 31.036 115.173 30.684 115.504 30.428C115.84 30.172 116.224 30.044 116.656 30.044C117.029 30.044 117.333 30.132 117.568 30.308L117.408 32.132C117.381 32.2493 117.336 32.3293 117.272 32.372C117.213 32.4147 117.13 32.436 117.024 32.436C116.981 32.436 116.925 32.4333 116.856 32.428C116.786 32.4227 116.714 32.4173 116.64 32.412C116.565 32.4013 116.488 32.3933 116.408 32.388C116.333 32.3773 116.264 32.372 116.2 32.372C115.837 32.372 115.546 32.468 115.328 32.66C115.114 32.852 114.933 33.1187 114.784 33.46V38.5H112.304V30.204H113.776C113.898 30.204 114 30.2147 114.08 30.236C114.165 30.2573 114.234 30.292 114.288 30.34C114.346 30.3827 114.389 30.4413 114.416 30.516C114.448 30.5907 114.474 30.6813 114.496 30.788L114.624 31.484ZM123.592 33.356C123.592 33.1587 123.566 32.9667 123.512 32.78C123.464 32.5933 123.382 32.428 123.264 32.284C123.152 32.1347 123.003 32.0147 122.816 31.924C122.63 31.8333 122.403 31.788 122.136 31.788C121.667 31.788 121.299 31.924 121.032 32.196C120.766 32.4627 120.59 32.8493 120.504 33.356H123.592ZM120.472 34.796C120.552 35.4893 120.763 35.9933 121.104 36.308C121.446 36.6173 121.886 36.772 122.424 36.772C122.712 36.772 122.96 36.7373 123.168 36.668C123.376 36.5987 123.56 36.5213 123.72 36.436C123.886 36.3507 124.035 36.2733 124.168 36.204C124.307 36.1347 124.451 36.1 124.6 36.1C124.798 36.1 124.947 36.172 125.048 36.316L125.768 37.204C125.512 37.4973 125.235 37.7373 124.936 37.924C124.643 38.1053 124.339 38.2493 124.024 38.356C123.715 38.4573 123.403 38.5267 123.088 38.564C122.779 38.6067 122.483 38.628 122.2 38.628C121.619 38.628 121.072 38.5347 120.56 38.348C120.054 38.156 119.608 37.8733 119.224 37.5C118.846 37.1267 118.544 36.6627 118.32 36.108C118.102 35.5533 117.992 34.908 117.992 34.172C117.992 33.6173 118.086 33.092 118.272 32.596C118.464 32.1 118.736 31.6653 119.088 31.292C119.446 30.9187 119.875 30.6227 120.376 30.404C120.883 30.1853 121.454 30.076 122.088 30.076C122.638 30.076 123.139 30.1613 123.592 30.332C124.051 30.5027 124.443 30.7507 124.768 31.076C125.099 31.4013 125.355 31.8013 125.536 32.276C125.723 32.7453 125.816 33.2787 125.816 33.876C125.816 34.0627 125.808 34.2147 125.792 34.332C125.776 34.4493 125.747 34.5427 125.704 34.612C125.662 34.6813 125.603 34.7293 125.528 34.756C125.459 34.7827 125.368 34.796 125.256 34.796H120.472Z" fill="white"/>
</g>
<defs>
<clipPath id="clip0_1415_2648">
<rect width="139" height="52" rx="12" fill="white"/>
</clipPath>
<clipPath id="clip1_1415_2648">
<rect width="26" height="32" fill="white" transform="translate(15 10)"/>
</clipPath>
</defs>
</svg>
