<svg width="172" height="52" viewBox="0 0 172 52" fill="none" xmlns="http://www.w3.org/2000/svg">
<g clip-path="url(#clip0_1415_2651)">
<rect width="172" height="52" rx="12" fill="black"/>
<rect x="0.5" y="0.5" width="171" height="51" rx="11.5" stroke="white" stroke-opacity="0.4"/>
<path d="M12 26C12 17.1632 19.1616 10 28 10C36.8352 10 44 17.1632 44 26C44 34.8368 36.8352 42 28 42C19.1616 42 12 34.8368 12 26V26Z" fill="#FC3F1D"/>
<path d="M30.1909 18.2172H28.787C26.2132 18.2172 24.8595 19.7581 24.8595 22.0299C24.8595 24.598 25.7954 25.8012 27.7174 27.3439L29.3052 28.6082L24.7425 36.6663H21.333L25.4277 29.4577C23.0727 27.4624 21.7508 25.5247 21.7508 22.2472C21.7508 18.1382 24.1742 15.333 28.7703 15.333H33.333V36.6466H30.1909V18.2172Z" fill="white"/>
<path d="M59.72 12.335V19.5H58.75V14.41C58.75 14.2667 58.7533 14.1183 58.76 13.965C58.7667 13.8083 58.7817 13.6433 58.805 13.47C58.7483 13.62 58.6883 13.76 58.625 13.89C58.5617 14.02 58.4967 14.1333 58.43 14.23L55.07 19.195C55.0233 19.2717 54.9633 19.3417 54.89 19.405C54.8167 19.4683 54.7317 19.5 54.635 19.5H53.915V12.335H54.885V17.43C54.885 17.5733 54.8817 17.7233 54.875 17.88C54.8683 18.0333 54.8533 18.1983 54.83 18.375C54.8867 18.2217 54.9467 18.08 55.01 17.95C55.0767 17.82 55.1417 17.705 55.205 17.605L58.565 12.64C58.6117 12.5633 58.6717 12.4933 58.745 12.43C58.8183 12.3667 58.9033 12.335 59 12.335H59.72ZM64.5486 15.115H62.1586V19.5H61.2636V14.435H64.5486V15.115ZM66.2895 18.28C66.4528 18.5 66.6311 18.655 66.8245 18.745C67.0178 18.835 67.2345 18.88 67.4745 18.88C67.9478 18.88 68.3111 18.7117 68.5645 18.375C68.8178 18.0383 68.9445 17.5583 68.9445 16.935C68.9445 16.605 68.9145 16.3217 68.8545 16.085C68.7978 15.8483 68.7145 15.655 68.6045 15.505C68.4945 15.3517 68.3595 15.24 68.1995 15.17C68.0395 15.1 67.8578 15.065 67.6545 15.065C67.3645 15.065 67.1095 15.1317 66.8895 15.265C66.6728 15.3983 66.4728 15.5867 66.2895 15.83V18.28ZM66.2445 15.22C66.4578 14.9567 66.7045 14.745 66.9845 14.585C67.2645 14.425 67.5845 14.345 67.9445 14.345C68.2378 14.345 68.5028 14.4017 68.7395 14.515C68.9761 14.625 69.1778 14.79 69.3445 15.01C69.5111 15.2267 69.6395 15.4967 69.7295 15.82C69.8195 16.1433 69.8645 16.515 69.8645 16.935C69.8645 17.3083 69.8145 17.6567 69.7145 17.98C69.6145 18.3 69.4695 18.5783 69.2795 18.815C69.0928 19.0483 68.8628 19.2333 68.5895 19.37C68.3195 19.5033 68.0145 19.57 67.6745 19.57C67.3645 19.57 67.0978 19.5183 66.8745 19.415C66.6545 19.3083 66.4595 19.1617 66.2895 18.975V21.215H65.3945V14.435H65.9295C66.0561 14.435 66.1345 14.4967 66.1645 14.62L66.2445 15.22ZM73.7352 17.22C73.3252 17.2333 72.9752 17.2667 72.6852 17.32C72.3985 17.37 72.1635 17.4367 71.9802 17.52C71.8002 17.6033 71.6685 17.7017 71.5852 17.815C71.5052 17.9283 71.4652 18.055 71.4652 18.195C71.4652 18.3283 71.4868 18.4433 71.5302 18.54C71.5735 18.6367 71.6318 18.7167 71.7052 18.78C71.7818 18.84 71.8702 18.885 71.9702 18.915C72.0735 18.9417 72.1835 18.955 72.3002 18.955C72.4568 18.955 72.6002 18.94 72.7302 18.91C72.8602 18.8767 72.9818 18.83 73.0952 18.77C73.2118 18.71 73.3218 18.6383 73.4252 18.555C73.5318 18.4717 73.6352 18.3767 73.7352 18.27V17.22ZM70.8602 15.15C71.1402 14.88 71.4418 14.6783 71.7652 14.545C72.0885 14.4117 72.4468 14.345 72.8402 14.345C73.1235 14.345 73.3752 14.3917 73.5952 14.485C73.8152 14.5783 74.0002 14.7083 74.1502 14.875C74.3002 15.0417 74.4135 15.2433 74.4902 15.48C74.5668 15.7167 74.6052 15.9767 74.6052 16.26V19.5H74.2102C74.1235 19.5 74.0568 19.4867 74.0102 19.46C73.9635 19.43 73.9268 19.3733 73.9002 19.29L73.8002 18.81C73.6668 18.9333 73.5368 19.0433 73.4102 19.14C73.2835 19.2333 73.1502 19.3133 73.0102 19.38C72.8702 19.4433 72.7202 19.4917 72.5602 19.525C72.4035 19.5617 72.2285 19.58 72.0352 19.58C71.8385 19.58 71.6535 19.5533 71.4802 19.5C71.3068 19.4433 71.1552 19.36 71.0252 19.25C70.8985 19.14 70.7968 19.0017 70.7202 18.835C70.6468 18.665 70.6102 18.465 70.6102 18.235C70.6102 18.035 70.6652 17.8433 70.7752 17.66C70.8852 17.4733 71.0635 17.3083 71.3102 17.165C71.5568 17.0217 71.8785 16.905 72.2752 16.815C72.6718 16.7217 73.1585 16.6683 73.7352 16.655V16.26C73.7352 15.8667 73.6502 15.57 73.4802 15.37C73.3102 15.1667 73.0618 15.065 72.7352 15.065C72.5152 15.065 72.3302 15.0933 72.1802 15.15C72.0335 15.2033 71.9052 15.265 71.7952 15.335C71.6885 15.4017 71.5952 15.4633 71.5152 15.52C71.4385 15.5733 71.3618 15.6 71.2852 15.6C71.2252 15.6 71.1735 15.585 71.1302 15.555C71.0868 15.5217 71.0502 15.4817 71.0202 15.435L70.8602 15.15ZM80.3059 14.435V19.5H79.4159V16.06C79.4159 15.9933 79.4192 15.9217 79.4259 15.845C79.4325 15.7683 79.4409 15.6917 79.4509 15.615C79.4209 15.6817 79.3909 15.7433 79.3609 15.8C79.3309 15.8567 79.2992 15.9083 79.2659 15.955L76.8209 19.28C76.7842 19.3333 76.7375 19.385 76.6809 19.435C76.6275 19.4817 76.5675 19.505 76.5009 19.505H75.9609V14.44H76.8559V17.88C76.8559 17.9433 76.8525 18.0133 76.8459 18.09C76.8392 18.1633 76.8309 18.2383 76.8209 18.315C76.8509 18.2517 76.8809 18.1933 76.9109 18.14C76.9409 18.0833 76.9709 18.0317 77.0009 17.985L79.4459 14.66C79.4825 14.6067 79.5292 14.5567 79.5859 14.51C79.6425 14.46 79.7042 14.435 79.7709 14.435H80.3059ZM78.1909 13.21C78.3275 13.21 78.4425 13.195 78.5359 13.165C78.6292 13.1317 78.7042 13.08 78.7609 13.01C78.8209 12.94 78.8642 12.85 78.8909 12.74C78.9175 12.63 78.9309 12.495 78.9309 12.335H79.4509C79.5142 12.335 79.5625 12.3633 79.5959 12.42C79.6292 12.4767 79.6459 12.5383 79.6459 12.605C79.6459 12.7717 79.6125 12.9217 79.5459 13.055C79.4792 13.1883 79.3825 13.3033 79.2559 13.4C79.1325 13.4933 78.9809 13.565 78.8009 13.615C78.6209 13.665 78.4175 13.69 78.1909 13.69C77.9642 13.69 77.7609 13.665 77.5809 13.615C77.4009 13.565 77.2475 13.4933 77.1209 13.4C76.9975 13.3033 76.9025 13.1883 76.8359 13.055C76.7692 12.9217 76.7359 12.7717 76.7359 12.605C76.7359 12.5383 76.7525 12.4767 76.7859 12.42C76.8192 12.3633 76.8675 12.335 76.9309 12.335H77.4509C77.4509 12.495 77.4642 12.63 77.4909 12.74C77.5175 12.85 77.5592 12.94 77.6159 13.01C77.6759 13.08 77.7525 13.1317 77.8459 13.165C77.9392 13.195 78.0542 13.21 78.1909 13.21ZM85.9228 15.115H83.9778V19.5H83.0878V15.115H81.1428V14.435H85.9228V15.115ZM89.9563 16.415C89.9563 16.2083 89.9263 16.02 89.8663 15.85C89.8097 15.6767 89.7247 15.5283 89.6113 15.405C89.5013 15.2783 89.3663 15.1817 89.2063 15.115C89.0463 15.045 88.8647 15.01 88.6613 15.01C88.2347 15.01 87.8963 15.135 87.6463 15.385C87.3997 15.6317 87.2463 15.975 87.1863 16.415H89.9563ZM90.6763 18.79C90.5663 18.9233 90.4347 19.04 90.2813 19.14C90.128 19.2367 89.963 19.3167 89.7863 19.38C89.613 19.4433 89.433 19.49 89.2463 19.52C89.0597 19.5533 88.8747 19.57 88.6913 19.57C88.3413 19.57 88.018 19.5117 87.7213 19.395C87.428 19.275 87.173 19.1017 86.9563 18.875C86.743 18.645 86.5763 18.3617 86.4563 18.025C86.3363 17.6883 86.2763 17.3017 86.2763 16.865C86.2763 16.5117 86.3297 16.1817 86.4363 15.875C86.5463 15.5683 86.703 15.3033 86.9063 15.08C87.1097 14.8533 87.358 14.6767 87.6513 14.55C87.9447 14.42 88.2747 14.355 88.6413 14.355C88.9447 14.355 89.2247 14.4067 89.4813 14.51C89.7413 14.61 89.9647 14.7567 90.1513 14.95C90.3413 15.14 90.4897 15.3767 90.5963 15.66C90.703 15.94 90.7563 16.26 90.7563 16.62C90.7563 16.76 90.7413 16.8533 90.7113 16.9C90.6813 16.9467 90.6247 16.97 90.5413 16.97H87.1563C87.1663 17.29 87.2097 17.5683 87.2863 17.805C87.3663 18.0417 87.4763 18.24 87.6163 18.4C87.7563 18.5567 87.923 18.675 88.1163 18.755C88.3097 18.8317 88.5263 18.87 88.7663 18.87C88.9897 18.87 89.1813 18.845 89.3413 18.795C89.5047 18.7417 89.6447 18.685 89.7613 18.625C89.878 18.565 89.9747 18.51 90.0513 18.46C90.1313 18.4067 90.1997 18.38 90.2563 18.38C90.3297 18.38 90.3863 18.4083 90.4263 18.465L90.6763 18.79ZM96.3531 18.875C96.6865 18.875 96.9498 18.7983 97.1431 18.645C97.3365 18.4883 97.4331 18.275 97.4331 18.005C97.4331 17.885 97.4148 17.7767 97.3781 17.68C97.3415 17.58 97.2815 17.4933 97.1981 17.42C97.1148 17.3467 97.0031 17.29 96.8631 17.25C96.7265 17.21 96.5581 17.19 96.3581 17.19H95.2631V18.875H96.3531ZM95.2631 15.035V16.625H96.2381C96.3848 16.625 96.5198 16.605 96.6431 16.565C96.7698 16.5217 96.8781 16.4633 96.9681 16.39C97.0581 16.3133 97.1281 16.2233 97.1781 16.12C97.2281 16.0133 97.2531 15.8967 97.2531 15.77C97.2531 15.6767 97.2365 15.5867 97.2031 15.5C97.1698 15.41 97.1131 15.3317 97.0331 15.265C96.9531 15.195 96.8481 15.14 96.7181 15.1C96.5881 15.0567 96.4281 15.035 96.2381 15.035H95.2631ZM96.2631 14.435C96.5765 14.435 96.8448 14.4667 97.0681 14.53C97.2915 14.5933 97.4748 14.68 97.6181 14.79C97.7615 14.8967 97.8665 15.0233 97.9331 15.17C97.9998 15.3167 98.0331 15.4733 98.0331 15.64C98.0331 15.75 98.0181 15.865 97.9881 15.985C97.9581 16.105 97.9048 16.22 97.8281 16.33C97.7548 16.44 97.6531 16.54 97.5231 16.63C97.3965 16.7167 97.2365 16.785 97.0431 16.835C97.4298 16.9017 97.7281 17.0367 97.9381 17.24C98.1481 17.44 98.2531 17.705 98.2531 18.035C98.2531 18.2817 98.2031 18.4967 98.1031 18.68C98.0065 18.86 97.8715 19.0117 97.6981 19.135C97.5281 19.2583 97.3281 19.35 97.0981 19.41C96.8681 19.47 96.6215 19.5 96.3581 19.5H94.4081V14.435H96.2631Z" fill="white"/>
<path d="M60.24 31.796V28.876H58.592C58.2293 28.876 57.9333 28.916 57.704 28.996C57.48 29.076 57.3013 29.1853 57.168 29.324C57.04 29.4573 56.952 29.612 56.904 29.788C56.856 29.9587 56.832 30.1373 56.832 30.324C56.832 30.5373 56.856 30.7347 56.904 30.916C56.952 31.0973 57.04 31.2547 57.168 31.388C57.3013 31.516 57.48 31.6173 57.704 31.692C57.9333 31.7613 58.2293 31.796 58.592 31.796H60.24ZM62.944 38.5H60.24V33.828H59.4C59.1547 33.828 58.928 33.884 58.72 33.996C58.5173 34.1027 58.328 34.3133 58.152 34.628L56.52 37.596C56.3547 37.8733 56.1333 38.0947 55.856 38.26C55.5787 38.42 55.2453 38.5 54.856 38.5H52.808L55.192 34.524C55.3627 34.2413 55.5547 34.004 55.768 33.812C55.9867 33.62 56.24 33.4627 56.528 33.34C56.1227 33.2173 55.7707 33.0573 55.472 32.86C55.1733 32.6573 54.9253 32.428 54.728 32.172C54.536 31.9107 54.392 31.6253 54.296 31.316C54.2053 31.0067 54.16 30.6813 54.16 30.34C54.16 29.8387 54.2587 29.3747 54.456 28.948C54.6587 28.5213 54.9493 28.1533 55.328 27.844C55.7067 27.5293 56.1707 27.284 56.72 27.108C57.2693 26.932 57.8933 26.844 58.592 26.844H62.944V38.5ZM72.4731 30.204V38.5H69.9931V34.996H67.4331V38.5H64.9531V30.204H67.4331V33.22H69.9931V30.204H72.4731ZM79.6922 36.796V32.036H78.1642C78.1162 32.6227 78.0549 33.1587 77.9802 33.644C77.9109 34.1293 77.8309 34.5667 77.7403 34.956C77.6496 35.3453 77.5482 35.692 77.4362 35.996C77.3296 36.3 77.2149 36.5667 77.0922 36.796H79.6922ZM83.6202 36.724V40.516C83.6202 40.7293 83.5536 40.9 83.4202 41.028C83.2923 41.156 83.1269 41.22 82.9243 41.22H81.3643V38.5H75.8362V40.548C75.8362 40.6333 75.8229 40.716 75.7962 40.796C75.7696 40.876 75.7269 40.948 75.6682 41.012C75.6149 41.076 75.5456 41.1267 75.4602 41.164C75.3749 41.2013 75.2736 41.22 75.1562 41.22H73.5802V36.796H73.7802C73.9616 36.796 74.1376 36.7773 74.3082 36.74C74.4842 36.6973 74.6496 36.604 74.8042 36.46C74.9642 36.316 75.1109 36.1027 75.2442 35.82C75.3829 35.5373 75.5082 35.1533 75.6202 34.668C75.7376 34.1773 75.8389 33.5693 75.9242 32.844C76.0149 32.1133 76.0869 31.2333 76.1402 30.204H82.0922V36.724H83.6202ZM89.8706 33.356C89.8706 33.1587 89.844 32.9667 89.7906 32.78C89.7426 32.5933 89.66 32.428 89.5426 32.284C89.4306 32.1347 89.2813 32.0147 89.0946 31.924C88.908 31.8333 88.6813 31.788 88.4146 31.788C87.9453 31.788 87.5773 31.924 87.3106 32.196C87.044 32.4627 86.868 32.8493 86.7826 33.356H89.8706ZM86.7506 34.796C86.8306 35.4893 87.0413 35.9933 87.3826 36.308C87.724 36.6173 88.164 36.772 88.7026 36.772C88.9906 36.772 89.2386 36.7373 89.4466 36.668C89.6546 36.5987 89.8386 36.5213 89.9986 36.436C90.164 36.3507 90.3133 36.2733 90.4466 36.204C90.5853 36.1347 90.7293 36.1 90.8786 36.1C91.076 36.1 91.2253 36.172 91.3266 36.316L92.0466 37.204C91.7906 37.4973 91.5133 37.7373 91.2146 37.924C90.9213 38.1053 90.6173 38.2493 90.3026 38.356C89.9933 38.4573 89.6813 38.5267 89.3666 38.564C89.0573 38.6067 88.7613 38.628 88.4786 38.628C87.8973 38.628 87.3506 38.5347 86.8386 38.348C86.332 38.156 85.8866 37.8733 85.5026 37.5C85.124 37.1267 84.8226 36.6627 84.5986 36.108C84.38 35.5533 84.2706 34.908 84.2706 34.172C84.2706 33.6173 84.364 33.092 84.5506 32.596C84.7426 32.1 85.0146 31.6653 85.3666 31.292C85.724 30.9187 86.1533 30.6227 86.6546 30.404C87.1613 30.1853 87.732 30.076 88.3666 30.076C88.916 30.076 89.4173 30.1613 89.8706 30.332C90.3293 30.5027 90.7213 30.7507 91.0466 31.076C91.3773 31.4013 91.6333 31.8013 91.8146 32.276C92.0013 32.7453 92.0946 33.2787 92.0946 33.876C92.0946 34.0627 92.0866 34.2147 92.0706 34.332C92.0546 34.4493 92.0253 34.5427 91.9826 34.612C91.94 34.6813 91.8813 34.7293 91.8066 34.756C91.7373 34.7827 91.6466 34.796 91.5346 34.796H86.7506ZM98.3756 30.828C98.4983 30.6413 98.661 30.492 98.8636 30.38C99.0716 30.2627 99.2876 30.204 99.5116 30.204H101.472L99.7276 33.22C99.5943 33.444 99.4583 33.6253 99.3196 33.764C99.181 33.9027 99.013 34.0093 98.8156 34.084C99.0876 34.1747 99.309 34.3027 99.4796 34.468C99.6503 34.6333 99.8023 34.8413 99.9356 35.092L101.672 38.5H99.9596C99.741 38.5 99.549 38.484 99.3836 38.452C99.2236 38.4147 99.0796 38.3613 98.9516 38.292C98.8236 38.2227 98.7116 38.1373 98.6156 38.036C98.5196 37.9347 98.4316 37.8173 98.3516 37.684L97.4716 35.596C97.3916 35.4093 97.2743 35.2733 97.1196 35.188C96.9703 35.0973 96.797 35.052 96.5996 35.052H95.9756V38.5H93.4956V30.204H95.9756V33.492H96.4876C96.7116 33.492 96.877 33.4573 96.9836 33.388C97.0956 33.3133 97.1943 33.1907 97.2796 33.02L98.3756 30.828ZM108.533 32.172C108.458 32.2627 108.386 32.3347 108.317 32.388C108.248 32.4413 108.149 32.468 108.021 32.468C107.898 32.468 107.786 32.4387 107.685 32.38C107.589 32.3213 107.48 32.2573 107.357 32.188C107.234 32.1133 107.09 32.0467 106.925 31.988C106.76 31.9293 106.554 31.9 106.309 31.9C106.005 31.9 105.741 31.956 105.517 32.068C105.298 32.18 105.117 32.34 104.973 32.548C104.829 32.756 104.722 33.012 104.653 33.316C104.584 33.6147 104.549 33.9533 104.549 34.332C104.549 35.1267 104.701 35.7373 105.005 36.164C105.314 36.5907 105.738 36.804 106.277 36.804C106.565 36.804 106.792 36.7693 106.957 36.7C107.128 36.6253 107.272 36.5453 107.389 36.46C107.506 36.3693 107.613 36.2867 107.709 36.212C107.81 36.1373 107.936 36.1 108.085 36.1C108.282 36.1 108.432 36.172 108.533 36.316L109.253 37.204C108.997 37.4973 108.728 37.7373 108.445 37.924C108.162 38.1053 107.872 38.2493 107.573 38.356C107.28 38.4573 106.984 38.5267 106.685 38.564C106.386 38.6067 106.096 38.628 105.813 38.628C105.306 38.628 104.821 38.532 104.357 38.34C103.898 38.148 103.493 37.8707 103.141 37.508C102.794 37.14 102.517 36.6893 102.309 36.156C102.106 35.6227 102.005 35.0147 102.005 34.332C102.005 33.7347 102.093 33.1773 102.269 32.66C102.45 32.1373 102.714 31.6867 103.061 31.308C103.413 30.924 103.845 30.6227 104.357 30.404C104.874 30.1853 105.472 30.076 106.149 30.076C106.8 30.076 107.37 30.18 107.861 30.388C108.352 30.596 108.794 30.9 109.189 31.3L108.533 32.172ZM124.705 26.844V38.5H121.985V31.972C121.985 31.668 121.993 31.348 122.009 31.012C122.031 30.6707 122.068 30.308 122.121 29.924C121.999 30.2653 121.865 30.5827 121.721 30.876C121.577 31.164 121.436 31.4173 121.297 31.636L117.753 37.692C117.695 37.788 117.623 37.884 117.537 37.98C117.457 38.076 117.367 38.164 117.265 38.244C117.164 38.3187 117.055 38.38 116.937 38.428C116.82 38.476 116.697 38.5 116.569 38.5H114.529V26.844H117.249V33.364C117.249 33.668 117.241 33.9907 117.225 34.332C117.209 34.668 117.172 35.028 117.113 35.412C117.236 35.076 117.369 34.764 117.513 34.476C117.657 34.1827 117.799 33.9267 117.937 33.708L121.481 27.652C121.54 27.556 121.609 27.46 121.689 27.364C121.775 27.268 121.868 27.1827 121.969 27.108C122.071 27.028 122.18 26.964 122.297 26.916C122.415 26.868 122.537 26.844 122.665 26.844H124.705ZM132.554 31.98H129.194V38.5H126.714V30.204H132.554V31.98ZM136.198 36.244C136.384 36.4467 136.587 36.5907 136.806 36.676C137.024 36.7613 137.254 36.804 137.494 36.804C137.723 36.804 137.934 36.7587 138.126 36.668C138.318 36.5773 138.483 36.4333 138.622 36.236C138.766 36.0333 138.878 35.772 138.958 35.452C139.038 35.132 139.078 34.7427 139.078 34.284C139.078 33.8467 139.046 33.4787 138.982 33.18C138.918 32.8813 138.827 32.6413 138.71 32.46C138.598 32.2733 138.462 32.14 138.302 32.06C138.142 31.98 137.963 31.94 137.766 31.94C137.403 31.94 137.104 32.0067 136.87 32.14C136.635 32.2733 136.411 32.468 136.198 32.724V36.244ZM136.046 31.228C136.371 30.8813 136.739 30.5987 137.15 30.38C137.566 30.156 138.059 30.044 138.63 30.044C139.062 30.044 139.462 30.14 139.83 30.332C140.198 30.524 140.515 30.8013 140.782 31.164C141.048 31.5267 141.256 31.972 141.406 32.5C141.56 33.0227 141.638 33.6173 141.638 34.284C141.638 34.908 141.55 35.484 141.374 36.012C141.203 36.54 140.96 36.9987 140.646 37.388C140.336 37.7773 139.963 38.0813 139.526 38.3C139.094 38.5187 138.614 38.628 138.086 38.628C137.654 38.628 137.291 38.5667 136.998 38.444C136.704 38.3213 136.438 38.156 136.198 37.948V41.132H133.718V30.204H135.254C135.563 30.204 135.766 30.3427 135.862 30.62L136.046 31.228ZM147.345 35.124C146.849 35.1453 146.441 35.188 146.121 35.252C145.801 35.316 145.548 35.396 145.361 35.492C145.174 35.588 145.044 35.6973 144.969 35.82C144.9 35.9427 144.865 36.076 144.865 36.22C144.865 36.5027 144.942 36.7027 145.097 36.82C145.252 36.932 145.478 36.988 145.777 36.988C146.097 36.988 146.377 36.932 146.617 36.82C146.857 36.708 147.1 36.5267 147.345 36.276V35.124ZM142.881 31.356C143.382 30.9133 143.937 30.5853 144.545 30.372C145.158 30.1533 145.814 30.044 146.513 30.044C147.014 30.044 147.465 30.1267 147.865 30.292C148.27 30.452 148.612 30.6787 148.889 30.972C149.172 31.26 149.388 31.604 149.537 32.004C149.686 32.404 149.761 32.8413 149.761 33.316V38.5H148.625C148.39 38.5 148.212 38.468 148.089 38.404C147.972 38.34 147.873 38.2067 147.793 38.004L147.617 37.548C147.409 37.724 147.209 37.8787 147.017 38.012C146.825 38.1453 146.625 38.26 146.417 38.356C146.214 38.4467 145.996 38.5133 145.761 38.556C145.532 38.604 145.276 38.628 144.993 38.628C144.614 38.628 144.27 38.58 143.961 38.484C143.652 38.3827 143.388 38.236 143.169 38.044C142.956 37.852 142.79 37.6147 142.673 37.332C142.556 37.044 142.497 36.7133 142.497 36.34C142.497 36.0413 142.572 35.74 142.721 35.436C142.87 35.1267 143.129 34.8467 143.497 34.596C143.865 34.34 144.361 34.1267 144.985 33.956C145.609 33.7853 146.396 33.6893 147.345 33.668V33.316C147.345 32.8307 147.244 32.4813 147.041 32.268C146.844 32.0493 146.561 31.94 146.193 31.94C145.9 31.94 145.66 31.972 145.473 32.036C145.286 32.1 145.118 32.172 144.969 32.252C144.825 32.332 144.684 32.404 144.545 32.468C144.406 32.532 144.241 32.564 144.049 32.564C143.878 32.564 143.734 32.5213 143.617 32.436C143.5 32.3507 143.404 32.2493 143.329 32.132L142.881 31.356ZM159.442 38.5H157.058C156.882 38.5 156.738 38.4573 156.626 38.372C156.52 38.2867 156.434 38.1853 156.37 38.068L154.89 35.524C154.864 35.6147 154.832 35.7 154.794 35.78C154.757 35.86 154.717 35.9347 154.674 36.004L153.458 38.068C153.384 38.1747 153.296 38.2733 153.194 38.364C153.093 38.4547 152.962 38.5 152.802 38.5H150.594L153.378 34.212L150.706 30.204H153.09C153.266 30.204 153.394 30.228 153.474 30.276C153.56 30.3187 153.634 30.3933 153.698 30.5L155.178 32.956C155.21 32.86 155.25 32.7667 155.298 32.676C155.346 32.58 155.4 32.484 155.458 32.388L156.514 30.54C156.589 30.4227 156.666 30.3373 156.746 30.284C156.832 30.2307 156.936 30.204 157.058 30.204H159.33L156.658 34.1L159.442 38.5Z" fill="white"/>
</g>
<defs>
<clipPath id="clip0_1415_2651">
<rect width="172" height="52" rx="12" fill="white"/>
</clipPath>
</defs>
</svg>
