<svg width="113" height="38" viewBox="0 0 113 38" fill="none" xmlns="http://www.w3.org/2000/svg">
<path fill-rule="evenodd" clip-rule="evenodd" d="M14.4608 1.76459C14.4608 1.76459 15.3146 1.05147 15.8616 0.59453C17.0822 -0.0344327 17.6429 0.0935869 17.9008 0.113605C18.1588 0.133615 18.7146 0.170724 20.3341 0.113605C21.9537 0.056481 22.8767 0.661774 23.7499 0.486838C24.1485 0.40697 24.3994 0.200172 24.6176 0.154587C26.1632 -0.168229 26.2414 0.0186048 26.2128 0.677018C26.1914 0.823597 26.1672 0.947735 26.1449 1.06199C26.0939 1.32418 26.0531 1.53433 26.0785 1.84425C26.1358 2.54598 26.1523 3.02361 25.7742 3.46015C25.7742 3.46015 25.2614 4.17373 24.3213 5.03252C24.0734 5.25897 23.9745 5.355 23.8723 5.4473C23.6739 5.62633 23.4629 5.79126 22.1259 6.86682C20.0998 8.49683 18.5141 10.9508 18.5141 13.8135C18.5141 16.3326 18.8868 17.3345 20.9224 19.9968C21.7825 21.1132 22.6712 22.4014 22.9006 22.8881C23.5027 24.119 23.9614 26.495 23.9614 28.413V30.0733L25.7676 31.1038C28.2619 32.5638 28.864 32.6783 29.6095 31.7909C30.2688 31.0466 31.989 30.5314 32.5911 30.9035C33.1645 31.2756 33.003 34.2973 31.8443 36.2319L30.9283 37.7738L26.5131 37.8597C22.5852 37.917 21.9258 37.8597 20.4636 37.3158C20.2376 37.2321 20.0307 37.1491 19.8363 37.071C18.5014 36.535 17.7538 36.2349 15.4424 37.5816C13.7221 38.2687 9.39692 38.0601 6.73055 37.3158C6.53069 37.2622 6.38162 37.2303 6.2358 37.199C5.79048 37.1036 5.37555 37.0147 3.63712 36.3372C3.41154 36.2979 3.2722 36.3465 3.11126 36.4026C2.9608 36.4551 2.79145 36.5141 2.5151 36.5141C0.838842 36.5141 0.574427 36.2021 0.343557 35.9297C0.322356 35.9047 0.301438 35.8799 0.279737 35.8559C-0.121644 35.4551 -0.121643 35.3692 0.480435 34.7966C0.853145 34.4818 1.22586 34.1955 1.34054 34.1955C1.88527 34.1955 1.79926 33.1077 1.02517 31.0179C-0.408346 27.1821 -0.0643032 24.0331 2.22932 19.4815C4.32224 15.3307 10.7731 5.02513 11.9199 3.99458C12.2353 3.70831 12.4933 3.16441 12.4933 2.79227C12.4933 1.56133 13.4309 0.868692 13.8426 0.99302C14.2543 1.11735 14.2525 1.39893 14.4608 1.76459ZM22.2666 5.07457C22.2204 5.17498 22.1789 5.26475 22.1259 5.3353C21.8106 5.82195 21.3455 5.99735 20.4854 5.99735C18.6635 5.77226 17.3378 4.94775 17.0128 4.29272C17.0128 4.29272 16.7747 3.33184 16.2403 2.6582C16.11 2.49391 15.9852 2.38424 15.8901 2.3007C15.5954 2.04168 15.2431 1.71545 16.2403 1.10938C17.5591 0.307839 18.7488 0.59453 20.3341 0.59453C21.9195 0.59453 22.9714 1.06606 23.7499 0.871535C24.5284 0.677018 24.4637 0.598455 24.8937 0.486838C25.2726 0.388471 25.7276 0.288362 25.8019 0.377359C25.8731 0.46268 25.842 0.628796 25.7965 0.871535C25.7677 1.02475 25.7333 1.2085 25.7152 1.4217C25.6973 1.63249 25.7219 1.81111 25.7451 1.97953C25.7929 2.32762 25.8348 2.63213 25.4839 3.0869C25.2045 3.44893 24.6195 3.82475 23.98 3.92912C22.6984 4.13827 22.4458 4.68603 22.2666 5.07457ZM15.905 3.45068C16.2491 3.88007 16.4733 4.22538 16.6266 4.60493C16.6266 5.20609 19.0028 6.5095 20.3217 6.5095C21.6405 6.5095 21.8613 6.38899 22.411 5.78643C22.5544 5.62917 22.6314 5.44964 22.708 5.27123C22.7905 5.07889 22.8725 4.88785 23.0366 4.72737C23.4172 4.35497 23.9503 4.41456 23.9503 4.41456C24.2923 4.34848 24.8962 4.12837 25.1599 3.78389C25.1599 3.78389 25.0484 3.9964 24.9583 4.09251C24.7212 4.34525 24.6121 4.42839 24.4675 4.5387C24.4009 4.58945 24.3268 4.64595 24.2291 4.72737C23.4843 5.34875 22.2608 6.27842 22.2608 6.27842L20.4854 7.66498C18.9068 9.236 17.5679 11.7524 17.5679 13.7276C17.5679 15.5883 18.4281 17.5636 20.6356 20.6838C21.5244 21.9434 22.4418 23.4892 22.6426 24.119C23.1299 25.4645 23.56 29.329 23.2447 29.329C23.1299 29.329 22.1838 28.871 21.123 28.3271C20.0909 27.7832 18.2273 26.8957 17.0232 26.3233C14.3855 25.1209 12.3626 22.821 10.677 17.8864C10.6248 17.7334 10.1137 18.136 11.0884 21.0559C11.8339 23.3175 13.296 25.5217 14.6722 26.4377L15.7044 27.1534L13.9268 27.5256C11.9485 27.9263 8.88086 29.0427 7.33262 29.9302C6.78789 30.245 6.5872 30.4168 6.90257 30.3309C9.13889 29.5867 14.3855 28.4416 16.3924 28.2412C19.3454 27.955 20.5783 28.2985 23.646 30.3023C27.6599 32.8787 28.9787 33.2795 30.0968 32.2203C30.4408 31.9054 31.0429 31.5619 31.5017 31.476C32.2471 31.2756 32.2758 31.3043 32.2758 32.4779C32.2758 33.1363 32.0178 34.2814 31.6737 35.0543L31.0716 36.457L29.2367 36.6288C26.7997 36.915 25.5669 36.686 21.6391 35.3406C17.9992 33.7803 16.5931 33.9379 13.124 34.768C8.88086 35.77 6.90257 35.3978 5.61241 33.2795C4.78097 31.9054 4.89565 30.9035 6.04246 29.329C6.5872 28.5847 7.04592 27.8404 7.04592 27.6687C7.04592 27.5256 6.64454 26.5522 6.18581 25.5217C5.35437 23.7755 5.32571 23.6323 5.69842 22.5159C5.92778 21.8861 6.67321 20.4835 7.38996 19.3956C9.2249 16.6475 9.3682 16.304 11.1744 10.8363C12.0919 8.14541 13.168 5.63069 13.4547 5.17267C13.5159 5.07237 13.5884 4.92367 13.6661 4.76455C13.8272 4.43411 14.0103 4.05871 14.1599 3.97846C14.2656 3.92169 14.2724 4.00191 14.281 4.1059C14.2927 4.24577 14.308 4.42866 14.5727 4.37911C14.8359 4.32985 14.7915 4.11778 14.7575 3.95599C14.732 3.83402 14.7124 3.74062 14.8352 3.76711C15.0479 3.81301 15.4379 4.55516 15.6149 5.08045C15.8286 5.7147 16.0625 6.01545 16.0625 5.78643C16.0625 5.55743 15.9302 4.63693 15.6149 3.94989C14.6155 2.6582 15.0163 2.33424 15.905 3.45068ZM13.2277 2.08035C13.2536 2.01107 13.28 1.94052 13.2989 1.87529C13.3544 1.68462 13.4596 1.56312 13.6582 1.57241C13.8449 1.58113 13.9246 1.74563 13.9036 1.93112C13.8948 2.01005 13.8386 2.03596 13.7752 2.06525C13.7358 2.08343 13.6937 2.10292 13.6582 2.1372C13.5891 2.20395 13.5372 2.27432 13.492 2.3358C13.393 2.47028 13.3252 2.56222 13.1766 2.48066C13.0948 2.43581 13.1596 2.26246 13.2277 2.08035Z" fill="black"/>
<path d="M15.905 3.45068C16.2491 3.88007 16.4733 4.22538 16.6266 4.60493C16.6266 5.20609 19.0028 6.5095 20.3217 6.5095C21.6405 6.5095 21.8613 6.38899 22.411 5.78643C22.5544 5.62917 22.6314 5.44964 22.708 5.27123C22.7905 5.07889 22.8725 4.88785 23.0366 4.72737C23.4172 4.35497 23.9503 4.41456 23.9503 4.41456C24.2923 4.34848 24.8962 4.12837 25.1599 3.78389C25.1599 3.78389 25.0484 3.9964 24.9583 4.09251C24.7212 4.34525 24.6121 4.42839 24.4675 4.5387C24.4009 4.58945 24.3268 4.64595 24.2291 4.72737C23.4843 5.34875 22.2608 6.27842 22.2608 6.27842L20.4854 7.66498C18.9068 9.236 17.5679 11.7524 17.5679 13.7276C17.5679 15.5883 18.4281 17.5636 20.6356 20.6838C21.5244 21.9434 22.4418 23.4892 22.6426 24.119C23.1299 25.4645 23.56 29.329 23.2447 29.329C23.1299 29.329 22.1838 28.871 21.123 28.3271C20.0909 27.7832 18.2273 26.8957 17.0232 26.3233C14.3855 25.1209 12.3626 22.821 10.677 17.8864C10.6248 17.7334 10.1137 18.136 11.0884 21.0559C11.8339 23.3175 13.296 25.5217 14.6722 26.4377L15.7044 27.1534L13.9268 27.5256C11.9485 27.9263 8.88086 29.0427 7.33262 29.9302C6.78789 30.245 6.5872 30.4168 6.90257 30.3309C9.13889 29.5867 14.3855 28.4416 16.3924 28.2412C19.3454 27.955 20.5783 28.2985 23.646 30.3023C27.6599 32.8787 28.9787 33.2795 30.0968 32.2203C30.4408 31.9054 31.0429 31.5619 31.5017 31.476C32.2471 31.2756 32.2758 31.3043 32.2758 32.4779C32.2758 33.1363 32.0178 34.2814 31.6737 35.0543L31.0716 36.457L29.2367 36.6288C26.7997 36.915 25.5669 36.686 21.6391 35.3406C17.9992 33.7803 16.5931 33.9379 13.124 34.768C8.88086 35.77 6.90257 35.3978 5.61241 33.2795C4.78097 31.9054 4.89565 30.9035 6.04246 29.329C6.5872 28.5847 7.04592 27.8404 7.04592 27.6687C7.04592 27.5256 6.64454 26.5522 6.18581 25.5217C5.35437 23.7755 5.32571 23.6323 5.69842 22.5159C5.92778 21.8861 6.67321 20.4835 7.38996 19.3956C9.2249 16.6475 9.3682 16.304 11.1744 10.8363C12.0919 8.14541 13.168 5.63069 13.4547 5.17267C13.5159 5.07237 13.5884 4.92367 13.6661 4.76455C13.8272 4.43411 14.0103 4.05871 14.1599 3.97846C14.2656 3.92169 14.2724 4.00191 14.281 4.1059C14.2927 4.24577 14.308 4.42866 14.5727 4.37911C14.8359 4.32985 14.7915 4.11778 14.7575 3.95599C14.732 3.83402 14.7124 3.74062 14.8352 3.76711C15.0479 3.81301 15.4379 4.55516 15.6149 5.08045C15.8286 5.7147 16.0625 6.01545 16.0625 5.78643C16.0625 5.55743 15.9302 4.63693 15.6149 3.94989C14.6155 2.6582 15.0163 2.33424 15.905 3.45068Z" fill="#FED106"/>
<path d="M22.1259 5.3353C21.8106 5.82195 21.3455 5.99735 20.4854 5.99735C18.6635 5.77226 17.3378 4.94775 17.0128 4.29272C17.0128 4.29272 16.7747 3.33184 16.2403 2.6582C16.11 2.49391 15.9852 2.38424 15.8901 2.3007C15.5954 2.04168 15.2431 1.71545 16.2403 1.10938C17.5591 0.307839 18.7488 0.59453 20.3341 0.59453C21.9195 0.59453 22.9714 1.06606 23.7499 0.871535C24.5284 0.677018 24.4637 0.598455 24.8937 0.486838C25.2726 0.388471 25.7276 0.288362 25.8019 0.377359C25.8731 0.46268 25.842 0.628796 25.7965 0.871535C25.7677 1.02475 25.7333 1.2085 25.7152 1.4217C25.6973 1.63249 25.7219 1.81111 25.7451 1.97953C25.7929 2.32762 25.8348 2.63213 25.4839 3.0869C25.2045 3.44893 24.6195 3.82475 23.98 3.92912C22.6984 4.13827 22.4458 4.68603 22.2666 5.07457C22.2204 5.17498 22.1789 5.26475 22.1259 5.3353Z" fill="#FED106"/>
<path d="M13.9036 1.93112C13.9246 1.74563 13.8449 1.58113 13.6582 1.57241C13.4596 1.56312 13.3544 1.68462 13.2989 1.87529C13.28 1.94052 13.2536 2.01107 13.2277 2.08035C13.1596 2.26246 13.0948 2.43581 13.1766 2.48066C13.3252 2.56222 13.393 2.47028 13.492 2.3358C13.5372 2.27432 13.5891 2.20395 13.6582 2.1372C13.6937 2.10292 13.7358 2.08343 13.7752 2.06525C13.8386 2.03596 13.8948 2.01005 13.9036 1.93112Z" fill="#FED106"/>
<path d="M20.5652 1.6624C20.3358 2.17768 20.8805 2.54982 21.2819 2.14905C21.5973 1.83416 21.3679 1.233 20.9379 1.233C20.8232 1.233 20.6512 1.43338 20.5652 1.6624Z" fill="black"/>
<path d="M41.826 12.7987V8.5006H45.3342C45.9308 8.5006 46.4379 8.7091 46.8556 9.1261C47.2792 9.54905 47.491 10.0554 47.491 10.6452C47.491 11.2409 47.2792 11.7472 46.8556 12.1642C46.4379 12.5872 45.9308 12.7987 45.3342 12.7987H41.826ZM41.826 3.25537H44.9315C45.4267 3.25537 45.8503 3.43409 46.2023 3.79151C46.5602 4.14298 46.7392 4.56594 46.7392 5.06037C46.7392 5.56077 46.5602 5.9867 46.2023 6.33817C45.8503 6.68964 45.4267 6.86538 44.9315 6.86538H41.826V3.25537ZM47.3567 7.45513C48.0488 6.77006 48.3859 5.95394 48.368 5.00676C48.3501 4.0715 48.007 3.27622 47.3388 2.62094C46.6706 1.9597 45.8682 1.62908 44.9315 1.62908H40.3136C40.236 1.62908 40.1973 1.6678 40.1973 1.74525V14.3088C40.1973 14.3862 40.236 14.4249 40.3136 14.4249H45.2536C46.2918 14.4249 47.1867 14.0705 47.9384 13.3616C48.6961 12.6527 49.0899 11.7859 49.1197 10.7613C49.1376 10.0763 48.9855 9.43885 48.6633 8.84909C48.3471 8.27125 47.9116 7.8066 47.3567 7.45513Z" fill="#FED106"/>
<path d="M52.2789 9.99286C52.3683 9.37928 52.6309 8.87888 53.0664 8.49167C53.5019 8.0985 54.021 7.90191 54.6236 7.90191C55.1963 7.90191 55.6885 8.0568 56.1002 8.36657C56.5119 8.67038 56.7833 9.07844 56.9146 9.59075L52.2789 9.99286ZM54.6504 6.40072C53.5586 6.39477 52.6338 6.779 51.8761 7.55342C51.1184 8.32785 50.7396 9.28098 50.7396 10.4128C50.7396 11.5209 51.1333 12.4651 51.9209 13.2454C52.7084 14.0318 53.6541 14.4249 54.7578 14.4249C55.4559 14.4249 56.1092 14.2552 56.7177 13.9156C57.3322 13.5761 57.8215 13.1114 58.1854 12.5216C58.2272 12.4502 58.2123 12.3966 58.1407 12.3608L57.0399 11.7174C56.9743 11.6817 56.9206 11.6966 56.8788 11.7621C56.6521 12.1195 56.3478 12.4025 55.966 12.611C55.5901 12.8135 55.1874 12.9148 54.7578 12.9148C54.2686 12.9148 53.8181 12.7838 53.4065 12.5216C53.0008 12.2595 52.6965 11.914 52.4936 11.4851L58.4002 10.9758C58.4718 10.9698 58.5076 10.9311 58.5076 10.8596V10.3503C58.5076 9.27801 58.1317 8.35465 57.38 7.58023C56.6282 6.79985 55.7184 6.40668 54.6504 6.40072Z" fill="#FED106"/>
<path d="M62.9822 12.9148C62.4751 12.9148 62.1291 12.8106 61.9441 12.6021C61.8188 12.4591 61.7562 12.2268 61.7562 11.9051C61.7562 11.6549 61.8367 11.4583 61.9978 11.3153C62.3737 10.9817 63.1016 10.8149 64.1814 10.8149C64.4261 10.8149 64.6826 10.8239 64.9511 10.8417C64.8556 11.6519 64.5693 12.2298 64.092 12.5753C63.913 12.7004 63.7131 12.7927 63.4924 12.8523C63.3253 12.894 63.1553 12.9148 62.9822 12.9148ZM66.4814 10.5201C66.4874 10.4188 66.4904 10.3205 66.4904 10.2252C66.5023 9.55203 66.4665 9.01589 66.383 8.61677C66.2637 8.0151 66.028 7.53257 65.676 7.16919C65.1689 6.65092 64.441 6.39179 63.4924 6.39179C62.8241 6.39179 62.2126 6.52284 61.6577 6.78496C61.4549 6.88027 61.267 6.9875 61.0939 7.10664C61.0223 7.1543 60.9567 7.20493 60.897 7.25855C60.8493 7.29429 60.8046 7.33301 60.7628 7.37471C60.7031 7.42832 60.7031 7.48492 60.7628 7.54449L61.7114 8.41125C61.7592 8.4589 61.8099 8.4589 61.8636 8.41125C61.9232 8.36359 61.9919 8.31593 62.0694 8.26828C62.1768 8.20275 62.2902 8.14616 62.4095 8.0985C62.7376 7.96149 63.0986 7.89298 63.4924 7.89298C64.0174 7.89298 64.3843 8.00319 64.5931 8.2236C64.796 8.4321 64.9183 8.80144 64.96 9.33162C63.0926 9.21248 61.7741 9.49544 61.0044 10.1805C60.4973 10.6273 60.2438 11.2022 60.2438 11.9051C60.2438 12.6914 60.4854 13.308 60.9686 13.7548C61.4519 14.1956 62.1231 14.416 62.9822 14.416C63.8175 14.416 64.5394 14.1628 65.148 13.6565C65.1718 13.8828 65.1987 14.1062 65.2285 14.3267C65.2405 14.3922 65.2792 14.4249 65.3449 14.4249H66.6336C66.7231 14.4249 66.7618 14.3803 66.7499 14.2909C66.7201 14.0884 66.6932 13.8828 66.6694 13.6743C66.6336 13.3944 66.6037 13.1203 66.5799 12.8523C66.5083 12.1255 66.4725 11.503 66.4725 10.9847C66.4725 10.8834 66.4755 10.7286 66.4814 10.5201Z" fill="#FED106"/>
<path d="M70.4907 6.48114C70.4907 6.4037 70.4519 6.36498 70.3744 6.36498H69.0767C68.9992 6.36498 68.9604 6.4037 68.9604 6.48114V14.3088C68.9604 14.3862 68.9992 14.4249 69.0767 14.4249H70.3744C70.4519 14.4249 70.4907 14.3862 70.4907 14.3088V9.46565C70.5444 9.03079 70.7353 8.6674 71.0635 8.3755C71.3916 8.07765 71.7764 7.92872 72.2179 7.92872C72.3015 7.92872 72.382 7.93468 72.4596 7.94659C72.5312 7.95851 72.5759 7.92872 72.5938 7.85724L72.8533 6.60624C72.8653 6.5288 72.8325 6.48412 72.7549 6.47221C72.5819 6.44242 72.4029 6.42753 72.2179 6.42753C71.5975 6.42753 71.0217 6.59433 70.4907 6.92793V6.48114Z" fill="#FED106"/>
<path d="M79.0015 11.8783C79.0015 11.8485 78.9956 11.8068 78.9836 11.7532L78.9657 11.6281C78.8941 11.2826 78.739 10.9728 78.5004 10.6988C78.3214 10.4843 78.0857 10.2877 77.7934 10.109C77.6024 9.98392 77.3668 9.85882 77.0864 9.73372L76.7731 9.59969L76.6121 9.51927L76.5047 9.47459L76.4331 9.43885C76.1944 9.33758 76.0065 9.24822 75.8693 9.17078C75.7082 9.07546 75.5859 8.98313 75.5023 8.89377L75.4486 8.82229L75.4128 8.75974L75.395 8.73293L75.386 8.70612L75.3771 8.67038V8.65251H75.3681V8.64357L75.3592 8.56315V8.42912L75.3771 8.33976L75.386 8.30402C75.4099 8.2087 75.4516 8.13126 75.5113 8.07169C75.571 8.01212 75.6515 7.95851 75.7529 7.91085C75.8484 7.87511 75.9707 7.84532 76.1198 7.82149H76.1556L76.2004 7.81256C76.2362 7.81256 76.275 7.81256 76.3167 7.81256L76.4152 7.80362L76.5136 7.81256C76.6031 7.81256 76.7165 7.82447 76.8537 7.8483C77.0327 7.89 77.2057 7.95255 77.3727 8.03595C77.4085 8.05978 77.4563 8.08956 77.5159 8.12531C77.5577 8.15509 77.6025 8.18785 77.6502 8.2236C77.7039 8.2653 77.7546 8.26232 77.8023 8.21466L78.6257 7.41939C78.6853 7.35982 78.6823 7.30323 78.6167 7.24961C78.5749 7.20791 78.5451 7.17813 78.5272 7.16025C78.4616 7.10664 78.39 7.05601 78.3124 7.00835C78.2229 6.94282 78.1245 6.88325 78.0171 6.82964C77.7367 6.68071 77.4443 6.5705 77.1401 6.49902C76.9313 6.45732 76.7433 6.43349 76.5763 6.42753L76.4241 6.41859L76.272 6.42753C76.2183 6.42753 76.1109 6.43349 75.9498 6.4454C75.6873 6.48114 75.4516 6.53774 75.2428 6.61518C74.9505 6.72836 74.7058 6.88921 74.509 7.0977C74.2763 7.32407 74.1152 7.60406 74.0257 7.93766C73.9959 8.03893 73.978 8.11637 73.972 8.16998C73.9601 8.25934 73.9541 8.33678 73.9541 8.40231L73.9452 8.51847V8.52741C73.9452 8.5155 73.9452 8.51252 73.9452 8.51847V8.5989L73.9541 8.64357V8.72399C73.9601 8.77165 73.969 8.82229 73.981 8.8759L73.9899 8.94739L74.0078 9.01887L74.0436 9.15291C74.0555 9.18865 74.0704 9.23035 74.0883 9.27801L74.151 9.4031C74.1808 9.46863 74.2256 9.5431 74.2852 9.6265L74.3568 9.73372C74.3867 9.77542 74.4135 9.80819 74.4374 9.83202C74.6223 10.0346 74.861 10.2222 75.1533 10.395C75.3323 10.5022 75.565 10.6213 75.8514 10.7524L75.9319 10.7792V10.7881L75.9588 10.7971L75.9946 10.8149L76.1556 10.8864L76.4868 11.0383C76.9342 11.2468 77.2355 11.4434 77.3906 11.6281C77.4682 11.7234 77.5159 11.8217 77.5338 11.923L77.5428 11.9676C77.5488 11.9796 77.5488 11.9915 77.5428 12.0034L77.5517 12.0481V12.0838L77.5428 12.1642V12.2089C77.5428 12.2268 77.5428 12.2357 77.5428 12.2357L77.5338 12.2625L77.5249 12.2983C77.4772 12.5068 77.3549 12.6646 77.158 12.7718C77.0625 12.8195 76.9402 12.8612 76.791 12.8969C76.624 12.9208 76.4838 12.9327 76.3704 12.9327L76.2899 12.9416L76.1646 12.9327C76.1228 12.9327 76.084 12.9297 76.0482 12.9238H76.0125L75.9767 12.9148C75.9588 12.9148 75.9319 12.9118 75.8961 12.9059L75.8066 12.888L75.7261 12.8701L75.6455 12.8433C75.4665 12.7957 75.2935 12.7242 75.1265 12.6289C75.0907 12.605 75.0459 12.5753 74.9922 12.5395C74.9505 12.5097 74.9057 12.474 74.858 12.4323C74.8043 12.3965 74.7536 12.3995 74.7059 12.4412L73.7751 13.3259C73.7155 13.3854 73.7155 13.442 73.7751 13.4956C73.8408 13.5612 73.9153 13.6237 73.9989 13.6833C74.1182 13.7726 74.2465 13.856 74.3837 13.9335C74.6522 14.0884 74.9355 14.2045 75.2339 14.282C75.4367 14.3356 75.6276 14.3743 75.8066 14.3981C75.8722 14.4041 75.9259 14.4101 75.9677 14.416C76.0274 14.416 76.0751 14.416 76.1109 14.416L76.2362 14.4249H76.4152C76.6121 14.419 76.8388 14.3922 77.0953 14.3445C77.3757 14.279 77.6263 14.1896 77.8471 14.0765C78.1334 13.9335 78.3721 13.7369 78.563 13.4867C78.7659 13.2246 78.9001 12.9267 78.9657 12.5931L79.0015 12.3251C79.0015 12.3072 79.0015 12.2893 79.0015 12.2715L79.0105 12.2536V12.0034L79.0015 11.8783Z" fill="#FED106"/>
<path d="M89.5259 12.0749C89.4842 12.0093 89.4305 11.9974 89.3648 12.0391C88.5833 12.5455 87.7212 12.7987 86.7785 12.7987C85.454 12.7987 84.3234 12.3251 83.3867 11.3779C82.444 10.4307 81.9817 9.2929 81.9996 7.96446C82.0175 6.7373 82.45 5.67098 83.2972 4.7655C84.1504 3.86002 85.1855 3.35962 86.4026 3.26431C87.4765 3.18091 88.461 3.42813 89.3559 4.00597C89.4215 4.04767 89.4752 4.03575 89.517 3.97022L90.3045 2.81752C90.3463 2.752 90.3344 2.69838 90.2687 2.65668C89.0576 1.87034 87.7241 1.53377 86.2684 1.64695C84.6814 1.77205 83.327 2.40946 82.2054 3.55918C81.0778 4.70891 80.4692 6.07606 80.3797 7.66065C80.2783 9.5014 80.863 11.089 82.1338 12.4234C82.7304 13.0548 83.4225 13.5433 84.21 13.8888C85.0274 14.2462 85.8836 14.4249 86.7785 14.4249C88.0553 14.4249 89.2216 14.0794 90.2777 13.3884C90.3433 13.3467 90.3552 13.2931 90.3135 13.2276L89.5259 12.0749Z" fill="#FED106"/>
<path d="M95.0566 12.8969C94.3645 12.8969 93.7739 12.6497 93.2846 12.1553C92.7894 11.6668 92.5419 11.0741 92.5419 10.3771C92.5419 9.68607 92.7894 9.09631 93.2846 8.60783C93.7739 8.11339 94.3645 7.86617 95.0566 7.86617C95.7547 7.86617 96.3483 8.11339 96.8375 8.60783C97.3327 9.09631 97.5803 9.68607 97.5803 10.3771C97.5803 11.0741 97.3327 11.6668 96.8375 12.1553C96.3483 12.6497 95.7547 12.8969 95.0566 12.8969ZM95.0566 6.36498C93.9469 6.36498 92.9983 6.75517 92.2107 7.53555C91.4232 8.32189 91.0294 9.26907 91.0294 10.3771C91.0294 11.4911 91.4232 12.4412 92.2107 13.2276C92.9983 14.0079 93.9469 14.3981 95.0566 14.3981C96.1723 14.3981 97.1209 14.0079 97.9025 13.2276C98.69 12.4412 99.0838 11.4911 99.0838 10.3771C99.0838 9.26907 98.69 8.32189 97.9025 7.53555C97.1209 6.75517 96.1723 6.36498 95.0566 6.36498Z" fill="#FED106"/>
<path d="M112.982 11.8068C112.982 11.6162 112.982 11.3183 112.982 10.9132V10.4218C112.976 10.2371 112.973 10.0673 112.973 9.91244V9.6533C112.973 9.53416 112.967 9.418 112.955 9.30481C112.925 9.07249 112.872 8.84612 112.794 8.6257C112.639 8.17296 112.394 7.77384 112.06 7.42832C111.726 7.08877 111.332 6.83261 110.879 6.65986C110.658 6.58242 110.432 6.52582 110.199 6.49008L110.118 6.48114C110.083 6.48114 110.053 6.47817 110.029 6.47221H109.93C109.895 6.46625 109.871 6.46327 109.859 6.46327H109.698L109.528 6.47221C109.092 6.50795 108.683 6.62411 108.302 6.8207C107.962 6.99941 107.663 7.23174 107.407 7.51768C107.347 7.58321 107.29 7.65172 107.237 7.7232C107.153 7.61597 107.067 7.51768 106.977 7.42832C106.643 7.08877 106.249 6.83261 105.796 6.65986C105.575 6.58242 105.348 6.52582 105.116 6.49008L105.035 6.48114C104.999 6.48114 104.969 6.47817 104.946 6.47221H104.847C104.811 6.46625 104.788 6.46327 104.776 6.46327H104.614L104.444 6.47221C104.009 6.50795 103.6 6.62411 103.218 6.8207C103.093 6.88623 102.959 6.96963 102.816 7.0709V6.47221C102.816 6.39477 102.777 6.35605 102.699 6.35605H101.402C101.324 6.35605 101.285 6.39477 101.285 6.47221V14.3088C101.285 14.3862 101.324 14.4249 101.402 14.4249H102.699C102.777 14.4249 102.816 14.3862 102.816 14.3088V9.7784L102.825 9.67117C102.825 9.64139 102.828 9.59969 102.834 9.54607V9.47459L102.843 9.44778C102.848 9.40608 102.857 9.35247 102.869 9.28694C102.899 9.14993 102.947 9.01589 103.013 8.88484C103.096 8.71804 103.2 8.56911 103.326 8.43805C103.654 8.08658 104.06 7.89894 104.543 7.87511L104.632 7.86617H104.668L104.74 7.87511C104.758 7.87511 104.776 7.87511 104.793 7.87511H104.829C104.835 7.88106 104.85 7.88404 104.874 7.88404L104.919 7.89298C105.05 7.91085 105.175 7.94361 105.295 7.99127C105.545 8.08658 105.76 8.23253 105.939 8.42912C106.124 8.61975 106.258 8.84016 106.342 9.09036C106.383 9.21546 106.41 9.34056 106.422 9.46565L106.431 9.6533V9.91244C106.431 10.0673 106.428 10.2371 106.422 10.4218V10.9132C106.422 11.3183 106.419 11.6162 106.413 11.8068C106.413 12.5455 106.41 13.162 106.404 13.6565V14.2909C106.404 14.3684 106.443 14.4071 106.521 14.4071H107.8C107.878 14.4071 107.917 14.3684 107.917 14.2909V13.6565C107.911 13.162 107.908 12.5455 107.908 11.8068C107.908 11.6936 107.905 11.5536 107.899 11.3868V10.9311C107.899 10.5439 107.896 10.2192 107.89 9.95712L107.908 9.67117C107.908 9.64139 107.908 9.59969 107.908 9.54607L107.917 9.5014V9.47459L107.926 9.44778C107.932 9.40608 107.941 9.35247 107.953 9.28694C107.982 9.14993 108.03 9.01589 108.096 8.88484C108.179 8.71804 108.284 8.56911 108.409 8.43805C108.737 8.08658 109.143 7.89894 109.626 7.87511H109.671L109.716 7.86617H109.751L109.823 7.87511C109.841 7.87511 109.859 7.87511 109.877 7.87511H109.912C109.918 7.88106 109.933 7.88404 109.957 7.88404L110.002 7.89298C110.133 7.91085 110.259 7.94361 110.378 7.99127C110.628 8.08658 110.843 8.23253 111.022 8.42912C111.207 8.61975 111.341 8.84016 111.425 9.09036C111.467 9.21546 111.494 9.34056 111.505 9.46565L111.514 9.6533V9.91244C111.508 10.0673 111.505 10.2371 111.505 10.4218V10.9132C111.499 11.3183 111.497 11.6162 111.497 11.8068L111.488 13.6565V14.2909C111.488 14.3684 111.526 14.4071 111.604 14.4071H112.884C112.961 14.4071 113 14.3684 113 14.2909V13.6565C112.994 13.162 112.988 12.5455 112.982 11.8068Z" fill="#FED106"/>
<path d="M47.3312 28.3412C47.2536 28.3412 47.2148 28.3799 47.2148 28.4574V29.8513C47.2148 29.9288 47.2536 29.9675 47.3312 29.9675H49.4164V32.121C48.5214 32.9252 47.4654 33.3273 46.2483 33.3273C44.8701 33.3273 43.7067 32.8209 42.7581 31.8082C41.8094 30.7896 41.3888 29.5833 41.4962 28.1893C41.5857 26.9919 42.0719 25.9703 42.9549 25.1244C43.8379 24.2785 44.882 23.8376 46.0872 23.8019C47.4535 23.7542 48.6228 24.207 49.5953 25.1601C49.649 25.2137 49.7027 25.2167 49.7564 25.169L50.7588 24.1951C50.8184 24.1355 50.8214 24.0789 50.7677 24.0253C49.5387 22.8041 48.059 22.1845 46.3288 22.1667C44.6225 22.1488 43.1399 22.7296 41.881 23.9091C40.6222 25.0886 39.948 26.5273 39.8585 28.225C39.8107 29.1544 39.9569 30.0479 40.297 30.9057C40.6251 31.7278 41.1024 32.4546 41.7289 33.086C42.3613 33.7115 43.0892 34.1881 43.9125 34.5157C44.7717 34.8493 45.6666 34.9923 46.5973 34.9447C48.25 34.8553 49.6819 34.197 50.893 32.9699L51.0183 32.8358C51.0421 32.812 51.0541 32.7852 51.0541 32.7554V28.4574C51.0541 28.3799 51.0153 28.3412 50.9377 28.3412H47.3312Z" fill="white"/>
<path d="M55.7614 33.4435C55.2543 33.4435 54.9083 33.3392 54.7233 33.1307C54.598 32.9877 54.5354 32.7554 54.5354 32.4337C54.5354 32.1835 54.6159 31.987 54.777 31.844C55.1529 31.5104 55.8807 31.3436 56.9606 31.3436C57.2052 31.3436 57.4618 31.3525 57.7303 31.3704C57.6348 32.1806 57.3484 32.7584 56.8711 33.1039C56.6922 33.229 56.4923 33.3213 56.2715 33.3809C56.1045 33.4226 55.9344 33.4435 55.7614 33.4435ZM59.2606 31.0487C59.2666 30.9474 59.2696 30.8491 59.2696 30.7538C59.2815 30.0807 59.2457 29.5445 59.1622 29.1454C59.0428 28.5437 58.8072 28.0612 58.4552 27.6978C57.948 27.1796 57.2202 26.9204 56.2715 26.9204C55.6033 26.9204 54.9918 27.0515 54.4369 27.3136C54.2341 27.4089 54.0461 27.5161 53.8731 27.6353C53.8015 27.6829 53.7359 27.7336 53.6762 27.7872C53.6285 27.8229 53.5838 27.8617 53.542 27.9034C53.4823 27.957 53.4823 28.0136 53.542 28.0731L54.4906 28.9399C54.5383 28.9876 54.5891 28.9876 54.6428 28.9399C54.7024 28.8922 54.771 28.8446 54.8486 28.7969C54.956 28.7314 55.0693 28.6748 55.1887 28.6271C55.5168 28.4901 55.8778 28.4216 56.2715 28.4216C56.7966 28.4216 57.1635 28.5318 57.3723 28.7522C57.5752 28.9607 57.6975 29.3301 57.7392 29.8603C55.8718 29.7411 54.5533 30.0241 53.7836 30.7092C53.2765 31.1559 53.0229 31.7308 53.0229 32.4337C53.0229 33.2201 53.2646 33.8366 53.7478 34.2834C54.2311 34.7242 54.9023 34.9447 55.7614 34.9447C56.5967 34.9447 57.3186 34.6915 57.9272 34.1851C57.951 34.4115 57.9779 34.6349 58.0077 34.8553C58.0196 34.9208 58.0584 34.9536 58.124 34.9536H59.4127C59.5022 34.9536 59.541 34.9089 59.5291 34.8196C59.4993 34.617 59.4724 34.4115 59.4485 34.203C59.4127 33.923 59.3829 33.649 59.359 33.3809C59.2875 32.6541 59.2517 32.0316 59.2517 31.5134C59.2517 31.4121 59.2546 31.2572 59.2606 31.0487Z" fill="white"/>
<path d="M73.4363 32.3354C73.4363 32.1448 73.4363 31.847 73.4363 31.4419V30.9504C73.4304 30.7657 73.4274 30.596 73.4274 30.4411V30.182C73.4274 30.0628 73.4214 29.9466 73.4095 29.8335C73.3797 29.6011 73.326 29.3748 73.2484 29.1544C73.0933 28.7016 72.8487 28.3025 72.5146 27.957C72.1805 27.6174 71.7867 27.3613 71.3333 27.1885C71.1125 27.1111 70.8858 27.0545 70.6531 27.0187L70.5726 27.0098C70.5368 27.0098 70.5069 27.0068 70.4831 27.0009H70.3846C70.3488 26.9949 70.325 26.9919 70.313 26.9919H70.1519L69.9819 27.0009C69.5464 27.0366 69.1377 27.1528 68.7558 27.3493C68.4158 27.5281 68.1175 27.7604 67.8609 28.0463C67.8012 28.1119 67.7446 28.1804 67.6909 28.2519C67.6073 28.1446 67.5208 28.0463 67.4313 27.957C67.0972 27.6174 66.7035 27.3613 66.25 27.1885C66.0293 27.1111 65.8026 27.0545 65.5699 27.0187L65.4893 27.0098C65.4535 27.0098 65.4237 27.0068 65.3998 27.0009H65.3014C65.2656 26.9949 65.2417 26.9919 65.2298 26.9919H65.0687L64.8987 27.0009C64.4632 27.0366 64.0545 27.1528 63.6726 27.3493C63.5473 27.4149 63.4131 27.4983 63.2699 27.5995V27.0009C63.2699 26.9234 63.2311 26.8847 63.1536 26.8847H61.8559C61.7784 26.8847 61.7396 26.9234 61.7396 27.0009V34.8374C61.7396 34.9149 61.7784 34.9536 61.8559 34.9536H63.1536C63.2311 34.9536 63.2699 34.9149 63.2699 34.8374V30.3071L63.2789 30.1998C63.2789 30.17 63.2818 30.1283 63.2878 30.0747V30.0032L63.2968 29.9764C63.3027 29.9347 63.3117 29.8811 63.3236 29.8156C63.3534 29.6786 63.4012 29.5445 63.4668 29.4135C63.5503 29.2467 63.6547 29.0978 63.78 28.9667C64.1082 28.6152 64.5139 28.4276 64.9971 28.4038L65.0866 28.3948H65.1224L65.194 28.4038C65.2119 28.4038 65.2298 28.4038 65.2477 28.4038H65.2835C65.2895 28.4097 65.3044 28.4127 65.3282 28.4127L65.373 28.4216C65.5043 28.4395 65.6295 28.4723 65.7489 28.5199C65.9995 28.6152 66.2142 28.7612 66.3932 28.9578C66.5782 29.1484 66.7124 29.3688 66.7959 29.619C66.8377 29.7441 66.8645 29.8692 66.8765 29.9943L66.8854 30.182V30.4411C66.8854 30.596 66.8824 30.7657 66.8765 30.9504V31.4419C66.8765 31.847 66.8735 32.1448 66.8675 32.3354C66.8675 33.0741 66.8646 33.6907 66.8586 34.1851V34.8196C66.8586 34.897 66.8974 34.9357 66.9749 34.9357H68.2547C68.3322 34.9357 68.371 34.897 68.371 34.8196V34.1851C68.3651 33.6907 68.3621 33.0741 68.3621 32.3354C68.3621 32.2223 68.3591 32.0823 68.3531 31.9155V31.4598C68.3531 31.0725 68.3501 30.7479 68.3442 30.4858L68.3621 30.1998C68.3621 30.17 68.3621 30.1283 68.3621 30.0747L68.371 30.03V30.0032L68.38 29.9764C68.3859 29.9347 68.3949 29.8811 68.4068 29.8156C68.4367 29.6786 68.4844 29.5445 68.55 29.4135C68.6335 29.2467 68.7379 29.0978 68.8632 28.9667C69.1914 28.6152 69.5971 28.4276 70.0803 28.4038H70.1251L70.1698 28.3948H70.2056L70.2772 28.4038C70.2951 28.4038 70.313 28.4038 70.3309 28.4038H70.3667C70.3727 28.4097 70.3876 28.4127 70.4115 28.4127L70.4562 28.4216C70.5875 28.4395 70.7128 28.4723 70.8321 28.5199C71.0827 28.6152 71.2974 28.7612 71.4764 28.9578C71.6614 29.1484 71.7956 29.3688 71.8792 29.619C71.9209 29.7441 71.9478 29.8692 71.9597 29.9943L71.9686 30.182V30.4411C71.9627 30.596 71.9597 30.7657 71.9597 30.9504V31.4419C71.9537 31.847 71.9507 32.1448 71.9507 32.3354L71.9418 34.1851V34.8196C71.9418 34.897 71.9806 34.9357 72.0581 34.9357H73.3379C73.4155 34.9357 73.4542 34.897 73.4542 34.8196V34.1851C73.4483 33.6907 73.4423 33.0741 73.4363 32.3354Z" fill="white"/>
<path d="M76.5955 30.5215C76.6849 29.9079 76.9474 29.4075 77.383 29.0203C77.8185 28.6271 78.3376 28.4306 78.9402 28.4306C79.5129 28.4306 80.0051 28.5854 80.4168 28.8952C80.8285 29.199 81.0999 29.6071 81.2312 30.1194L76.5955 30.5215ZM78.967 26.9294C77.8752 26.9234 76.9504 27.3076 76.1927 28.0821C75.435 28.8565 75.0562 29.8096 75.0562 30.9415C75.0562 32.0495 75.4499 32.9937 76.2375 33.7741C77.025 34.5604 77.9707 34.9536 79.0744 34.9536C79.7725 34.9536 80.4258 34.7838 81.0343 34.4443C81.6488 34.1047 82.1381 33.6401 82.502 33.0503C82.5438 32.9788 82.5288 32.9252 82.4573 32.8895L81.3565 32.2461C81.2909 32.2103 81.2372 32.2252 81.1954 32.2908C80.9687 32.6482 80.6644 32.9312 80.2826 33.1397C79.9067 33.3422 79.504 33.4435 79.0744 33.4435C78.5852 33.4435 78.1347 33.3124 77.7231 33.0503C77.3174 32.7882 77.0131 32.4427 76.8102 32.0138L82.7168 31.5044C82.7884 31.4985 82.8242 31.4598 82.8242 31.3883V30.8789C82.8242 29.8067 82.4483 28.8833 81.6966 28.1089C80.9448 27.3285 80.035 26.9353 78.967 26.9294Z" fill="white"/>
<path d="M89.6794 32.4069C89.6794 32.3771 89.6734 32.3354 89.6615 32.2818L89.6436 32.1567C89.572 31.8112 89.4168 31.5014 89.1782 31.2274C88.9992 31.013 88.7635 30.8164 88.4712 30.6377C88.2803 30.5126 88.0446 30.3875 87.7642 30.2624L87.451 30.1283L87.2899 30.0479L87.1825 30.0032L87.1109 29.9675C86.8722 29.8662 86.6843 29.7769 86.5471 29.6994C86.386 29.6041 86.2637 29.5118 86.1802 29.4224L86.1265 29.3509L86.0907 29.2884L86.0728 29.2616L86.0638 29.2348L86.0549 29.199V29.1812H86.0459V29.1722L86.037 29.0918V28.9578L86.0549 28.8684L86.0638 28.8327C86.0877 28.7374 86.1295 28.6599 86.1891 28.6003C86.2488 28.5408 86.3293 28.4872 86.4307 28.4395C86.5262 28.4038 86.6485 28.374 86.7977 28.3501H86.8335L86.8782 28.3412C86.914 28.3412 86.9528 28.3412 86.9946 28.3412L87.093 28.3323L87.1914 28.3412C87.2809 28.3412 87.3943 28.3531 87.5315 28.3769C87.7105 28.4186 87.8835 28.4812 88.0506 28.5646C88.0864 28.5884 88.1341 28.6182 88.1938 28.654C88.2355 28.6837 88.2803 28.7165 88.328 28.7522C88.3817 28.7939 88.4324 28.791 88.4801 28.7433L89.3035 27.948C89.3631 27.8885 89.3602 27.8319 89.2945 27.7783C89.2528 27.7366 89.2229 27.7068 89.205 27.6889C89.1394 27.6353 89.0678 27.5847 88.9902 27.537C88.9008 27.4715 88.8023 27.4119 88.6949 27.3583C88.4145 27.2094 88.1222 27.0991 87.8179 27.0277C87.6091 26.986 87.4211 26.9621 87.2541 26.9562L87.102 26.9472L86.9498 26.9562C86.8961 26.9562 86.7887 26.9621 86.6276 26.9741C86.3651 27.0098 86.1295 27.0664 85.9206 27.1438C85.6283 27.257 85.3837 27.4179 85.1868 27.6264C84.9541 27.8527 84.793 28.1327 84.7035 28.4663C84.6737 28.5676 84.6558 28.645 84.6498 28.6986C84.6379 28.788 84.6319 28.8654 84.6319 28.931L84.623 29.0471V29.0561C84.623 29.0441 84.623 29.0412 84.623 29.0471V29.1275L84.6319 29.1722V29.2526C84.6379 29.3003 84.6469 29.3509 84.6588 29.4046L84.6677 29.476L84.6856 29.5475L84.7214 29.6816C84.7334 29.7173 84.7483 29.759 84.7662 29.8067L84.8288 29.9318C84.8587 29.9973 84.9034 30.0717 84.9631 30.1551L85.0347 30.2624C85.0645 30.3041 85.0913 30.3368 85.1152 30.3607C85.3002 30.5632 85.5388 30.7509 85.8311 30.9236C86.0101 31.0308 86.2428 31.15 86.5292 31.281L86.6097 31.3078V31.3168L86.6366 31.3257L86.6724 31.3436L86.8335 31.4151L87.1646 31.567C87.6121 31.7755 87.9134 31.9721 88.0685 32.1567C88.146 32.252 88.1938 32.3503 88.2117 32.4516L88.2206 32.4963C88.2266 32.5082 88.2266 32.5201 88.2206 32.532L88.2296 32.5767V32.6124L88.2206 32.6929V32.7375C88.2206 32.7554 88.2206 32.7644 88.2206 32.7644L88.2117 32.7912L88.2027 32.8269C88.155 33.0354 88.0327 33.1933 87.8358 33.3005C87.7403 33.3482 87.618 33.3899 87.4689 33.4256C87.3018 33.4494 87.1616 33.4613 87.0482 33.4613L86.9677 33.4703L86.8424 33.4613C86.8007 33.4613 86.7619 33.4584 86.7261 33.4524H86.6903L86.6545 33.4435C86.6366 33.4435 86.6097 33.4405 86.5739 33.4345L86.4844 33.4167L86.4039 33.3988L86.3234 33.372C86.1444 33.3243 85.9714 33.2528 85.8043 33.1575C85.7685 33.1337 85.7238 33.1039 85.6701 33.0682C85.6283 33.0384 85.5835 33.0026 85.5358 32.9609C85.4821 32.9252 85.4314 32.9282 85.3837 32.9699L84.453 33.8545C84.3933 33.9141 84.3933 33.9707 84.453 34.0243C84.5186 34.0898 84.5932 34.1524 84.6767 34.2119C84.796 34.3013 84.9243 34.3847 85.0615 34.4621C85.33 34.617 85.6134 34.7332 85.9117 34.8106C86.1145 34.8642 86.3055 34.903 86.4844 34.9268C86.5501 34.9327 86.6038 34.9387 86.6455 34.9447C86.7052 34.9447 86.7529 34.9447 86.7887 34.9447L86.914 34.9536H87.093C87.2899 34.9476 87.5166 34.9208 87.7731 34.8732C88.0536 34.8076 88.3041 34.7183 88.5249 34.6051C88.8113 34.4621 89.0499 34.2655 89.2408 34.0154C89.4437 33.7532 89.5779 33.4554 89.6436 33.1218L89.6794 32.8537C89.6794 32.8358 89.6794 32.818 89.6794 32.8001L89.6883 32.7822V32.532L89.6794 32.4069Z" fill="white"/>
</svg>
