<svg width="16" height="16" viewBox="0 0 16 16" fill="none" xmlns="http://www.w3.org/2000/svg">
<path fill-rule="evenodd" clip-rule="evenodd" d="M7.20821 1.19655C7.20821 1.19655 7.54522 0.915054 7.76115 0.734683C8.24296 0.486408 8.46429 0.536942 8.56611 0.544844C8.66796 0.552743 8.88733 0.567391 9.52664 0.544844C10.1659 0.522295 10.5303 0.761227 10.875 0.692173C11.0323 0.660646 11.1314 0.579015 11.2175 0.561021C11.8276 0.433594 11.8585 0.507344 11.8472 0.767244C11.8387 0.825104 11.8292 0.874106 11.8204 0.919206C11.8002 1.0227 11.7841 1.10566 11.7941 1.22799C11.8168 1.50499 11.8233 1.69353 11.674 1.86585C11.674 1.86585 11.4716 2.14752 11.1005 2.48652C11.0026 2.57591 10.9636 2.61382 10.9233 2.65025C10.845 2.72092 10.7617 2.78602 10.2339 3.21059C9.43415 3.85401 8.80818 4.8227 8.80818 5.95268C8.80818 6.94706 8.9553 7.34257 9.75883 8.39347C10.0983 8.83416 10.4492 9.34266 10.5397 9.53477C10.7774 10.0207 10.9584 10.9586 10.9584 11.7156V12.371L11.6714 12.7778C12.656 13.3541 12.8937 13.3993 13.1879 13.049C13.4482 12.7553 14.1273 12.5519 14.3649 12.6987C14.5913 12.8456 14.5275 14.0384 14.0701 14.8021L13.7085 15.4107L11.9657 15.4446C10.4152 15.4672 10.1549 15.4446 9.57773 15.2299C9.48854 15.1969 9.40685 15.1641 9.33012 15.1333C8.80319 14.9217 8.50809 14.8032 7.59567 15.3349C6.91664 15.6061 5.20931 15.5237 4.1568 15.2299C4.07791 15.2088 4.01906 15.1962 3.9615 15.1838C3.78572 15.1462 3.62193 15.1111 2.9357 14.8436C2.84666 14.8281 2.79166 14.8473 2.72813 14.8694C2.66874 14.8902 2.60189 14.9134 2.4928 14.9134C1.83112 14.9134 1.72675 14.7903 1.63561 14.6828C1.62725 14.6729 1.61899 14.6631 1.61042 14.6536C1.45198 14.4954 1.45198 14.4615 1.68965 14.2355C1.83677 14.1112 1.98389 13.9982 2.02916 13.9982C2.24419 13.9982 2.21024 13.5688 1.90467 12.7439C1.33881 11.2298 1.47462 9.98676 2.37999 8.19007C3.20615 6.55159 5.75254 2.4836 6.20522 2.07681C6.32972 1.96381 6.43157 1.74911 6.43157 1.60221C6.43157 1.11631 6.80168 0.842905 6.96417 0.891981C7.1267 0.941058 7.12598 1.05221 7.20821 1.19655ZM10.2895 2.50312C10.2712 2.54276 10.2548 2.57819 10.2339 2.60604C10.1095 2.79814 9.92587 2.86738 9.58636 2.86738C8.86716 2.77853 8.34386 2.45306 8.21559 2.19449C8.21559 2.19449 8.12158 1.8152 7.91064 1.54929C7.8592 1.48444 7.80994 1.44115 7.77242 1.40817C7.65607 1.30593 7.51701 1.17715 7.91064 0.937912C8.43122 0.621515 8.90084 0.734683 9.52664 0.734683C10.1524 0.734683 10.5677 0.920813 10.875 0.844027C11.1823 0.767244 11.1567 0.736232 11.3264 0.692173C11.476 0.653344 11.6556 0.613827 11.685 0.648957C11.7131 0.682637 11.7008 0.748209 11.6828 0.844027C11.6715 0.904507 11.6579 0.977039 11.6508 1.0612C11.6437 1.1444 11.6534 1.21491 11.6625 1.2814C11.6814 1.4188 11.6979 1.539 11.5594 1.71851C11.4491 1.86142 11.2182 2.00977 10.9658 2.05097C10.4599 2.13353 10.3602 2.34975 10.2895 2.50312ZM7.7783 1.86211C7.9141 2.03161 8.00261 2.16791 8.06312 2.31774C8.06312 2.55503 9.0011 3.06954 9.52171 3.06954C10.0423 3.06954 10.1294 3.02197 10.3464 2.78412C10.4031 2.72204 10.4335 2.65117 10.4637 2.58075C10.4963 2.50482 10.5286 2.42942 10.5934 2.36607C10.7436 2.21907 10.9541 2.24259 10.9541 2.24259C11.0891 2.2165 11.3274 2.12962 11.4315 1.99364C11.4315 1.99364 11.3875 2.07753 11.3519 2.11547C11.2584 2.21523 11.2153 2.24805 11.1582 2.29159C11.1319 2.31162 11.1027 2.33393 11.0641 2.36607C10.7701 2.61135 10.2872 2.97832 10.2872 2.97832L9.58636 3.52565C8.96321 4.14579 8.43472 5.13909 8.43472 5.91878C8.43472 6.65329 8.77423 7.43298 9.64564 8.66467C9.99649 9.16187 10.3586 9.77207 10.4379 10.0207C10.6302 10.5518 10.8 12.0773 10.6755 12.0773C10.6302 12.0773 10.2568 11.8964 9.83804 11.6817C9.43062 11.4671 8.69499 11.1167 8.21967 10.8908C7.17851 10.4162 6.37997 9.50829 5.71461 7.56041C5.69401 7.50004 5.49223 7.65896 5.87701 8.81155C6.17126 9.70427 6.74844 10.5743 7.29167 10.9359L7.69909 11.2184L6.99741 11.3654C6.21652 11.5235 5.0056 11.9642 4.39446 12.3146C4.17943 12.4388 4.10021 12.5066 4.2247 12.4727C5.10746 12.179 7.17851 11.7269 7.9707 11.6478C9.13636 11.5349 9.62302 11.6705 10.8339 12.4614C12.4184 13.4784 12.9389 13.6366 13.3803 13.2185C13.5161 13.0942 13.7538 12.9586 13.9349 12.9247C14.2291 12.8456 14.2404 12.8569 14.2404 13.3202C14.2404 13.5801 14.1386 14.0321 14.0028 14.3372L13.7651 14.8909L13.0408 14.9587C12.0788 15.0717 11.5922 14.9813 10.0417 14.4502C8.60495 13.8343 8.04991 13.8965 6.68054 14.2242C5.0056 14.6197 4.2247 14.4728 3.71542 13.6366C3.38723 13.0942 3.43249 12.6987 3.88518 12.0773C4.10021 11.7834 4.28129 11.6818 4.28129 11.4218C4.28129 11.1619 4.12284 10.9811 3.94177 10.5743C3.61357 9.88506 3.60225 9.82855 3.74938 9.38785C3.83991 9.13926 4.13416 8.58558 4.41709 8.15617C5.14141 7.07137 5.19797 6.93578 5.91096 4.77748C6.27312 3.7153 6.69789 2.72264 6.81105 2.54184C6.83522 2.50225 6.86384 2.44355 6.8945 2.38074C6.95809 2.25031 7.03038 2.10212 7.08942 2.07044C7.13118 2.04804 7.13383 2.0797 7.13726 2.12075C7.14184 2.17596 7.14788 2.24816 7.25239 2.2286C7.35628 2.20915 7.33876 2.12544 7.32535 2.06158C7.31526 2.01343 7.30752 1.97656 7.35601 1.98702C7.43997 2.00514 7.59391 2.29809 7.66378 2.50544C7.74815 2.7558 7.84046 2.87452 7.84046 2.78412C7.84046 2.69372 7.78824 2.33037 7.66378 2.05917C7.26929 1.54929 7.42747 1.42141 7.7783 1.86211ZM6.72145 1.32119C6.73167 1.29384 6.74209 1.26599 6.74956 1.24025C6.77146 1.16498 6.81298 1.11702 6.89138 1.12069C6.96509 1.12413 6.99656 1.18907 6.98828 1.26229C6.98478 1.29344 6.96261 1.30367 6.93759 1.31523C6.92204 1.32241 6.9054 1.3301 6.89138 1.34363C6.86412 1.36998 6.84364 1.39776 6.82578 1.42203C6.7867 1.47511 6.75995 1.5114 6.70128 1.47921C6.66899 1.4615 6.69459 1.39308 6.72145 1.32119Z" fill="black"/>
<path d="M7.7783 1.86211C7.9141 2.03161 8.00261 2.16791 8.06312 2.31774C8.06312 2.55503 9.0011 3.06954 9.52171 3.06954C10.0423 3.06954 10.1294 3.02197 10.3464 2.78412C10.4031 2.72204 10.4335 2.65117 10.4637 2.58075C10.4963 2.50482 10.5286 2.42942 10.5934 2.36607C10.7436 2.21907 10.9541 2.24259 10.9541 2.24259C11.0891 2.2165 11.3274 2.12962 11.4315 1.99364C11.4315 1.99364 11.3875 2.07753 11.3519 2.11547C11.2584 2.21523 11.2153 2.24805 11.1582 2.29159C11.1319 2.31162 11.1027 2.33393 11.0641 2.36607C10.7701 2.61135 10.2872 2.97832 10.2872 2.97832L9.58636 3.52565C8.96321 4.14579 8.43472 5.13909 8.43472 5.91878C8.43472 6.65329 8.77423 7.43298 9.64564 8.66467C9.99649 9.16187 10.3586 9.77207 10.4379 10.0207C10.6302 10.5518 10.8 12.0773 10.6755 12.0773C10.6302 12.0773 10.2568 11.8964 9.83804 11.6817C9.43062 11.4671 8.69499 11.1167 8.21967 10.8908C7.17851 10.4162 6.37997 9.50829 5.71461 7.56041C5.69401 7.50004 5.49223 7.65896 5.87701 8.81155C6.17126 9.70427 6.74844 10.5743 7.29167 10.9359L7.69909 11.2184L6.99741 11.3654C6.21652 11.5235 5.0056 11.9642 4.39446 12.3146C4.17943 12.4388 4.10021 12.5066 4.2247 12.4727C5.10746 12.179 7.17851 11.7269 7.9707 11.6478C9.13636 11.5349 9.62302 11.6705 10.8339 12.4614C12.4184 13.4784 12.9389 13.6366 13.3803 13.2185C13.5161 13.0942 13.7538 12.9586 13.9349 12.9247C14.2291 12.8456 14.2404 12.8569 14.2404 13.3202C14.2404 13.5801 14.1386 14.0321 14.0028 14.3372L13.7651 14.8909L13.0408 14.9587C12.0788 15.0717 11.5922 14.9813 10.0417 14.4502C8.60495 13.8343 8.04991 13.8965 6.68054 14.2242C5.0056 14.6197 4.2247 14.4728 3.71542 13.6366C3.38723 13.0942 3.43249 12.6987 3.88518 12.0773C4.10021 11.7834 4.28129 11.6818 4.28129 11.4218C4.28129 11.1619 4.12284 10.9811 3.94177 10.5743C3.61357 9.88506 3.60225 9.82855 3.74938 9.38785C3.83991 9.13926 4.13416 8.58558 4.41709 8.15617C5.14141 7.07137 5.19797 6.93578 5.91096 4.77748C6.27312 3.7153 6.69789 2.72264 6.81105 2.54184C6.83522 2.50225 6.86384 2.44355 6.8945 2.38074C6.95809 2.25031 7.03038 2.10212 7.08942 2.07044C7.13118 2.04804 7.13383 2.0797 7.13726 2.12075C7.14184 2.17596 7.14788 2.24816 7.25239 2.2286C7.35628 2.20915 7.33876 2.12544 7.32535 2.06158C7.31526 2.01343 7.30752 1.97656 7.35601 1.98702C7.43997 2.00514 7.59391 2.29809 7.66378 2.50544C7.74815 2.7558 7.84046 2.87452 7.84046 2.78412C7.84046 2.69372 7.78824 2.33037 7.66378 2.05917C7.26929 1.54929 7.42747 1.42141 7.7783 1.86211Z" fill="#FED106"/>
<path d="M10.2339 2.60604C10.1095 2.79814 9.92587 2.86738 9.58636 2.86738C8.86716 2.77853 8.34386 2.45306 8.21559 2.19449C8.21559 2.19449 8.12158 1.8152 7.91064 1.54929C7.8592 1.48444 7.80994 1.44115 7.77242 1.40817C7.65607 1.30593 7.51701 1.17715 7.91064 0.937912C8.43122 0.621515 8.90084 0.734683 9.52664 0.734683C10.1524 0.734683 10.5677 0.920813 10.875 0.844027C11.1823 0.767244 11.1567 0.736232 11.3264 0.692173C11.476 0.653344 11.6556 0.613827 11.685 0.648957C11.7131 0.682637 11.7008 0.748209 11.6828 0.844027C11.6715 0.904507 11.6579 0.977039 11.6508 1.0612C11.6437 1.1444 11.6534 1.21491 11.6625 1.2814C11.6814 1.4188 11.6979 1.539 11.5594 1.71851C11.4491 1.86142 11.2182 2.00977 10.9658 2.05097C10.4599 2.13353 10.3602 2.34975 10.2895 2.50312C10.2712 2.54276 10.2548 2.57819 10.2339 2.60604Z" fill="#FED106"/>
<path d="M6.98828 1.26229C6.99656 1.18907 6.96509 1.12413 6.89138 1.12069C6.81298 1.11702 6.77146 1.16498 6.74956 1.24025C6.74209 1.26599 6.73167 1.29384 6.72145 1.32119C6.69459 1.39308 6.66899 1.4615 6.70128 1.47921C6.75995 1.5114 6.7867 1.47511 6.82578 1.42203C6.84364 1.39776 6.86412 1.36998 6.89138 1.34363C6.9054 1.3301 6.92204 1.32241 6.93759 1.31523C6.96261 1.30367 6.98478 1.29344 6.98828 1.26229Z" fill="#FED106"/>
<path d="M9.61783 1.15621C9.52728 1.35961 9.7423 1.50651 9.90075 1.34831C10.0252 1.22401 9.9347 0.986711 9.76494 0.986711C9.71969 0.986711 9.65178 1.06581 9.61783 1.15621Z" fill="black"/>
</svg>
