<svg width="32" height="32" viewBox="0 0 32 32" fill="none" xmlns="http://www.w3.org/2000/svg">
<path fill-rule="evenodd" clip-rule="evenodd" d="M14.4164 2.39309C14.4164 2.39309 15.0904 1.83011 15.5223 1.46937C16.4859 0.972816 16.9286 1.07388 17.1322 1.08969C17.3359 1.10549 17.7747 1.13478 19.0533 1.08969C20.3319 1.04459 21.0606 1.52245 21.7499 1.38435C22.0646 1.32129 22.2627 1.15803 22.435 1.12204C23.6551 0.867187 23.7169 1.01469 23.6943 1.53449C23.6774 1.65021 23.6583 1.74821 23.6407 1.83841C23.6005 2.0454 23.5682 2.21131 23.5883 2.45599C23.6336 3.00998 23.6466 3.38706 23.3481 3.7317C23.3481 3.7317 22.9432 4.29505 22.201 4.97304C22.0053 5.15182 21.9273 5.22763 21.8465 5.3005C21.69 5.44184 21.5233 5.57205 20.4678 6.42118C18.8683 7.70803 17.6164 9.6454 17.6164 11.9054C17.6164 13.8941 17.9106 14.6851 19.5177 16.7869C20.1967 17.6683 20.8983 18.6853 21.0794 19.0695C21.5548 20.0413 21.9169 21.9171 21.9169 23.4313V24.7421L23.3429 25.5557C25.3121 26.7082 25.7874 26.7987 26.3759 26.0981C26.8964 25.5105 28.2545 25.1037 28.7298 25.3975C29.1825 25.6913 29.055 28.0768 28.1402 29.6041L27.4171 30.8214L23.9314 30.8892C20.8304 30.9345 20.3098 30.8892 19.1555 30.4599C18.9771 30.3938 18.8137 30.3282 18.6602 30.2666C17.6064 29.8434 17.0162 29.6065 15.1913 30.6697C13.8333 31.2121 10.4186 31.0474 8.31359 30.4599C8.15581 30.4176 8.03812 30.3923 7.923 30.3677C7.57143 30.2923 7.24386 30.2222 5.87141 29.6872C5.69332 29.6562 5.58332 29.6946 5.45626 29.7389C5.33747 29.7803 5.20378 29.8269 4.9856 29.8269C3.66224 29.8269 3.4535 29.5806 3.27123 29.3655C3.25449 29.3458 3.23798 29.3263 3.22085 29.3073C2.90397 28.9909 2.90397 28.9231 3.37929 28.471C3.67354 28.2225 3.96778 27.9964 4.05832 27.9964C4.48837 27.9964 4.42047 27.1377 3.80934 25.4879C2.67762 22.4595 2.94923 19.9735 4.75999 16.3801C6.4123 13.1032 11.5051 4.96721 12.4104 4.15361C12.6594 3.92762 12.8631 3.49822 12.8631 3.20443C12.8631 2.23263 13.6034 1.68581 13.9283 1.78396C14.2534 1.88212 14.252 2.10442 14.4164 2.39309ZM20.5789 5.00624C20.5424 5.08551 20.5097 5.15638 20.4678 5.21208C20.2189 5.59628 19.8517 5.73475 19.1727 5.73475C17.7343 5.55705 16.6877 4.90612 16.4312 4.38899C16.4312 4.38899 16.2432 3.6304 15.8213 3.09858C15.7184 2.96888 15.6199 2.8823 15.5448 2.81634C15.3121 2.61185 15.034 2.3543 15.8213 1.87582C16.8624 1.24303 17.8017 1.46937 19.0533 1.46937C20.3049 1.46937 21.1353 1.84163 21.7499 1.68805C22.3645 1.53449 22.3134 1.47246 22.6529 1.38435C22.9521 1.30669 23.3113 1.22765 23.37 1.29791C23.4262 1.36527 23.4016 1.49642 23.3657 1.68805C23.3429 1.80901 23.3158 1.95408 23.3015 2.1224C23.2874 2.28881 23.3067 2.42982 23.3251 2.56279C23.3628 2.8376 23.3959 3.078 23.1188 3.43703C22.8983 3.72284 22.4364 4.01954 21.9316 4.10194C20.9198 4.26705 20.7204 4.6995 20.5789 5.00624ZM15.5566 3.72422C15.8282 4.06322 16.0052 4.33582 16.1262 4.63547C16.1262 5.11007 18.0022 6.13908 19.0434 6.13908C20.0846 6.13908 20.2589 6.04394 20.6929 5.56824C20.8061 5.44408 20.8669 5.30235 20.9274 5.16149C20.9925 5.00965 21.0572 4.85883 21.1868 4.73213C21.4873 4.43813 21.9081 4.48518 21.9081 4.48518C22.1781 4.43301 22.6549 4.25924 22.8631 3.98728C22.8631 3.98728 22.775 4.15506 22.7039 4.23093C22.5167 4.43046 22.4306 4.4961 22.3164 4.58318C22.2639 4.62325 22.2053 4.66785 22.1283 4.73213C21.5402 5.2227 20.5743 5.95665 20.5743 5.95665L19.1727 7.0513C17.9264 8.29158 16.8694 10.2782 16.8694 11.8376C16.8694 13.3066 17.5485 14.866 19.2913 17.3293C19.993 18.3237 20.7172 19.5441 20.8757 20.0413C21.2605 21.1035 21.6 24.1545 21.351 24.1545C21.2605 24.1545 20.5135 23.7929 19.6761 23.3635C18.8612 22.9341 17.39 22.2335 16.4393 21.7815C14.357 20.8323 12.7599 19.0166 11.4292 15.1208C11.388 15.0001 10.9845 15.3179 11.754 17.6231C12.3425 19.4085 13.4969 21.1487 14.5833 21.8719L15.3982 22.4369L13.9948 22.7307C12.433 23.0471 10.0112 23.9285 8.78891 24.6291C8.35886 24.8777 8.20042 25.0133 8.4494 24.9455C10.2149 24.3579 14.357 23.4539 15.9414 23.2957C18.2727 23.0697 19.246 23.3409 21.6679 24.9229C24.8367 26.9569 25.8779 27.2733 26.7606 26.437C27.0322 26.1885 27.5076 25.9173 27.8698 25.8495C28.4582 25.6913 28.4809 25.7139 28.4809 26.6404C28.4809 27.1603 28.2772 28.0642 28.0056 28.6744L27.5303 29.7819L26.0816 29.9175C24.1577 30.1435 23.1844 29.9626 20.0835 28.9005C17.2099 27.6687 16.0998 27.793 13.3611 28.4485C10.0112 29.2395 8.4494 28.9456 7.43085 27.2733C6.77445 26.1885 6.86499 25.3975 7.77036 24.1545C8.20042 23.5669 8.56257 23.3636 8.56257 22.8437C8.56257 22.3237 8.24569 21.9623 7.88354 21.1487C7.22714 19.7701 7.20451 19.6571 7.49875 18.7757C7.67983 18.2785 8.26833 17.1712 8.83418 16.3123C10.2828 14.1427 10.3959 13.8716 11.8219 9.55495C12.5462 7.43059 13.3958 5.44528 13.6221 5.08369C13.6704 5.0045 13.7277 4.88711 13.789 4.76148C13.9162 4.50061 14.0608 4.20425 14.1788 4.14089C14.2624 4.09607 14.2677 4.1594 14.2745 4.2415C14.2837 4.35193 14.2958 4.49631 14.5048 4.45719C14.7126 4.4183 14.6775 4.25088 14.6507 4.12315C14.6305 4.02685 14.615 3.95312 14.712 3.97403C14.8799 4.01027 15.1878 4.59618 15.3276 5.01088C15.4963 5.5116 15.6809 5.74904 15.6809 5.56824C15.6809 5.38744 15.5765 4.66073 15.3276 4.11834C14.5386 3.09858 14.8549 2.84282 15.5566 3.72422ZM13.4429 2.64238C13.4633 2.58769 13.4842 2.53199 13.4991 2.4805C13.5429 2.32996 13.626 2.23404 13.7828 2.24137C13.9302 2.24826 13.9931 2.37813 13.9766 2.52457C13.9696 2.58688 13.9252 2.60733 13.8752 2.63046C13.8441 2.64481 13.8108 2.6602 13.7828 2.68726C13.7282 2.73996 13.6873 2.79551 13.6516 2.84405C13.5734 2.95022 13.5199 3.0228 13.4026 2.95841C13.338 2.92301 13.3892 2.78616 13.4429 2.64238Z" fill="black"/>
<path d="M15.5566 3.72422C15.8282 4.06322 16.0052 4.33582 16.1262 4.63547C16.1262 5.11007 18.0022 6.13908 19.0434 6.13908C20.0846 6.13908 20.2589 6.04394 20.6929 5.56824C20.8061 5.44408 20.8669 5.30235 20.9274 5.16149C20.9925 5.00965 21.0572 4.85883 21.1868 4.73213C21.4873 4.43813 21.9081 4.48518 21.9081 4.48518C22.1781 4.43301 22.6549 4.25924 22.8631 3.98728C22.8631 3.98728 22.775 4.15506 22.7039 4.23093C22.5167 4.43046 22.4306 4.4961 22.3164 4.58318C22.2639 4.62325 22.2053 4.66785 22.1283 4.73213C21.5402 5.2227 20.5743 5.95665 20.5743 5.95665L19.1727 7.0513C17.9264 8.29158 16.8694 10.2782 16.8694 11.8376C16.8694 13.3066 17.5485 14.866 19.2913 17.3293C19.993 18.3237 20.7172 19.5441 20.8757 20.0413C21.2605 21.1035 21.6 24.1545 21.351 24.1545C21.2605 24.1545 20.5135 23.7929 19.6761 23.3635C18.8612 22.9341 17.39 22.2335 16.4393 21.7815C14.357 20.8323 12.7599 19.0166 11.4292 15.1208C11.388 15.0001 10.9845 15.3179 11.754 17.6231C12.3425 19.4085 13.4969 21.1487 14.5833 21.8719L15.3982 22.4369L13.9948 22.7307C12.433 23.0471 10.0112 23.9285 8.78891 24.6291C8.35886 24.8777 8.20042 25.0133 8.4494 24.9455C10.2149 24.3579 14.357 23.4539 15.9414 23.2957C18.2727 23.0697 19.246 23.3409 21.6679 24.9229C24.8367 26.9569 25.8779 27.2733 26.7606 26.437C27.0322 26.1885 27.5076 25.9173 27.8698 25.8495C28.4582 25.6913 28.4809 25.7139 28.4809 26.6404C28.4809 27.1603 28.2772 28.0642 28.0056 28.6744L27.5303 29.7819L26.0816 29.9175C24.1577 30.1435 23.1844 29.9626 20.0835 28.9005C17.2099 27.6687 16.0998 27.793 13.3611 28.4485C10.0112 29.2395 8.4494 28.9456 7.43085 27.2733C6.77445 26.1885 6.86499 25.3975 7.77036 24.1545C8.20042 23.5669 8.56257 23.3636 8.56257 22.8437C8.56257 22.3237 8.24569 21.9623 7.88354 21.1487C7.22714 19.7701 7.20451 19.6571 7.49875 18.7757C7.67983 18.2785 8.26833 17.1712 8.83418 16.3123C10.2828 14.1427 10.3959 13.8716 11.8219 9.55495C12.5462 7.43059 13.3958 5.44528 13.6221 5.08369C13.6704 5.0045 13.7277 4.88711 13.789 4.76148C13.9162 4.50061 14.0608 4.20425 14.1788 4.14089C14.2624 4.09607 14.2677 4.1594 14.2745 4.2415C14.2837 4.35193 14.2958 4.49631 14.5048 4.45719C14.7126 4.4183 14.6775 4.25088 14.6507 4.12315C14.6305 4.02685 14.615 3.95312 14.712 3.97403C14.8799 4.01027 15.1878 4.59618 15.3276 5.01088C15.4963 5.5116 15.6809 5.74904 15.6809 5.56824C15.6809 5.38744 15.5765 4.66073 15.3276 4.11834C14.5386 3.09858 14.8549 2.84282 15.5566 3.72422Z" fill="#FED106"/>
<path d="M20.4678 5.21208C20.2189 5.59628 19.8517 5.73475 19.1727 5.73475C17.7343 5.55705 16.6877 4.90612 16.4312 4.38899C16.4312 4.38899 16.2432 3.6304 15.8213 3.09858C15.7184 2.96888 15.6199 2.8823 15.5448 2.81634C15.3121 2.61185 15.034 2.3543 15.8213 1.87582C16.8624 1.24303 17.8017 1.46937 19.0533 1.46937C20.3049 1.46937 21.1353 1.84163 21.7499 1.68805C22.3645 1.53449 22.3134 1.47246 22.6529 1.38435C22.9521 1.30669 23.3113 1.22765 23.37 1.29791C23.4262 1.36527 23.4016 1.49642 23.3657 1.68805C23.3429 1.80901 23.3158 1.95408 23.3015 2.1224C23.2874 2.28881 23.3067 2.42982 23.3251 2.56279C23.3628 2.8376 23.3959 3.078 23.1188 3.43703C22.8983 3.72284 22.4364 4.01954 21.9316 4.10194C20.9198 4.26705 20.7204 4.6995 20.5789 5.00624C20.5424 5.08551 20.5097 5.15638 20.4678 5.21208Z" fill="#FED106"/>
<path d="M13.9766 2.52457C13.9931 2.37813 13.9302 2.24826 13.7828 2.24137C13.626 2.23404 13.5429 2.32996 13.4991 2.4805C13.4842 2.53199 13.4633 2.58769 13.4429 2.64238C13.3892 2.78616 13.338 2.92301 13.4026 2.95841C13.5199 3.0228 13.5734 2.95022 13.6516 2.84405C13.6873 2.79551 13.7282 2.73996 13.7828 2.68726C13.8108 2.6602 13.8441 2.64481 13.8752 2.63046C13.9252 2.60733 13.9696 2.58688 13.9766 2.52457Z" fill="#FED106"/>
<path d="M19.2357 2.31242C19.0546 2.71922 19.4846 3.01301 19.8015 2.69662C20.0505 2.44802 19.8694 1.97342 19.5299 1.97342C19.4394 1.97342 19.3036 2.13162 19.2357 2.31242Z" fill="black"/>
</svg>
