<svg width="180" height="180" viewBox="0 0 180 180" fill="none" xmlns="http://www.w3.org/2000/svg">
<path fill-rule="evenodd" clip-rule="evenodd" d="M81.0924 13.4612C81.0924 13.4612 84.8837 10.2944 87.313 8.26518C92.7333 5.47209 95.2233 6.0406 96.3687 6.1295C97.5146 6.21836 99.9824 6.38315 107.175 6.1295C114.367 5.87582 118.466 8.5638 122.343 7.78694C124.114 7.43227 125.228 6.51392 126.197 6.31149C133.06 4.87793 133.408 5.70762 133.281 8.63149C133.185 9.28242 133.078 9.83369 132.979 10.3411C132.753 11.5054 132.571 12.4386 132.684 13.8149C132.939 16.9312 133.012 19.0522 131.333 20.9908C131.333 20.9908 129.056 24.1596 124.881 27.9734C123.78 28.979 123.341 29.4054 122.887 29.8153C122.006 30.6103 121.069 31.3428 115.132 36.1191C106.134 43.3576 99.0921 54.2554 99.0921 66.9677C99.0921 78.1545 100.747 82.6039 109.787 94.4265C113.606 99.3843 117.553 105.105 118.572 107.266C121.246 112.732 123.283 123.284 123.283 131.801V139.174L131.304 143.751C142.38 150.234 145.054 150.743 148.364 146.802C151.292 143.497 158.932 141.208 161.605 142.861C164.152 144.513 163.434 157.932 158.289 166.523L154.221 173.371L134.614 173.752C117.171 174.006 114.243 173.752 107.75 171.337C106.746 170.965 105.827 170.596 104.964 170.249C99.0359 167.869 95.716 166.536 85.4513 172.517C77.8122 175.568 58.6048 174.642 46.7639 171.337C45.8764 171.099 45.2144 170.957 44.5669 170.818C42.5893 170.394 40.7467 170 33.0267 166.991C32.0249 166.816 31.4061 167.032 30.6915 167.281C30.0233 167.514 29.2712 167.776 28.044 167.776C20.6001 167.776 19.4259 166.391 18.4007 165.181C18.3065 165.07 18.2136 164.96 18.1173 164.853C16.3348 163.074 16.3348 162.692 19.0085 160.15C20.6636 158.751 22.3188 157.48 22.8281 157.48C25.2471 157.48 24.8652 152.649 21.4276 143.369C15.0616 126.335 16.5894 112.351 26.7749 92.1383C36.0692 73.7054 64.7161 27.9405 69.8087 23.3641C71.2093 22.0928 72.3552 19.6775 72.3552 18.0249C72.3552 12.5585 76.5189 9.48268 78.3469 10.0348C80.1753 10.5869 80.1673 11.8373 81.0924 13.4612ZM115.756 28.1601C115.551 28.606 115.367 29.0046 115.132 29.3179C113.731 31.4791 111.666 32.258 107.847 32.258C99.7556 31.2584 93.8685 27.5969 92.4254 24.688C92.4254 24.688 91.3678 20.421 88.9947 17.4295C88.416 16.6999 87.8618 16.2129 87.4398 15.8419C86.1308 14.6917 84.5663 13.2429 88.9947 10.5515C94.8512 6.99205 100.134 8.26518 107.175 8.26518C114.215 8.26518 118.886 10.3591 122.343 9.4953C125.8 8.63149 125.513 8.28261 127.423 7.78694C129.105 7.35012 131.126 6.90555 131.456 7.30077C131.772 7.67966 131.634 8.41735 131.432 9.4953C131.304 10.1757 131.151 10.9917 131.071 11.9385C130.992 12.8745 131.1 13.6677 131.204 14.4157C131.416 15.9615 131.602 17.3137 130.044 19.3333C128.803 20.941 126.205 22.6099 123.365 23.0734C117.674 24.0022 116.552 26.4347 115.756 28.1601ZM87.5058 20.9487C89.0337 22.8556 90.0294 24.389 90.7101 26.0745C90.7101 28.7441 101.262 34.5323 107.119 34.5323C112.976 34.5323 113.956 33.9972 116.397 31.3213C117.034 30.623 117.376 29.8257 117.717 29.0334C118.083 28.1793 118.447 27.3309 119.176 26.6182C120.866 24.9645 123.233 25.2291 123.233 25.2291C124.752 24.9357 127.434 23.9582 128.605 22.4284C128.605 22.4284 128.11 23.3722 127.709 23.799C126.657 24.9213 126.172 25.2905 125.53 25.7804C125.234 26.0058 124.905 26.2567 124.472 26.6182C121.164 29.3777 115.73 33.5061 115.73 33.5061L107.847 39.6636C100.836 46.6401 94.8906 57.8147 94.8906 66.5863C94.8906 74.8495 98.7101 83.6211 108.513 97.4775C112.461 103.071 116.534 109.936 117.426 112.732C119.59 118.707 121.5 135.869 120.1 135.869C119.59 135.869 115.389 133.835 110.678 131.42C106.094 129.004 97.8187 125.063 92.4713 122.521C80.7582 117.182 71.7746 106.968 64.2894 85.0546C64.0576 84.3754 61.7876 86.1633 66.1163 99.13C69.4267 109.173 75.92 118.961 82.0313 123.029L86.6147 126.207L78.7209 127.86C69.9359 129.64 56.313 134.598 49.4376 138.539C47.0186 139.937 46.1274 140.7 47.5279 140.318C57.4589 137.013 80.7582 131.928 89.6704 131.038C102.784 129.767 108.259 131.293 121.882 140.191C139.707 151.632 145.563 153.412 150.529 148.708C152.056 147.31 154.73 145.785 156.767 145.403C160.077 144.513 160.205 144.641 160.205 149.853C160.205 152.776 159.059 157.861 157.531 161.294L154.858 167.523L146.709 168.286C135.887 169.557 130.412 168.54 112.97 162.565C96.8057 155.636 90.5615 156.336 75.1561 160.023C56.313 164.472 47.5279 162.819 41.7985 153.412C38.1063 147.31 38.6156 142.861 43.7083 135.869C46.1274 132.564 48.1645 131.42 48.1645 128.496C48.1645 125.571 46.382 123.538 44.3449 118.961C40.6527 111.207 40.5253 110.571 42.1805 105.613C43.199 102.817 46.5093 96.5877 49.6923 91.7569C57.8409 79.553 58.4772 78.0275 66.4983 53.7466C70.5726 41.7971 75.3512 30.6297 76.6243 28.5957C76.8963 28.1503 77.2182 27.49 77.5631 26.7833C78.2786 25.3159 79.0917 23.6489 79.756 23.2925C80.2258 23.0404 80.2556 23.3966 80.2941 23.8584C80.3457 24.4796 80.4137 25.2918 81.5893 25.0717C82.7581 24.853 82.561 23.9112 82.4102 23.1927C82.2967 22.6511 82.2096 22.2363 82.7551 22.3539C83.6997 22.5578 85.4314 25.8535 86.2175 28.1862C87.1667 31.0028 88.2052 32.3383 88.2052 31.3213C88.2052 30.3044 87.6178 26.2166 86.2175 23.1656C81.7796 17.4295 83.5591 15.9909 87.5058 20.9487ZM75.6163 14.8634C75.7313 14.5557 75.8486 14.2424 75.9326 13.9528C76.1789 13.106 76.6461 12.5665 77.528 12.6077C78.3572 12.6465 78.7113 13.377 78.6181 14.2007C78.5788 14.5512 78.3293 14.6663 78.0478 14.7963C77.8729 14.8771 77.6858 14.9636 77.528 15.1159C77.2213 15.4123 76.991 15.7248 76.7901 15.9978C76.3504 16.595 76.0495 17.0033 75.3894 16.6411C75.0262 16.4419 75.3142 15.6721 75.6163 14.8634Z" fill="black"/>
<path d="M87.5058 20.9487C89.0337 22.8556 90.0294 24.389 90.7101 26.0745C90.7101 28.7441 101.262 34.5323 107.119 34.5323C112.976 34.5323 113.956 33.9972 116.397 31.3213C117.034 30.623 117.376 29.8257 117.717 29.0334C118.083 28.1793 118.447 27.3309 119.176 26.6182C120.866 24.9645 123.233 25.2291 123.233 25.2291C124.752 24.9357 127.434 23.9582 128.605 22.4284C128.605 22.4284 128.11 23.3722 127.709 23.799C126.657 24.9213 126.172 25.2905 125.53 25.7804C125.234 26.0058 124.905 26.2567 124.472 26.6182C121.164 29.3777 115.73 33.5061 115.73 33.5061L107.847 39.6636C100.836 46.6401 94.8906 57.8147 94.8906 66.5863C94.8906 74.8495 98.7101 83.6211 108.513 97.4775C112.461 103.071 116.534 109.936 117.426 112.732C119.59 118.707 121.5 135.869 120.1 135.869C119.59 135.869 115.389 133.835 110.678 131.42C106.094 129.004 97.8187 125.063 92.4713 122.521C80.7582 117.182 71.7746 106.968 64.2894 85.0546C64.0576 84.3754 61.7876 86.1633 66.1163 99.13C69.4267 109.173 75.92 118.961 82.0313 123.029L86.6147 126.207L78.7209 127.86C69.9359 129.64 56.313 134.598 49.4376 138.539C47.0186 139.937 46.1274 140.7 47.5279 140.318C57.4589 137.013 80.7582 131.928 89.6704 131.038C102.784 129.767 108.259 131.293 121.882 140.191C139.707 151.632 145.563 153.412 150.529 148.708C152.056 147.31 154.73 145.785 156.767 145.403C160.077 144.513 160.205 144.641 160.205 149.853C160.205 152.776 159.059 157.861 157.531 161.294L154.858 167.523L146.709 168.286C135.887 169.557 130.412 168.54 112.97 162.565C96.8057 155.636 90.5615 156.336 75.1561 160.023C56.313 164.472 47.5279 162.819 41.7985 153.412C38.1063 147.31 38.6156 142.861 43.7083 135.869C46.1274 132.564 48.1645 131.42 48.1645 128.496C48.1645 125.571 46.382 123.538 44.3449 118.961C40.6527 111.207 40.5253 110.571 42.1805 105.613C43.199 102.817 46.5093 96.5877 49.6923 91.7569C57.8409 79.553 58.4772 78.0275 66.4983 53.7466C70.5726 41.7971 75.3512 30.6297 76.6243 28.5957C76.8963 28.1503 77.2182 27.49 77.5631 26.7833C78.2786 25.3159 79.0917 23.6489 79.756 23.2925C80.2258 23.0404 80.2556 23.3966 80.2941 23.8584C80.3457 24.4796 80.4137 25.2918 81.5893 25.0717C82.7581 24.853 82.561 23.9112 82.4102 23.1927C82.2967 22.6511 82.2096 22.2363 82.7551 22.3539C83.6997 22.5578 85.4314 25.8535 86.2175 28.1862C87.1667 31.0028 88.2052 32.3383 88.2052 31.3213C88.2052 30.3044 87.6178 26.2166 86.2175 23.1656C81.7796 17.4295 83.5591 15.9909 87.5058 20.9487Z" fill="#FED106"/>
<path d="M115.132 29.3179C113.731 31.4791 111.666 32.258 107.847 32.258C99.7556 31.2584 93.8685 27.5969 92.4254 24.688C92.4254 24.688 91.3678 20.421 88.9947 17.4295C88.416 16.6999 87.8618 16.2129 87.4398 15.8419C86.1308 14.6917 84.5663 13.2429 88.9947 10.5515C94.8512 6.99205 100.134 8.26518 107.175 8.26518C114.215 8.26518 118.886 10.3591 122.343 9.4953C125.8 8.63149 125.513 8.28261 127.423 7.78694C129.105 7.35012 131.126 6.90555 131.456 7.30077C131.772 7.67966 131.634 8.41735 131.432 9.4953C131.304 10.1757 131.151 10.9917 131.071 11.9385C130.992 12.8745 131.1 13.6677 131.204 14.4157C131.416 15.9615 131.602 17.3137 130.044 19.3333C128.803 20.941 126.205 22.6099 123.365 23.0734C117.674 24.0022 116.552 26.4347 115.756 28.1601C115.551 28.606 115.367 29.0046 115.132 29.3179Z" fill="#FED106"/>
<path d="M78.6181 14.2007C78.7113 13.377 78.3572 12.6465 77.528 12.6077C76.6461 12.5665 76.1789 13.106 75.9326 13.9528C75.8486 14.2424 75.7313 14.5557 75.6163 14.8634C75.3142 15.6721 75.0262 16.4419 75.3894 16.6411C76.0495 17.0033 76.3504 16.595 76.7901 15.9978C76.991 15.7248 77.2213 15.4123 77.528 15.1159C77.6858 14.9636 77.8729 14.8771 78.0478 14.7963C78.3293 14.6663 78.5788 14.5512 78.6181 14.2007Z" fill="#FED106"/>
<path d="M108.201 13.0074C107.182 15.2956 109.601 16.9482 111.383 15.1685C112.784 13.7701 111.765 11.1005 109.856 11.1005C109.346 11.1005 108.583 11.9904 108.201 13.0074Z" fill="black"/>
</svg>
